{"glyphs":{"0":{"ha":1332,"x_min":53,"x_max":1279,"o":"m 464 0 q 53 258 53 0 l 53 749 q 464 1007 53 1007 l 868 1007 q 1279 749 1279 1007 l 1279 258 q 868 0 1279 0 l 464 0 m 863 150 q 1040 182 985 150 q 1096 258 1096 214 l 1096 749 q 1040 826 1096 794 q 863 857 985 857 l 469 857 q 292 826 347 857 q 236 749 236 794 l 236 258 q 292 182 236 214 q 469 150 347 150 l 863 150 z "},"1":{"ha":315,"x_min":65,"x_max":250,"o":"m 250 60 q 226 7 250 19 q 157 -6 203 -6 q 89 7 113 -6 q 65 60 65 19 l 65 947 q 89 1000 65 988 q 157 1013 113 1013 q 226 1000 203 1013 q 250 947 250 988 l 250 60 z "},"2":{"ha":1414,"x_min":58,"x_max":1354,"o":"m 465 422 q 292 390 343 422 q 242 314 242 358 l 242 150 l 1300 150 q 1344 131 1333 150 q 1354 75 1354 113 q 1344 19 1354 38 q 1300 0 1333 0 l 124 0 q 58 68 58 0 l 58 314 q 469 572 58 572 l 947 572 q 1120 604 1069 572 q 1171 681 1171 636 l 1171 749 q 1120 826 1171 794 q 947 857 1069 857 l 732 857 q 688 876 699 857 q 678 932 678 894 q 688 988 678 969 q 732 1007 699 1007 l 943 1007 q 1354 749 1354 1007 l 1354 681 q 943 422 1354 422 l 465 422 z "},"3":{"ha":1388,"x_min":56,"x_max":1354,"o":"m 1165 282 q 1157 351 1165 322 q 1124 397 1149 379 q 1053 422 1099 414 q 936 431 1008 431 l 111 431 q 67 449 78 431 q 57 506 57 468 q 67 562 57 543 q 111 581 78 581 l 946 581 q 1050 586 1008 581 q 1117 606 1092 592 q 1153 648 1143 621 q 1164 719 1164 675 q 1156 782 1164 756 q 1124 825 1147 808 q 1060 849 1101 842 q 953 857 1018 857 l 743 857 q 699 876 710 857 q 689 932 689 894 q 699 988 689 969 q 743 1007 710 1007 l 933 1007 q 1099 994 1024 1007 q 1228 949 1174 982 q 1312 861 1282 917 q 1342 718 1342 806 q 1315 590 1342 644 q 1214 500 1288 536 q 1316 428 1278 476 q 1354 288 1354 381 q 1319 142 1354 199 q 1226 55 1283 86 q 1095 12 1169 24 q 944 0 1021 0 l 110 0 q 66 19 76 0 q 56 75 56 38 q 66 131 56 113 q 110 150 76 150 l 956 150 q 1065 158 1024 150 q 1129 181 1107 165 q 1158 222 1151 197 q 1165 282 1165 247 z "},"4":{"ha":1496,"x_min":58,"x_max":1431,"o":"m 243 417 l 1246 417 l 1246 947 q 1269 1000 1246 988 q 1339 1013 1293 1013 q 1407 1000 1383 1013 q 1431 947 1431 988 l 1431 60 q 1407 7 1431 19 q 1339 -6 1383 -6 q 1269 7 1293 -6 q 1246 60 1246 19 l 1246 267 l 126 267 q 78 280 97 267 q 58 324 58 293 l 58 947 q 82 1000 58 988 q 150 1013 106 1013 q 219 1000 196 1013 q 243 947 243 988 l 243 417 z "},"5":{"ha":1418,"x_min":60,"x_max":1381,"o":"m 969 664 q 1381 406 1381 664 l 1381 258 q 969 0 1381 0 l 114 0 q 70 19 81 0 q 60 75 60 38 q 70 131 60 113 q 114 150 81 150 l 974 150 q 1147 181 1096 150 q 1197 258 1197 213 l 1197 406 q 1147 482 1197 450 q 974 514 1096 514 l 128 514 q 81 530 99 514 q 64 574 64 546 l 64 939 q 129 1007 64 1007 l 742 1007 q 785 988 775 1007 q 796 932 796 969 q 785 876 796 894 q 742 857 775 857 l 247 857 l 247 664 l 969 664 z "},"6":{"ha":1438,"x_min":53,"x_max":1397,"o":"m 464 0 q 53 258 53 0 l 53 749 q 464 1007 53 1007 l 714 1007 q 758 988 747 1007 q 768 932 768 969 q 758 876 768 894 q 714 857 747 857 l 469 857 q 292 826 347 857 q 236 749 236 794 l 236 667 l 986 667 q 1397 408 1397 667 l 1397 258 q 986 0 1397 0 l 464 0 m 981 150 q 1158 182 1103 150 q 1214 258 1214 214 l 1214 408 q 1158 485 1214 454 q 981 517 1103 517 l 236 517 l 236 258 q 292 182 236 214 q 469 150 347 150 l 981 150 z "},"7":{"ha":1343,"x_min":25,"x_max":1318,"o":"m 1165 1007 q 1279 988 1240 1007 q 1318 911 1318 968 q 1313 878 1318 893 q 1290 844 1307 864 l 592 32 q 551 2 572 10 q 497 -6 529 -6 q 431 8 451 -6 q 410 51 410 22 q 415 78 410 63 q 443 119 421 94 l 1081 857 l 79 857 q 35 876 46 857 q 25 932 25 894 q 35 988 25 969 q 79 1007 46 1007 l 1165 1007 z "},"8":{"ha":1324,"x_min":33,"x_max":1290,"o":"m 443 0 q 292 12 365 0 q 161 55 218 24 q 69 142 104 86 q 33 288 33 199 q 72 428 33 381 q 174 500 110 476 q 73 590 100 536 q 46 718 46 644 q 76 861 46 806 q 160 949 106 917 q 289 994 214 982 q 454 1007 364 1007 l 869 1007 q 1035 994 960 1007 q 1164 949 1110 982 q 1248 861 1218 917 q 1278 718 1278 806 q 1251 590 1278 644 q 1150 500 1224 536 q 1252 428 1214 476 q 1290 288 1290 381 q 1255 142 1290 199 q 1163 55 1219 86 q 1031 12 1106 24 q 881 0 957 0 l 443 0 m 222 282 q 229 222 222 247 q 258 181 236 197 q 322 158 281 165 q 432 150 363 150 l 892 150 q 1001 158 960 150 q 1065 181 1043 165 q 1094 222 1088 197 q 1101 282 1101 247 q 1093 351 1101 322 q 1060 397 1085 379 q 990 422 1035 414 q 872 431 944 431 l 451 431 q 333 422 378 431 q 264 397 289 414 q 231 351 239 379 q 222 282 222 322 m 435 857 q 328 849 369 857 q 263 825 286 842 q 232 782 240 808 q 224 719 224 756 q 234 648 224 675 q 270 606 244 621 q 338 586 296 592 q 442 581 379 581 l 882 581 q 986 586 944 581 q 1053 606 1028 592 q 1090 648 1079 621 q 1100 719 1100 675 q 1092 782 1100 756 q 1060 825 1083 808 q 996 849 1038 842 q 889 857 954 857 l 435 857 z "},"9":{"ha":1356,"x_min":40,"x_max":1303,"o":"m 892 1007 q 1303 749 1303 1007 l 1303 258 q 892 0 1303 0 l 694 0 q 651 19 661 0 q 640 75 640 38 q 651 131 640 113 q 694 150 661 150 l 886 150 q 1064 181 1008 150 q 1119 258 1119 213 l 1119 340 l 451 340 q 40 599 40 340 l 40 749 q 451 1007 40 1007 l 892 1007 m 457 857 q 279 825 335 857 q 224 749 224 793 l 224 599 q 279 522 224 553 q 457 490 335 490 l 1119 490 l 1119 749 q 1064 825 1119 793 q 886 857 1008 857 l 457 857 z "},"\u0017":{"ha":485,"x_min":0,"x_max":0,"o":""}," ":{"ha":485,"x_min":0,"x_max":0,"o":""},"!":{"ha":350,"x_min":65,"x_max":285,"o":"m 65 81 q 91 146 65 125 q 175 167 117 167 q 259 146 233 167 q 285 81 285 125 q 259 15 285 36 q 175 -6 233 -6 q 91 15 117 -6 q 65 81 65 36 m 268 286 q 244 233 268 246 q 175 221 221 221 q 107 233 131 221 q 83 286 83 246 l 83 947 q 107 1000 83 988 q 175 1013 131 1013 q 244 1000 221 1013 q 268 947 268 988 l 268 286 z "},"\"":{"ha":542,"x_min":50,"x_max":492,"o":"m 50 654 m 221 717 q 199 667 221 679 q 135 654 178 654 q 72 667 93 654 q 50 717 50 679 l 50 967 q 72 1017 50 1004 q 135 1029 93 1029 q 199 1017 178 1029 q 221 967 221 1004 l 221 717 m 492 717 q 470 667 492 679 q 406 654 449 654 q 342 667 364 654 q 321 717 321 679 l 321 967 q 342 1017 321 1004 q 406 1029 364 1029 q 470 1017 449 1029 q 492 967 492 1004 l 492 717 z "},"#":{"ha":1213,"x_min":38,"x_max":1174,"o":"m 294 439 l 340 564 l 183 564 q 142 581 151 564 q 133 633 133 599 q 142 686 133 668 q 183 704 151 704 l 392 704 l 493 981 q 519 1005 500 997 q 565 1013 538 1013 q 597 1010 579 1013 q 631 1001 615 1007 q 656 985 646 994 q 667 960 667 975 q 661 936 667 951 l 576 704 l 785 704 l 886 981 q 912 1005 893 997 q 958 1013 931 1013 q 990 1010 972 1013 q 1024 1001 1008 1007 q 1049 985 1039 994 q 1060 960 1060 975 q 1054 936 1060 951 l 969 704 l 1124 704 q 1165 686 1156 704 q 1174 633 1174 668 q 1165 581 1174 599 q 1124 564 1156 564 l 918 564 l 872 439 l 1028 439 q 1069 421 1060 439 q 1078 368 1078 403 q 1069 316 1078 333 q 1028 299 1060 299 l 821 299 l 721 26 q 695 2 714 10 q 649 -6 676 -6 q 616 -3 633 -6 q 583 6 599 0 q 558 22 568 13 q 547 47 547 32 q 553 71 547 56 l 636 299 l 428 299 l 328 26 q 302 2 321 10 q 256 -6 283 -6 q 223 -3 240 -6 q 190 6 206 0 q 165 22 175 13 q 154 47 154 32 q 160 71 154 56 l 243 299 l 88 299 q 47 316 56 299 q 38 368 38 333 q 47 421 38 403 q 88 439 56 439 l 294 439 m 479 439 l 688 439 l 733 564 l 525 564 l 479 439 z "},"$":{"ha":1236,"x_min":44,"x_max":1190,"o":"m 713 586 l 779 586 q 1190 328 1190 586 l 1190 286 q 779 28 1190 28 l 713 28 l 713 -10 q 690 -62 713 -50 q 624 -75 668 -75 q 558 -62 579 -75 q 536 -10 536 -50 l 536 28 l 99 28 q 55 47 65 28 q 44 103 44 65 q 55 159 44 140 q 99 178 65 178 l 536 178 l 536 436 l 456 436 q 44 694 44 436 l 44 721 q 456 979 44 979 l 536 979 l 536 1017 q 558 1069 536 1057 q 624 1082 579 1082 q 690 1069 668 1082 q 713 1017 713 1057 l 713 586 m 713 436 l 713 178 l 783 178 q 956 209 906 178 q 1007 286 1007 240 l 1007 328 q 956 404 1007 372 q 783 436 906 436 l 713 436 m 228 694 q 278 618 228 650 q 451 586 329 586 l 536 586 l 536 829 l 451 829 q 278 798 329 829 q 228 721 228 767 l 228 694 z "},"%":{"ha":1751,"x_min":53,"x_max":1699,"o":"m 53 0 m 290 431 q 53 583 53 431 l 53 853 q 290 1007 53 1007 l 513 1007 q 750 853 750 1007 l 750 583 q 513 431 750 431 l 290 431 m 510 535 q 599 549 571 535 q 626 583 626 564 l 626 853 q 599 888 626 874 q 510 901 571 901 l 293 901 q 204 888 232 901 q 176 853 176 874 l 176 583 q 204 549 176 564 q 293 535 232 535 l 510 535 m 586 21 q 522 -6 565 -6 q 461 38 461 -6 q 465 51 461 42 q 481 79 468 61 l 1168 988 q 1194 1008 1179 1003 q 1232 1013 1210 1013 q 1293 969 1293 1013 q 1289 953 1293 963 q 1274 929 1285 944 l 586 21 m 1239 0 q 1001 153 1001 0 l 1001 422 q 1239 576 1001 576 l 1461 576 q 1699 422 1699 576 l 1699 153 q 1461 0 1699 0 l 1239 0 m 1458 104 q 1547 119 1519 104 q 1575 153 1575 133 l 1575 422 q 1547 457 1575 443 q 1458 471 1519 471 l 1242 471 q 1153 457 1181 471 q 1125 422 1125 443 l 1125 153 q 1153 119 1125 133 q 1242 104 1181 104 l 1458 104 z "},"&":{"ha":1433,"x_min":51,"x_max":1406,"o":"m 1161 42 q 1065 10 1117 19 q 963 0 1013 0 l 444 0 q 51 242 51 0 l 51 293 q 57 353 51 324 q 78 408 63 382 q 119 453 93 433 q 188 486 146 474 l 340 531 l 258 581 q 186 647 208 611 q 164 725 164 682 l 164 797 q 243 951 164 896 q 486 1007 322 1007 l 719 1007 q 878 992 813 1007 q 985 951 944 978 q 1045 885 1026 924 q 1064 796 1064 846 l 1064 753 q 1026 635 1064 678 q 911 568 989 593 l 686 496 l 1119 249 l 1119 465 q 1142 518 1119 506 q 1208 531 1164 531 q 1274 518 1253 531 q 1296 465 1296 506 l 1296 242 q 1291 197 1296 218 q 1279 157 1286 176 l 1365 108 q 1395 83 1385 97 q 1406 50 1406 69 q 1382 7 1406 19 q 1310 -6 1358 -6 q 1238 3 1264 -6 q 1201 18 1213 11 l 1161 42 m 919 140 q 989 144 957 140 l 499 436 l 289 369 q 242 338 257 358 q 228 293 228 317 l 228 242 q 281 170 228 200 q 450 140 333 140 l 919 140 m 340 728 q 356 692 340 707 q 407 656 371 676 l 528 586 l 832 676 q 874 702 860 685 q 888 754 888 719 l 888 796 q 849 849 888 831 q 717 867 810 867 l 504 867 q 385 849 431 867 q 340 772 340 832 l 340 728 z "},"'":{"ha":271,"x_min":50,"x_max":221,"o":"m 221 717 q 199 667 221 679 q 135 654 178 654 q 72 667 93 654 q 50 717 50 679 l 50 967 q 72 1017 50 1004 q 135 1029 93 1029 q 199 1017 178 1029 q 221 967 221 1004 l 221 717 z "},"(":{"ha":493,"x_min":113,"x_max":475,"o":"m 272 1 q 285 -74 272 -44 q 319 -121 297 -103 q 369 -151 340 -139 q 429 -172 397 -162 q 462 -189 449 -179 q 475 -229 475 -199 q 456 -278 475 -264 q 393 -292 436 -292 q 283 -269 335 -292 q 194 -208 232 -247 q 135 -115 157 -168 q 113 1 113 -61 l 113 960 q 135 1076 113 1022 q 194 1169 157 1129 q 283 1231 232 1208 q 393 1253 335 1253 q 456 1239 436 1253 q 475 1190 475 1225 q 462 1150 475 1160 q 429 1133 449 1140 q 369 1111 397 1122 q 319 1082 340 1100 q 285 1035 297 1064 q 272 960 272 1006 l 272 1 l 272 1 z "},")":{"ha":493,"x_min":18,"x_max":381,"o":"m 221 960 q 208 1035 221 1006 q 174 1082 196 1064 q 124 1111 153 1100 q 64 1133 96 1122 q 31 1150 44 1140 q 18 1190 18 1160 q 38 1239 18 1225 q 100 1253 57 1253 q 210 1231 158 1253 q 299 1169 261 1208 q 358 1076 336 1129 q 381 960 381 1022 l 381 1 q 358 -115 381 -61 q 299 -208 336 -168 q 210 -269 261 -247 q 100 -292 158 -292 q 38 -278 57 -292 q 18 -229 18 -264 q 31 -189 18 -199 q 64 -172 44 -179 q 124 -151 96 -162 q 174 -121 153 -139 q 208 -74 196 -103 q 221 1 221 -44 l 221 960 z "},"*":{"ha":814,"x_min":65,"x_max":749,"o":"m 500 588 q 481 546 500 556 q 407 536 461 536 q 333 546 353 536 q 314 588 314 556 q 315 602 314 594 q 318 623 315 610 q 325 656 321 636 q 338 704 329 675 l 192 624 q 174 615 181 617 q 158 614 167 614 q 127 625 143 614 q 97 653 111 636 q 74 689 83 669 q 65 724 65 708 q 78 757 65 743 q 117 775 92 771 l 226 794 l 117 815 q 78 833 92 819 q 65 867 65 847 q 74 901 65 882 q 97 938 83 921 q 127 965 111 954 q 158 976 143 976 q 174 975 167 976 q 192 967 181 974 l 338 886 q 325 935 329 915 q 318 967 321 954 q 315 988 315 981 q 314 1003 314 996 q 333 1044 314 1035 q 407 1054 353 1054 q 481 1044 461 1054 q 500 1003 500 1035 q 499 988 500 996 q 496 967 499 981 q 489 935 493 954 q 476 886 485 915 l 622 967 q 640 975 633 974 q 656 976 647 976 q 686 965 669 976 q 717 938 703 954 q 740 901 731 921 q 749 867 749 882 q 735 833 749 847 q 697 815 722 819 l 588 794 l 697 775 q 735 757 722 771 q 749 724 749 743 q 740 689 749 708 q 717 653 731 669 q 686 625 703 636 q 656 614 669 614 q 640 615 647 614 q 622 624 633 617 l 476 704 q 489 656 485 675 q 496 623 493 636 q 499 602 499 610 q 500 588 500 594 z "},"+":{"ha":846,"x_min":53,"x_max":793,"o":"m 503 422 l 503 192 q 483 144 503 156 q 422 133 463 133 q 363 144 382 133 q 343 192 343 156 l 343 422 l 111 422 q 64 442 75 422 q 53 503 53 463 q 64 563 53 543 q 111 582 75 582 l 343 582 l 343 815 q 363 863 343 851 q 422 874 382 874 q 483 863 463 874 q 503 815 503 851 l 503 582 l 735 582 q 782 563 771 582 q 793 503 793 543 q 782 442 793 463 q 735 422 771 422 l 503 422 z "},",":{"ha":350,"x_min":58,"x_max":285,"o":"m 244 -75 q 218 -119 239 -107 q 149 -131 197 -131 q 80 -119 101 -131 q 58 -81 58 -108 q 60 -60 58 -72 q 64 -36 61 -49 l 100 188 q 126 231 106 219 q 196 243 147 243 q 265 232 244 243 q 285 189 285 221 q 284 173 285 182 q 282 157 283 164 l 244 -75 z "},"-":{"ha":656,"x_min":17,"x_max":639,"o":"m 589 567 q 630 549 621 567 q 639 496 639 531 q 630 444 639 461 q 589 426 621 426 l 67 426 q 26 444 35 426 q 17 496 17 461 q 26 549 17 531 q 67 567 35 567 l 589 567 z "},".":{"ha":350,"x_min":65,"x_max":285,"o":"m 65 81 q 91 146 65 125 q 175 167 117 167 q 259 146 233 167 q 285 81 285 125 q 259 15 285 36 q 175 -6 233 -6 q 91 15 117 -6 q 65 81 65 36 z "},"/":{"ha":1157,"x_min":0,"x_max":1157,"o":"m 171 -193 q 135 -220 156 -212 q 85 -228 115 -228 q 0 -169 0 -228 q 6 -147 0 -160 q 26 -112 11 -133 l 986 1163 q 1022 1190 1001 1182 q 1072 1197 1042 1197 q 1157 1139 1157 1197 q 1151 1116 1157 1129 q 1131 1082 1146 1103 l 171 -193 z "},":":{"ha":392,"x_min":88,"x_max":307,"o":"m 88 81 q 113 146 88 125 q 197 167 139 167 q 281 146 256 167 q 307 81 307 125 q 281 15 307 36 q 197 -6 256 -6 q 113 15 139 -6 q 88 81 88 36 m 88 479 q 113 544 88 524 q 197 565 139 565 q 281 544 256 565 q 307 479 307 524 q 281 414 307 435 q 197 393 256 393 q 113 414 139 393 q 88 479 88 435 z "},";":{"ha":392,"x_min":53,"x_max":307,"o":"m 88 479 q 113 544 88 524 q 197 565 139 565 q 281 544 256 565 q 307 479 307 524 q 281 414 307 435 q 197 393 256 393 q 113 414 139 393 q 88 479 88 435 m 239 -75 q 213 -119 233 -107 q 143 -131 192 -131 q 74 -119 96 -131 q 53 -81 53 -108 q 54 -60 53 -72 q 58 -36 56 -49 l 94 188 q 121 231 100 219 q 190 243 142 243 q 259 232 239 243 q 279 189 279 221 q 278 173 279 182 q 276 157 278 164 l 239 -75 z "},"<":{"ha":846,"x_min":51,"x_max":790,"o":"m 51 507 q 62 559 51 543 q 90 582 72 575 l 600 803 q 703 821 640 821 q 769 808 747 821 q 790 761 790 794 q 781 725 790 739 q 749 701 772 711 l 265 507 l 749 313 q 781 289 772 303 q 790 253 790 275 q 769 206 790 219 q 703 193 747 193 q 600 211 640 193 l 90 432 q 62 454 72 439 q 51 507 51 469 z "},"=":{"ha":846,"x_min":53,"x_max":793,"o":"m 111 228 q 64 248 75 228 q 53 308 53 268 q 64 368 53 349 q 111 388 75 388 l 735 388 q 782 368 771 388 q 793 308 793 349 q 782 248 793 268 q 735 228 771 228 l 111 228 m 111 617 q 64 637 75 617 q 53 697 53 657 q 64 757 53 738 q 111 776 75 776 l 735 776 q 782 757 771 776 q 793 697 793 738 q 782 637 793 657 q 735 617 771 617 l 111 617 z "},">":{"ha":846,"x_min":51,"x_max":790,"o":"m 790 507 q 780 454 790 469 q 751 432 769 439 l 242 211 q 139 193 201 193 q 73 206 94 193 q 51 253 51 219 q 60 289 51 275 q 93 313 69 303 l 576 507 l 93 701 q 60 725 69 711 q 51 761 51 739 q 73 808 51 794 q 139 821 94 821 q 242 803 201 821 l 751 582 q 780 559 769 575 q 790 507 790 543 z "},"?":{"ha":932,"x_min":40,"x_max":892,"o":"m 290 400 q 248 388 256 400 q 240 344 240 375 l 240 285 q 217 233 240 246 q 150 221 194 221 q 83 233 106 221 q 60 285 60 246 l 60 363 q 80 449 60 414 q 133 506 100 485 q 207 537 165 528 q 292 546 249 546 l 485 546 q 660 578 607 546 q 714 654 714 610 l 714 749 q 660 826 714 794 q 485 857 607 857 l 426 857 q 383 876 393 857 q 372 932 372 894 q 383 988 372 969 q 426 1007 393 1007 l 481 1007 q 892 749 892 1007 l 892 654 q 790 462 892 524 q 481 400 688 400 l 290 400 m 40 81 q 66 146 40 125 q 150 167 92 167 q 234 146 208 167 q 260 81 260 125 q 234 15 260 36 q 150 -6 208 -6 q 66 15 92 -6 q 40 81 40 36 z "},"@":{"ha":1106,"x_min":53,"x_max":1053,"o":"m 617 56 q 410 102 486 56 q 335 242 335 149 l 335 368 q 656 554 335 554 l 908 554 l 908 661 q 860 719 908 694 q 711 743 811 743 l 394 743 q 249 720 294 743 q 204 661 204 697 l 204 -32 q 249 -90 204 -67 q 394 -114 294 -114 l 990 -114 q 1024 -128 1017 -114 q 1032 -171 1032 -143 q 1024 -213 1032 -199 q 990 -228 1017 -228 l 390 -228 q 53 -32 53 -228 l 53 661 q 390 857 53 857 l 715 857 q 968 806 883 857 q 1053 661 1053 756 l 1053 242 q 976 102 1053 149 q 761 56 900 56 l 617 56 m 661 446 q 522 423 565 446 q 479 368 479 400 l 479 242 q 517 187 479 210 q 617 164 554 164 l 761 164 q 870 187 832 164 q 908 242 908 210 l 908 446 l 661 446 z "},"A":{"ha":1446,"x_min":17,"x_max":1429,"o":"m 706 1011 q 772 999 746 1011 q 814 963 797 986 l 1419 99 q 1429 67 1429 83 q 1420 38 1429 51 q 1397 14 1411 24 q 1364 -1 1382 4 q 1328 -7 1346 -7 q 1293 -1 1308 -7 q 1267 21 1278 6 l 1103 260 l 331 260 l 176 21 q 151 -1 167 6 q 117 -7 135 -7 q 82 -1 100 -7 q 49 15 64 4 q 26 38 35 25 q 17 68 17 51 q 26 99 17 82 l 596 963 q 638 999 611 986 q 706 1011 664 1011 m 426 410 l 1000 410 l 706 842 l 426 410 z "},"B":{"ha":1357,"x_min":65,"x_max":1324,"o":"m 1324 288 q 1288 142 1324 199 q 1196 55 1253 86 q 1065 12 1139 24 q 914 0 990 0 l 129 0 q 65 65 65 0 l 65 943 q 129 1007 65 1007 l 903 1007 q 1068 994 993 1007 q 1197 949 1143 982 q 1281 861 1251 917 q 1311 718 1311 806 q 1284 590 1311 644 q 1183 500 1257 536 q 1285 428 1247 476 q 1324 288 1324 381 m 254 581 l 915 581 q 1019 586 978 581 q 1087 606 1061 592 q 1123 648 1113 621 q 1133 719 1133 675 q 1125 782 1133 756 q 1094 825 1117 808 q 1029 849 1071 842 q 922 857 988 857 l 254 857 l 254 581 m 1135 282 q 1126 350 1135 322 q 1093 396 1118 378 q 1023 422 1068 414 q 906 429 978 429 l 250 429 l 250 150 l 925 150 q 1035 158 993 150 q 1099 181 1076 165 q 1128 222 1121 197 q 1135 282 1135 247 z "},"C":{"ha":1244,"x_min":53,"x_max":1199,"o":"m 464 0 q 53 258 53 0 l 53 749 q 464 1007 53 1007 l 1144 1007 q 1188 988 1178 1007 q 1199 932 1199 969 q 1188 876 1199 894 q 1144 857 1178 857 l 469 857 q 292 826 347 857 q 236 749 236 794 l 236 258 q 292 182 236 214 q 469 150 347 150 l 1146 150 q 1189 131 1179 150 q 1199 75 1199 113 q 1189 19 1199 39 q 1146 0 1179 0 l 464 0 z "},"D":{"ha":1381,"x_min":65,"x_max":1328,"o":"m 1328 258 q 917 0 1328 0 l 129 0 q 65 65 65 0 l 65 943 q 129 1007 65 1007 l 917 1007 q 1328 749 1328 1007 l 1328 258 m 250 150 l 911 150 q 1090 182 1033 150 q 1146 258 1146 214 l 1146 749 q 1090 826 1146 794 q 911 857 1033 857 l 250 857 l 250 150 z "},"E":{"ha":1239,"x_min":53,"x_max":1192,"o":"m 236 421 l 236 258 q 292 182 236 214 q 469 150 347 150 l 1133 150 q 1177 131 1167 150 q 1188 75 1188 113 q 1177 19 1188 39 q 1133 0 1167 0 l 464 0 q 53 258 53 0 l 53 749 q 464 1007 53 1007 l 671 1007 q 713 988 703 1007 q 724 932 724 969 q 713 876 724 894 q 671 857 703 857 l 469 857 q 292 826 347 857 q 236 749 236 794 l 236 571 l 1138 571 q 1181 552 1171 571 q 1192 496 1192 533 q 1181 440 1192 458 q 1138 421 1171 421 l 236 421 z "},"F":{"ha":1215,"x_min":60,"x_max":1199,"o":"m 622 1007 q 665 988 656 1007 q 675 932 675 969 q 665 876 675 894 q 622 857 656 857 l 476 857 q 299 826 354 857 q 244 749 244 794 l 244 571 l 1144 571 q 1188 552 1178 571 q 1199 496 1199 533 q 1188 440 1199 458 q 1144 421 1178 421 l 244 421 l 244 60 q 221 7 244 19 q 151 -6 197 -6 q 83 7 107 -6 q 60 60 60 19 l 60 749 q 471 1007 60 1007 l 622 1007 z "},"G":{"ha":1347,"x_min":53,"x_max":1297,"o":"m 1297 258 q 1192 63 1297 125 q 885 0 1088 0 l 464 0 q 53 258 53 0 l 53 749 q 464 1007 53 1007 l 660 1007 q 703 988 693 1007 q 714 932 714 969 q 703 876 714 894 q 660 857 693 857 l 469 857 q 292 826 347 857 q 236 749 236 794 l 236 258 q 292 182 236 214 q 469 150 347 150 l 879 150 q 1056 182 1001 150 q 1111 258 1111 214 l 1111 506 q 1134 558 1111 546 q 1203 571 1157 571 q 1273 558 1249 571 q 1297 506 1297 546 l 1297 258 z "},"H":{"ha":1394,"x_min":65,"x_max":1329,"o":"m 250 571 l 1144 571 l 1144 947 q 1168 1000 1144 988 q 1238 1013 1192 1013 q 1306 1000 1282 1013 q 1329 947 1329 988 l 1329 60 q 1306 7 1329 19 q 1238 -6 1282 -6 q 1168 7 1192 -6 q 1144 60 1144 19 l 1144 421 l 250 421 l 250 60 q 226 7 250 19 q 157 -6 203 -6 q 89 7 113 -6 q 65 60 65 19 l 65 947 q 89 1000 65 988 q 157 1013 113 1013 q 226 1000 203 1013 q 250 947 250 988 l 250 571 z "},"I":{"ha":315,"x_min":65,"x_max":250,"o":"m 250 60 q 226 7 250 19 q 157 -6 203 -6 q 89 7 113 -6 q 65 60 65 19 l 65 947 q 89 1000 65 988 q 157 1013 113 1013 q 226 1000 203 1013 q 250 947 250 988 l 250 60 z "},"J":{"ha":640,"x_min":17,"x_max":581,"o":"m 69 0 q 26 19 36 0 q 17 76 17 39 q 26 131 17 113 q 69 150 36 150 l 164 150 q 341 182 286 150 q 396 258 396 214 l 396 947 q 419 1000 396 988 q 489 1013 443 1013 q 557 1000 533 1013 q 581 947 581 988 l 581 258 q 168 0 581 0 l 69 0 z "},"K":{"ha":1221,"x_min":65,"x_max":1194,"o":"m 250 599 l 982 993 q 1024 1008 1001 1004 q 1094 1013 1047 1013 q 1147 997 1125 1013 q 1169 949 1169 981 q 1125 885 1169 907 l 383 511 l 1150 122 q 1194 58 1194 100 q 1172 10 1194 26 q 1119 -6 1150 -6 q 1049 -1 1072 -6 q 1007 14 1026 3 l 250 415 l 250 60 q 226 7 250 19 q 157 -6 203 -6 q 89 7 113 -6 q 65 60 65 19 l 65 947 q 89 1000 65 988 q 157 1013 113 1013 q 226 1000 203 1013 q 250 947 250 988 l 250 599 z "},"L":{"ha":1226,"x_min":60,"x_max":1210,"o":"m 471 0 q 60 258 60 0 l 60 947 q 83 1000 60 988 q 151 1013 107 1013 q 221 1000 197 1013 q 244 947 244 988 l 244 258 q 299 182 244 214 q 476 150 354 150 l 1157 150 q 1200 131 1190 150 q 1210 76 1210 113 q 1200 19 1210 39 q 1157 0 1190 0 l 471 0 z "},"M":{"ha":1838,"x_min":65,"x_max":1772,"o":"m 1560 956 q 1609 993 1582 982 q 1669 1004 1636 1004 q 1772 910 1772 1004 l 1772 60 q 1749 7 1772 19 q 1679 -6 1725 -6 q 1610 7 1633 -6 q 1586 60 1586 19 l 1586 718 l 1032 47 q 983 7 1008 19 q 922 -6 958 -6 q 855 7 882 -6 q 806 47 828 19 l 250 718 l 250 60 q 226 7 250 19 q 157 -6 203 -6 q 89 7 113 -6 q 65 60 65 19 l 65 910 q 167 1004 65 1004 q 276 956 235 1004 l 915 185 l 1560 956 z "},"N":{"ha":1385,"x_min":65,"x_max":1319,"o":"m 1224 -6 q 1192 -4 1204 -6 q 1168 3 1179 -3 q 1144 17 1157 8 q 1114 42 1132 26 l 250 769 l 250 60 q 226 7 250 19 q 157 -6 203 -6 q 89 7 113 -6 q 65 60 65 19 l 65 947 q 88 999 65 986 q 153 1013 110 1013 q 225 1001 199 1013 q 283 961 251 989 l 1135 236 l 1135 947 q 1158 1000 1135 988 q 1226 1013 1182 1013 q 1296 1000 1272 1013 q 1319 947 1319 988 l 1319 60 q 1296 7 1319 19 q 1224 -6 1272 -6 z "},"O":{"ha":1332,"x_min":53,"x_max":1279,"o":"m 464 0 q 53 258 53 0 l 53 749 q 464 1007 53 1007 l 868 1007 q 1279 749 1279 1007 l 1279 258 q 868 0 1279 0 l 464 0 m 863 150 q 1040 182 985 150 q 1096 258 1096 214 l 1096 749 q 1040 826 1096 794 q 863 857 985 857 l 469 857 q 292 826 347 857 q 236 749 236 794 l 236 258 q 292 182 236 214 q 469 150 347 150 l 863 150 z "},"P":{"ha":1367,"x_min":65,"x_max":1326,"o":"m 65 943 q 131 1007 65 1007 l 918 1007 q 1088 991 1013 1007 q 1217 946 1164 975 q 1298 875 1269 917 q 1326 782 1326 833 l 1326 581 q 1298 488 1326 529 q 1217 417 1269 446 q 1088 372 1164 388 q 918 356 1013 356 l 250 356 l 250 60 q 226 7 250 19 q 157 -6 203 -6 q 89 7 113 -6 q 65 60 65 19 l 65 943 m 250 857 l 250 506 l 901 506 q 1019 513 972 506 q 1093 531 1065 519 q 1132 559 1121 543 q 1143 594 1143 575 l 1143 768 q 1132 803 1143 786 q 1093 831 1121 819 q 1019 850 1065 843 q 901 857 972 857 l 250 857 z "},"Q":{"ha":1360,"x_min":53,"x_max":1307,"o":"m 1307 263 q 1263 126 1307 181 q 1138 42 1219 72 l 1226 -6 q 1271 -71 1271 -29 q 1249 -118 1271 -103 q 1176 -133 1226 -133 q 1083 -114 1121 -133 l 874 4 l 464 4 q 53 263 53 4 l 53 749 q 464 1007 53 1007 l 896 1007 q 1307 749 1307 1007 l 1307 263 m 890 150 q 1003 158 958 150 q 1074 181 1047 167 q 1113 216 1101 196 q 1124 258 1124 236 l 1124 749 q 1068 826 1124 794 q 890 857 1013 857 l 469 857 q 292 826 347 857 q 236 749 236 794 l 236 258 q 292 182 236 214 q 469 150 347 150 l 890 150 z "},"R":{"ha":1368,"x_min":65,"x_max":1319,"o":"m 65 943 q 131 1007 65 1007 l 911 1007 q 1081 991 1006 1007 q 1210 946 1157 975 q 1291 875 1263 917 q 1319 782 1319 833 l 1319 607 q 1291 514 1319 556 q 1210 443 1263 472 q 1081 398 1157 414 q 911 382 1006 382 l 856 382 q 749 382 794 382 q 669 383 704 382 q 607 385 635 383 q 553 388 579 386 l 553 385 q 601 367 575 376 q 664 344 626 358 q 755 310 701 331 q 888 257 808 289 l 1222 122 q 1267 60 1267 104 q 1242 8 1267 22 q 1172 -6 1218 -6 q 1148 -5 1163 -6 q 1118 -2 1133 -4 q 1088 3 1103 0 q 1063 14 1074 7 l 250 365 l 250 60 q 226 7 250 19 q 157 -6 203 -6 q 89 7 113 -6 q 65 60 65 19 l 65 943 m 250 857 l 250 529 l 894 529 q 1012 536 965 529 q 1086 555 1058 543 q 1125 583 1114 567 q 1136 618 1136 599 l 1136 768 q 1125 803 1136 786 q 1086 831 1114 819 q 1012 850 1058 843 q 894 857 965 857 l 250 857 z "},"S":{"ha":1232,"x_min":47,"x_max":1193,"o":"m 458 436 q 47 694 47 436 l 47 749 q 458 1007 47 1007 l 597 1007 q 641 988 631 1007 q 651 932 651 969 q 641 876 651 894 q 597 857 631 857 l 454 857 q 281 826 332 857 q 231 749 231 794 l 231 694 q 281 618 231 650 q 454 586 332 586 l 782 586 q 1193 328 1193 586 l 1193 258 q 782 0 1193 0 l 101 0 q 58 19 68 0 q 47 75 47 38 q 58 131 47 113 q 101 150 68 150 l 786 150 q 959 181 908 150 q 1010 258 1010 213 l 1010 328 q 959 404 1010 372 q 786 436 908 436 l 458 436 z "},"T":{"ha":1164,"x_min":17,"x_max":1147,"o":"m 674 857 l 674 60 q 650 7 674 19 q 581 -6 626 -6 q 513 7 536 -6 q 489 60 489 19 l 489 857 l 71 857 q 27 876 38 857 q 17 932 17 894 q 27 988 17 969 q 71 1007 38 1007 l 1093 1007 q 1137 988 1126 1007 q 1147 932 1147 969 q 1137 876 1147 894 q 1093 857 1126 857 l 674 857 z "},"U":{"ha":1369,"x_min":60,"x_max":1310,"o":"m 471 0 q 60 258 60 0 l 60 947 q 83 1000 60 988 q 151 1013 107 1013 q 221 1000 197 1013 q 244 947 244 988 l 244 258 q 299 182 244 214 q 476 150 354 150 l 893 150 q 1070 182 1015 150 q 1125 258 1125 214 l 1125 947 q 1149 1000 1125 988 q 1218 1013 1172 1013 q 1286 1000 1263 1013 q 1310 947 1310 988 l 1310 258 q 899 0 1310 0 l 471 0 z "},"V":{"ha":1489,"x_min":17,"x_max":1472,"o":"m 747 -6 q 681 7 707 -6 q 639 43 656 19 l 28 907 q 17 939 17 925 q 26 967 17 954 q 52 991 36 981 q 87 1007 68 1001 q 124 1013 106 1013 q 160 1006 142 1013 q 190 983 179 999 l 751 176 l 1307 983 q 1368 1013 1325 1013 q 1404 1007 1386 1013 q 1438 991 1422 1001 q 1463 967 1453 981 q 1472 938 1472 954 q 1461 907 1472 921 l 857 43 q 814 7 840 19 q 747 -6 788 -6 z "},"W":{"ha":1932,"x_min":17,"x_max":1915,"o":"m 632 54 q 525 -6 606 -6 q 456 10 485 -6 q 411 58 426 25 l 25 915 q 17 947 17 932 q 45 995 17 978 q 118 1013 74 1013 q 169 1002 150 1013 q 197 971 188 992 l 522 208 l 860 943 q 901 998 879 983 q 965 1013 924 1013 q 1028 998 1010 1013 q 1065 943 1047 983 l 1401 208 l 1735 971 q 1814 1013 1753 1013 q 1887 995 1858 1013 q 1915 947 1915 978 q 1907 915 1915 932 l 1513 58 q 1399 -6 1483 -6 q 1333 8 1361 -6 q 1289 54 1304 22 l 961 768 l 632 54 z "},"X":{"ha":1318,"x_min":26,"x_max":1292,"o":"m 665 606 l 1104 982 q 1143 1002 1122 997 q 1197 1007 1164 1007 q 1230 1006 1214 1007 q 1258 998 1246 1004 q 1278 981 1271 992 q 1286 950 1286 969 q 1277 918 1286 931 q 1242 882 1268 906 l 793 499 l 1246 119 q 1283 83 1274 96 q 1292 51 1292 71 q 1266 4 1292 14 q 1200 -6 1240 -6 q 1151 -1 1169 -6 q 1114 19 1133 4 l 656 403 l 208 19 q 169 -1 189 4 q 118 -6 149 -6 q 85 -4 101 -6 q 55 3 68 -3 q 34 21 42 10 q 26 51 26 32 q 35 83 26 71 q 71 119 44 96 l 528 510 l 86 882 q 49 918 58 906 q 40 950 40 931 q 65 997 40 986 q 131 1007 90 1007 q 182 1002 163 1007 q 218 982 201 997 l 665 606 z "},"Y":{"ha":1276,"x_min":15,"x_max":1261,"o":"m 44 901 q 15 957 15 928 q 39 996 15 979 q 115 1013 63 1013 q 162 1006 146 1013 q 193 986 178 1000 l 639 553 l 1083 986 q 1114 1006 1097 1000 q 1161 1013 1131 1013 q 1238 997 1214 1013 q 1261 957 1261 981 q 1232 901 1261 928 l 731 417 l 731 60 q 707 7 731 19 q 638 -6 683 -6 q 569 7 593 -6 q 546 60 546 19 l 546 417 l 44 901 z "},"Z":{"ha":1233,"x_min":25,"x_max":1172,"o":"m 178 0 q 64 19 103 0 q 25 96 25 39 q 32 134 25 119 q 54 161 39 149 l 990 982 q 1031 1002 1007 997 q 1086 1007 1054 1007 q 1117 1006 1101 1007 q 1144 998 1132 1004 q 1165 981 1157 992 q 1172 950 1172 969 q 1162 916 1172 929 q 1128 882 1151 903 l 278 150 l 1115 150 q 1159 131 1149 150 q 1169 75 1169 113 q 1159 19 1169 38 q 1115 0 1149 0 l 178 0 z "},"[":{"ha":493,"x_min":135,"x_max":464,"o":"m 203 -292 q 135 -219 135 -292 l 135 1181 q 203 1253 135 1253 l 418 1253 q 456 1237 447 1253 q 464 1189 464 1221 q 456 1142 464 1157 q 418 1126 447 1126 l 294 1126 l 294 -165 l 418 -165 q 456 -181 447 -165 q 464 -228 464 -196 q 456 -276 464 -260 q 418 -292 447 -292 l 203 -292 z "},"\\":{"ha":1157,"x_min":0,"x_max":1157,"o":"m 26 1082 q 6 1116 11 1103 q 0 1139 0 1129 q 85 1197 0 1197 q 135 1190 115 1197 q 171 1163 156 1182 l 1131 -112 q 1151 -147 1146 -133 q 1157 -169 1157 -160 q 1072 -228 1157 -228 q 1022 -220 1042 -228 q 986 -193 1001 -212 l 26 1082 z "},"]":{"ha":493,"x_min":29,"x_max":358,"o":"m 75 -292 q 38 -276 46 -292 q 29 -228 29 -260 q 38 -181 29 -196 q 75 -165 46 -165 l 199 -165 l 199 1126 l 75 1126 q 38 1142 46 1126 q 29 1189 29 1157 q 38 1237 29 1221 q 75 1253 46 1253 l 290 1253 q 358 1181 358 1253 l 358 -219 q 290 -292 358 -292 l 75 -292 z "},"^":{"ha":846,"x_min":54,"x_max":790,"o":"m 225 381 q 150 349 211 349 q 81 362 107 349 q 54 399 54 375 q 63 425 54 410 l 318 963 q 358 1001 331 989 q 422 1013 385 1013 q 487 1001 460 1013 q 526 963 514 989 l 782 425 q 790 399 790 410 q 764 362 790 375 q 694 349 738 349 q 619 381 633 349 l 422 836 l 225 381 z "},"_":{"ha":1238,"x_min":0,"x_max":1238,"o":"m 54 -256 q 10 -237 21 -256 q 0 -181 0 -218 q 10 -124 0 -143 q 54 -106 21 -106 l 1183 -106 q 1227 -124 1217 -106 q 1238 -181 1238 -143 q 1227 -237 1238 -218 q 1183 -256 1217 -256 l 54 -256 z "},"`":{"ha":603,"x_min":53,"x_max":550,"o":"m 94 1035 q 53 1093 53 1057 q 74 1138 53 1124 q 122 1153 94 1153 q 187 1149 167 1153 q 226 1135 207 1144 l 508 982 q 550 922 550 960 q 529 878 550 893 q 481 864 508 864 q 416 868 436 864 q 376 882 396 872 l 94 1035 z "},"a":{"ha":1261,"x_min":44,"x_max":1208,"o":"m 438 0 q 44 242 44 0 l 44 315 q 438 557 44 557 l 1032 557 l 1032 558 q 980 622 1032 599 q 810 644 928 644 l 679 644 q 638 662 647 644 q 628 714 628 679 q 638 767 628 750 q 679 785 647 785 l 815 785 q 1208 543 1208 785 l 1208 242 q 815 0 1208 0 l 438 0 m 810 140 q 979 170 926 140 q 1032 242 1032 200 l 1032 422 l 443 422 q 274 393 326 422 q 221 321 221 364 l 221 242 q 274 170 221 200 q 443 140 326 140 l 810 140 z "},"b":{"ha":1225,"x_min":60,"x_max":1172,"o":"m 236 785 l 779 785 q 1172 543 1172 785 l 1172 242 q 779 0 1172 0 l 453 0 q 60 242 60 0 l 60 947 q 81 1000 60 988 q 147 1013 103 1013 q 214 1000 192 1013 q 236 947 236 988 l 236 785 m 236 644 l 236 242 q 289 170 236 200 q 458 140 342 140 l 774 140 q 943 170 890 140 q 996 242 996 200 l 996 543 q 943 615 996 586 q 774 644 890 644 l 236 644 z "},"c":{"ha":1240,"x_min":53,"x_max":1194,"o":"m 446 0 q 53 242 53 0 l 53 543 q 446 785 53 785 l 1140 785 q 1182 767 1172 785 q 1192 714 1192 750 q 1182 662 1192 679 q 1140 644 1172 644 l 451 644 q 282 615 335 644 q 229 543 229 586 l 229 242 q 282 170 229 200 q 451 140 335 140 l 1144 140 q 1185 123 1176 140 q 1194 71 1194 106 q 1185 18 1194 36 q 1144 0 1176 0 l 446 0 z "},"d":{"ha":1232,"x_min":53,"x_max":1172,"o":"m 996 947 q 1018 1000 996 988 q 1085 1013 1040 1013 q 1151 1000 1129 1013 q 1172 947 1172 988 l 1172 242 q 779 0 1172 0 l 446 0 q 53 242 53 0 l 53 543 q 446 785 53 785 l 996 785 l 996 947 m 451 644 q 282 615 335 644 q 229 543 229 586 l 229 242 q 282 170 229 200 q 451 140 335 140 l 774 140 q 943 170 890 140 q 996 242 996 200 l 996 644 l 451 644 z "},"e":{"ha":1201,"x_min":53,"x_max":1160,"o":"m 229 313 l 229 242 q 282 170 229 200 q 451 140 335 140 l 611 140 q 652 123 643 140 q 661 71 661 106 q 652 18 661 36 q 611 0 643 0 l 446 0 q 53 242 53 0 l 53 543 q 446 785 53 785 l 767 785 q 1067 725 975 785 q 1160 543 1160 665 l 1160 383 q 1144 328 1160 343 q 1076 313 1129 313 l 229 313 m 229 450 l 983 450 l 983 543 q 931 618 983 592 q 761 644 879 644 l 451 644 q 282 615 335 644 q 229 543 229 586 l 229 450 z "},"f":{"ha":611,"x_min":60,"x_max":569,"o":"m 519 1007 q 560 989 551 1007 q 569 936 569 971 q 560 884 569 901 q 519 867 551 867 l 419 867 q 285 846 325 867 q 238 785 244 825 l 519 785 q 560 767 551 785 q 569 714 569 749 q 560 662 569 679 q 519 644 551 644 l 236 644 l 236 60 q 214 7 236 19 q 147 -6 192 -6 q 81 7 103 -6 q 60 60 60 19 l 60 767 q 152 947 60 888 q 419 1007 244 1007 l 519 1007 z "},"g":{"ha":1217,"x_min":53,"x_max":1157,"o":"m 606 -228 q 565 -210 574 -228 q 556 -157 556 -192 q 565 -105 556 -122 q 606 -87 574 -87 l 797 -87 q 940 -62 900 -87 q 981 13 981 -36 l 981 19 l 446 19 q 53 261 53 19 l 53 543 q 446 785 53 785 l 764 785 q 1157 543 1157 785 l 1157 13 q 1065 -168 1157 -108 q 797 -228 972 -228 l 606 -228 m 981 157 l 981 543 q 928 615 981 585 q 758 644 875 644 l 451 644 q 282 615 335 644 q 229 543 229 585 l 229 258 q 282 186 229 215 q 451 157 335 157 l 981 157 z "},"h":{"ha":1228,"x_min":65,"x_max":1168,"o":"m 153 -6 q 87 7 108 -6 q 65 60 65 19 l 65 947 q 87 1000 65 988 q 153 1013 108 1013 q 219 1000 197 1013 q 242 947 242 988 l 242 785 l 775 785 q 1168 543 1168 785 l 1168 60 q 1146 7 1168 19 q 1079 -6 1124 -6 q 1013 7 1035 -6 q 992 60 992 19 l 992 543 q 939 615 992 586 q 769 644 886 644 l 242 644 l 242 60 q 219 7 242 19 q 153 -6 197 -6 z "},"i":{"ha":307,"x_min":43,"x_max":263,"o":"m 242 60 q 219 7 242 19 q 153 -6 197 -6 q 87 7 108 -6 q 65 60 65 19 l 65 715 q 87 768 65 756 q 153 781 108 781 q 219 768 197 781 q 242 715 242 756 l 242 60 m 43 926 q 69 992 43 971 q 153 1013 94 1013 q 237 992 211 1013 q 263 926 263 971 q 237 861 263 882 q 153 840 211 840 q 69 861 94 840 q 43 926 43 882 z "},"j":{"ha":389,"x_min":-200,"x_max":344,"o":"m 125 926 q 151 992 125 971 q 235 1013 176 1013 q 319 992 293 1013 q 344 926 344 971 q 319 861 344 882 q 235 840 293 840 q 151 861 176 840 q 125 926 125 882 m -150 -228 q -191 -210 -182 -228 q -200 -157 -200 -192 q -191 -105 -200 -122 q -150 -87 -182 -87 l -36 -87 q 107 -62 67 -87 q 147 13 147 -36 l 147 715 q 169 768 147 756 q 236 781 192 781 q 302 768 281 781 q 324 715 324 756 l 324 13 q 231 -168 324 -108 q -36 -228 139 -228 l -150 -228 z "},"k":{"ha":1024,"x_min":65,"x_max":997,"o":"m 242 475 l 811 775 q 852 788 829 785 q 918 790 875 790 q 966 778 946 790 q 986 739 986 765 q 975 708 986 719 q 947 689 964 697 l 389 396 l 957 108 q 997 50 997 88 q 973 7 997 19 q 900 -6 949 -6 q 830 1 856 -6 q 793 15 804 8 l 242 307 l 242 60 q 219 7 242 19 q 153 -6 197 -6 q 87 7 108 -6 q 65 60 65 19 l 65 947 q 87 1000 65 988 q 153 1013 108 1013 q 219 1000 197 1013 q 242 947 242 988 l 242 475 z "},"l":{"ha":307,"x_min":65,"x_max":242,"o":"m 242 60 q 219 7 242 19 q 153 -6 197 -6 q 87 7 108 -6 q 65 60 65 19 l 65 947 q 87 1000 65 988 q 153 1013 108 1013 q 219 1000 197 1013 q 242 947 242 988 l 242 60 z "},"m":{"ha":1629,"x_min":60,"x_max":1569,"o":"m 1482 -6 q 1415 7 1438 -6 q 1393 60 1393 19 l 1393 543 q 1346 615 1393 586 q 1182 644 1299 644 l 1104 644 q 1008 637 1046 644 q 946 615 969 629 q 913 583 922 601 q 903 543 903 564 l 903 60 q 881 7 903 19 q 814 -6 858 -6 q 747 8 767 -6 q 726 60 726 22 l 726 543 q 717 583 726 564 q 683 615 707 601 q 622 637 660 629 q 525 644 583 644 l 447 644 q 283 615 331 644 q 236 543 236 586 l 236 60 q 214 7 236 19 q 147 -6 192 -6 q 81 7 103 -6 q 60 60 60 19 l 60 543 q 153 725 60 665 q 417 785 247 785 l 554 785 q 814 715 729 785 q 1075 785 900 785 l 1213 785 q 1476 725 1382 785 q 1569 543 1569 665 l 1569 60 q 1548 7 1569 19 q 1482 -6 1526 -6 z "},"n":{"ha":1208,"x_min":60,"x_max":1149,"o":"m 147 -6 q 81 7 103 -6 q 60 60 60 19 l 60 543 q 453 785 60 785 l 756 785 q 1149 543 1149 785 l 1149 60 q 1126 7 1149 19 q 1060 -6 1104 -6 q 994 7 1015 -6 q 972 60 972 19 l 972 543 q 919 615 972 586 q 750 644 867 644 l 458 644 q 289 615 342 644 q 236 543 236 586 l 236 60 q 214 7 236 19 q 147 -6 192 -6 z "},"o":{"ha":1194,"x_min":53,"x_max":1142,"o":"m 53 543 q 446 785 53 785 l 749 785 q 1142 543 1142 785 l 1142 242 q 749 0 1142 0 l 446 0 q 53 242 53 0 l 53 543 m 965 543 q 913 615 965 586 q 743 644 860 644 l 451 644 q 282 615 335 644 q 229 543 229 586 l 229 242 q 282 170 229 200 q 451 140 335 140 l 743 140 q 913 170 860 140 q 965 242 965 200 l 965 543 z "},"p":{"ha":1232,"x_min":60,"x_max":1179,"o":"m 236 -168 q 214 -221 236 -208 q 147 -233 192 -233 q 81 -221 103 -233 q 60 -168 60 -208 l 60 543 q 453 785 60 785 l 786 785 q 1179 543 1179 785 l 1179 242 q 786 0 1179 0 l 236 0 l 236 -168 m 781 140 q 950 169 897 140 q 1003 242 1003 199 l 1003 543 q 950 615 1003 585 q 781 644 897 644 l 458 644 q 289 615 342 644 q 236 543 236 585 l 236 140 l 781 140 z "},"q":{"ha":1217,"x_min":53,"x_max":1157,"o":"m 981 0 l 446 0 q 53 242 53 0 l 53 543 q 446 785 53 785 l 764 785 q 1157 543 1157 785 l 1157 -168 q 1135 -221 1157 -208 q 1069 -233 1114 -233 q 1003 -221 1025 -233 q 981 -168 981 -208 l 981 0 m 981 140 l 981 543 q 928 615 981 585 q 758 644 875 644 l 451 644 q 282 615 335 644 q 229 543 229 585 l 229 242 q 282 169 229 199 q 451 140 335 140 l 981 140 z "},"r":{"ha":608,"x_min":60,"x_max":578,"o":"m 528 785 q 569 767 560 785 q 578 714 578 749 q 569 662 578 679 q 528 644 560 644 l 419 644 q 276 618 317 644 q 236 544 236 592 l 236 60 q 214 7 236 19 q 147 -6 192 -6 q 81 7 103 -6 q 60 60 60 19 l 60 544 q 152 725 60 665 q 419 785 244 785 l 528 785 z "},"s":{"ha":1096,"x_min":47,"x_max":1057,"o":"m 47 576 q 131 729 47 674 q 378 785 214 785 l 568 785 q 610 767 600 785 q 619 714 619 750 q 610 662 619 679 q 568 644 600 644 l 376 644 q 260 626 297 644 q 222 575 222 607 l 222 539 q 261 488 222 507 q 383 468 300 468 l 690 468 q 971 413 885 468 q 1057 257 1057 357 l 1057 213 q 1035 123 1057 163 q 965 56 1013 83 q 843 15 918 29 q 664 0 768 0 l 101 0 q 60 17 69 0 q 50 71 50 35 q 60 123 50 106 q 101 140 69 140 l 690 140 q 783 145 746 140 q 841 159 819 150 q 871 181 863 168 q 879 210 879 193 l 879 260 q 871 289 879 276 q 842 311 863 301 q 785 326 821 321 q 696 331 750 331 l 385 331 q 132 385 217 331 q 47 536 47 440 l 47 576 z "},"t":{"ha":682,"x_min":17,"x_max":665,"o":"m 146 785 l 146 947 q 167 1000 146 988 q 233 1013 189 1013 q 300 1000 278 1013 q 322 947 322 988 l 322 785 l 615 785 q 656 767 647 785 q 665 714 665 749 q 656 662 665 679 q 615 644 647 644 l 322 644 l 322 60 q 300 7 322 19 q 233 -6 278 -6 q 167 7 189 -6 q 146 60 146 19 l 146 644 l 67 644 q 26 662 35 644 q 17 714 17 679 q 26 767 17 749 q 67 785 35 785 l 146 785 z "},"u":{"ha":1238,"x_min":60,"x_max":1178,"o":"m 1090 790 q 1156 778 1135 790 q 1178 725 1178 765 l 1178 242 q 785 0 1178 0 l 453 0 q 60 242 60 0 l 60 725 q 82 778 60 765 q 149 790 104 790 q 215 778 193 790 q 236 725 236 765 l 236 242 q 289 169 236 199 q 458 140 342 140 l 779 140 q 949 169 896 140 q 1001 242 1001 199 l 1001 725 q 1024 778 1001 765 q 1090 790 1046 790 z "},"v":{"ha":1339,"x_min":17,"x_max":1322,"o":"m 672 -6 q 613 3 636 -6 q 575 32 590 13 l 29 708 q 17 738 17 722 q 47 776 17 761 q 121 790 78 790 q 169 784 144 790 q 208 758 193 778 l 674 175 l 1140 760 q 1177 784 1154 778 q 1224 790 1200 790 q 1292 776 1263 790 q 1322 739 1322 763 q 1310 708 1322 725 l 769 32 q 731 3 754 13 q 672 -6 708 -6 z "},"w":{"ha":1644,"x_min":14,"x_max":1631,"o":"m 546 42 q 446 -6 521 -6 q 381 6 408 -6 q 342 44 354 18 l 22 714 q 14 740 14 728 q 40 777 14 764 q 110 790 67 790 q 185 758 171 790 l 444 175 l 736 736 q 772 779 753 768 q 826 790 790 790 q 860 787 847 790 q 883 777 874 783 q 899 760 892 771 q 913 736 906 750 l 1193 175 l 1458 758 q 1535 790 1472 790 q 1604 777 1578 790 q 1631 740 1631 764 q 1622 714 1631 728 l 1294 44 q 1255 6 1282 18 q 1192 -6 1228 -6 q 1130 6 1157 -6 q 1090 42 1103 17 l 824 583 l 546 42 z "},"x":{"ha":1182,"x_min":29,"x_max":1153,"o":"m 596 486 l 956 771 q 989 786 971 782 q 1051 790 1007 790 q 1122 783 1094 790 q 1149 744 1149 775 q 1140 721 1149 731 q 1108 692 1132 711 l 721 390 l 1113 93 q 1144 64 1136 74 q 1153 39 1153 54 q 1128 2 1153 10 q 1058 -6 1104 -6 q 999 -1 1018 -6 q 964 14 979 3 l 589 304 l 221 14 q 185 -2 204 1 q 129 -6 165 -6 q 56 1 83 -6 q 29 40 29 8 q 37 64 29 54 q 68 93 44 74 l 464 400 l 81 692 q 49 722 57 711 q 42 746 42 733 q 66 782 42 774 q 139 790 90 790 q 195 786 176 790 q 229 771 214 782 l 596 486 z "},"y":{"ha":1222,"x_min":60,"x_max":1157,"o":"m 981 160 l 981 725 q 1002 778 981 765 q 1068 790 1024 790 q 1135 778 1113 790 q 1157 725 1157 765 l 1157 13 q 1065 -168 1157 -108 q 797 -228 972 -228 l 606 -228 q 565 -210 574 -228 q 556 -157 556 -192 q 565 -105 556 -122 q 606 -87 574 -87 l 797 -87 q 940 -62 900 -87 q 981 13 981 -36 l 981 19 l 453 19 q 60 261 60 19 l 60 725 q 81 778 60 765 q 147 790 103 790 q 214 778 192 790 q 236 725 236 765 l 236 260 q 289 188 236 217 q 458 160 342 160 l 981 160 z "},"z":{"ha":1201,"x_min":36,"x_max":1142,"o":"m 322 140 l 1092 140 q 1133 122 1124 140 q 1142 69 1142 104 q 1133 17 1142 35 q 1092 0 1124 0 l 171 0 q 66 17 96 0 q 36 72 36 35 q 44 106 36 92 q 71 136 51 121 l 926 771 q 965 786 942 782 q 1028 790 989 790 q 1094 783 1067 790 q 1122 746 1122 776 q 1113 719 1122 729 q 1081 693 1103 708 l 322 140 z "},"{":{"ha":493,"x_min":78,"x_max":464,"o":"m 381 -292 q 224 -233 272 -292 q 176 -75 176 -175 l 176 328 q 172 368 176 353 q 158 392 167 383 q 136 406 149 401 q 108 414 124 410 q 85 430 92 418 q 78 481 78 442 q 85 531 78 519 q 108 547 92 543 q 136 556 124 551 q 158 569 149 560 q 172 593 167 578 q 176 633 176 608 l 176 1036 q 224 1194 176 1136 q 381 1253 272 1253 q 444 1240 425 1253 q 464 1192 464 1228 q 457 1156 464 1168 q 441 1137 450 1143 q 422 1128 432 1131 q 403 1126 411 1126 q 351 1099 367 1124 q 336 1036 336 1075 l 336 631 q 317 524 336 564 q 257 481 297 485 q 317 436 297 476 q 336 331 336 396 l 336 -75 q 351 -138 336 -114 q 403 -165 367 -162 q 422 -167 411 -165 q 441 -176 432 -169 q 457 -195 450 -182 q 464 -231 464 -208 q 444 -279 464 -267 q 381 -292 425 -292 z "},"|":{"ha":496,"x_min":168,"x_max":328,"o":"m 328 -233 q 308 -281 328 -269 q 247 -292 288 -292 q 188 -281 207 -292 q 168 -233 168 -269 l 168 1194 q 188 1242 168 1231 q 247 1253 207 1253 q 308 1242 288 1253 q 328 1194 328 1231 l 328 -233 z "},"}":{"ha":493,"x_min":29,"x_max":415,"o":"m 113 -292 q 49 -279 68 -292 q 29 -231 29 -267 q 36 -195 29 -208 q 52 -176 43 -182 q 72 -167 61 -169 q 90 -165 82 -165 q 142 -138 126 -162 q 157 -75 157 -114 l 157 331 q 176 436 157 396 q 236 481 196 476 q 176 524 196 485 q 157 631 157 564 l 157 1036 q 142 1099 157 1075 q 90 1126 126 1124 q 72 1128 82 1126 q 52 1137 61 1131 q 36 1156 43 1143 q 29 1192 29 1168 q 49 1240 29 1228 q 113 1253 68 1253 q 269 1194 221 1253 q 317 1036 317 1136 l 317 633 q 322 593 317 608 q 335 569 326 578 q 357 556 344 560 q 385 547 369 551 q 408 531 401 543 q 415 481 415 519 q 408 430 415 442 q 385 414 401 418 q 357 406 369 410 q 335 392 344 401 q 322 368 326 383 q 317 328 317 353 l 317 -75 q 269 -233 317 -175 q 113 -292 221 -292 z "},"~":{"ha":846,"x_min":53,"x_max":793,"o":"m 576 381 q 484 399 525 381 q 410 439 443 417 q 347 479 376 461 q 290 497 318 497 q 233 474 258 497 q 189 419 208 450 q 165 390 178 400 q 115 381 151 381 q 69 392 85 381 q 53 442 53 403 q 72 520 53 485 q 120 581 90 556 q 189 619 150 606 q 268 632 228 632 q 358 614 318 632 q 431 574 397 596 q 495 533 465 551 q 554 515 525 515 q 612 538 586 515 q 657 593 638 560 q 681 622 668 613 q 729 632 693 632 q 777 621 761 632 q 793 571 793 610 q 774 492 793 528 q 726 432 756 457 q 657 394 696 407 q 576 381 618 381 z "}," ":{"ha":485,"x_min":0,"x_max":0,"o":""},"¡":{"ha":350,"x_min":65,"x_max":285,"o":"m 65 732 q 91 797 65 776 q 175 818 117 818 q 259 797 233 818 q 285 732 285 776 q 259 667 285 688 q 175 646 233 646 q 91 667 117 646 q 65 732 65 688 m 268 -135 q 244 -187 268 -175 q 175 -200 221 -200 q 107 -187 131 -200 q 83 -135 83 -175 l 83 526 q 107 579 83 567 q 175 592 131 592 q 244 579 221 592 q 268 526 268 567 l 268 -135 z "},"¢":{"ha":1139,"x_min":53,"x_max":1083,"o":"m 700 882 l 1029 882 q 1071 865 1061 882 q 1081 811 1081 847 q 1071 759 1081 776 q 1029 742 1061 742 l 700 742 l 700 238 l 1033 238 q 1074 220 1065 238 q 1083 168 1083 203 q 1074 115 1083 133 q 1033 97 1065 97 l 700 97 l 700 53 q 680 6 700 17 q 619 -6 660 -6 q 560 6 579 -6 q 540 53 540 17 l 540 97 l 446 97 q 53 339 53 97 l 53 640 q 446 882 53 882 l 540 882 l 540 949 q 560 996 540 985 q 619 1007 579 1007 q 680 996 660 1007 q 700 949 700 985 l 700 882 m 229 339 q 282 267 229 297 q 451 238 335 238 l 540 238 l 540 742 l 451 742 q 282 713 335 742 q 229 640 229 683 l 229 339 z "},"£":{"ha":1164,"x_min":17,"x_max":1106,"o":"m 985 579 q 1026 561 1017 579 q 1035 508 1035 543 q 1026 456 1035 474 q 985 439 1017 439 l 396 439 l 396 150 l 1051 150 q 1095 131 1085 150 q 1106 75 1106 113 q 1095 19 1106 38 q 1051 0 1085 0 l 71 0 q 27 19 38 0 q 17 75 17 38 q 27 131 17 113 q 71 150 38 150 l 211 150 l 211 439 l 115 439 q 74 456 83 439 q 65 508 65 474 q 74 561 65 543 q 115 579 83 579 l 211 579 l 211 749 q 624 1007 211 1007 l 722 1007 q 765 988 756 1007 q 775 931 775 968 q 765 876 775 894 q 722 857 756 857 l 628 857 q 451 825 506 857 q 396 749 396 793 l 396 579 l 985 579 z "},"¤":{"ha":846,"x_min":46,"x_max":799,"o":"m 571 243 q 501 210 539 222 q 422 199 463 199 q 343 210 381 199 q 275 243 306 222 l 185 151 q 124 125 158 125 q 69 147 93 125 q 46 200 46 168 q 51 228 46 214 q 71 257 57 243 l 167 350 q 134 419 146 382 q 122 497 122 457 q 134 575 122 538 q 167 644 146 613 l 71 739 q 46 794 46 764 q 70 847 46 825 q 125 869 94 869 q 155 864 140 869 q 185 843 169 858 l 275 751 q 344 784 307 772 q 422 796 382 796 q 500 783 463 796 q 569 751 538 771 l 661 843 q 721 871 689 871 q 775 848 751 871 q 799 794 799 825 q 774 739 799 764 l 676 643 q 709 574 697 611 q 721 497 721 538 q 709 420 721 457 q 678 351 697 383 l 774 257 q 799 200 799 232 q 775 147 799 169 q 721 124 751 124 q 661 151 689 124 l 571 243 m 596 497 q 583 564 596 532 q 546 619 569 596 q 490 656 522 642 q 422 669 458 669 q 354 656 386 669 q 299 619 322 642 q 262 564 275 596 q 249 497 249 532 q 262 429 249 461 q 299 374 275 397 q 354 337 322 350 q 422 324 386 324 q 490 337 458 324 q 546 374 522 350 q 583 429 569 397 q 596 497 596 461 z "},"¥":{"ha":1176,"x_min":64,"x_max":1113,"o":"m 681 367 l 681 290 l 1039 290 q 1086 271 1075 290 q 1097 211 1097 251 q 1086 151 1097 171 q 1039 131 1075 131 l 681 131 l 681 60 q 657 7 681 19 q 588 -6 633 -6 q 519 7 543 -6 q 496 60 496 19 l 496 131 l 138 131 q 90 151 101 131 q 79 211 79 171 q 90 271 79 251 q 138 290 101 290 l 496 290 l 496 367 l 138 367 q 90 387 101 367 q 79 447 79 407 q 90 507 79 488 q 138 526 101 526 l 482 526 l 93 901 q 64 957 64 928 q 88 996 64 979 q 164 1013 111 1013 q 210 1006 194 1013 q 242 986 226 1000 l 589 650 l 935 986 q 965 1006 949 1000 q 1013 1013 982 1013 q 1089 997 1065 1013 q 1113 957 1113 981 q 1083 901 1113 928 l 693 526 l 1039 526 q 1086 507 1075 526 q 1097 447 1097 488 q 1086 387 1097 407 q 1039 367 1075 367 l 681 367 z "},"¦":{"ha":496,"x_min":168,"x_max":328,"o":"m 328 628 q 308 581 328 592 q 247 569 288 569 q 188 581 207 569 q 168 628 168 592 l 168 1139 q 188 1186 168 1175 q 247 1197 207 1197 q 308 1186 288 1197 q 328 1139 328 1175 l 328 628 m 328 -178 q 308 -225 328 -214 q 247 -236 288 -236 q 188 -225 207 -236 q 168 -178 168 -214 l 168 333 q 188 381 168 369 q 247 392 207 392 q 308 381 288 392 q 328 333 328 369 l 328 -178 z "},"§":{"ha":1054,"x_min":71,"x_max":983,"o":"m 392 532 q 236 443 236 532 l 236 376 q 418 276 236 276 l 682 276 q 824 368 824 276 l 824 429 q 665 532 824 532 l 392 532 m 983 368 q 871 200 983 253 q 983 31 983 140 q 654 -229 983 -229 l 140 -229 q 71 -160 71 -229 q 140 -86 71 -86 l 682 -86 q 824 31 824 -86 q 668 133 824 133 l 444 133 q 81 375 81 133 l 81 443 q 192 607 81 549 q 81 775 81 664 q 428 1007 81 1007 l 463 1007 q 536 935 536 1007 q 463 865 536 865 l 392 865 q 236 775 236 865 q 410 675 236 675 l 646 675 q 983 429 983 675 l 983 368 z "},"¨":{"ha":644,"x_min":53,"x_max":592,"o":"m 372 968 q 398 1033 372 1013 q 482 1054 424 1054 q 566 1033 540 1054 q 592 968 592 1013 q 566 903 592 924 q 482 882 540 882 q 398 903 424 882 q 372 968 372 924 m 53 968 q 78 1033 53 1013 q 163 1054 104 1054 q 247 1033 221 1054 q 272 968 272 1013 q 247 903 272 924 q 163 882 221 882 q 78 903 104 882 q 53 968 53 924 z "},"©":{"ha":1201,"x_min":65,"x_max":1136,"o":"m 1136 268 q 1061 71 1136 142 q 818 0 986 0 l 383 0 q 140 71 215 0 q 65 268 65 142 l 65 739 q 140 936 65 865 q 383 1007 215 1007 l 818 1007 q 1061 936 986 1007 q 1136 739 1136 865 l 1136 268 m 153 278 q 210 136 153 182 q 385 90 268 90 l 817 90 q 991 136 933 90 q 1049 278 1049 182 l 1049 729 q 991 871 1049 825 q 817 917 933 917 l 385 917 q 210 871 268 917 q 153 729 153 825 l 153 278 m 485 246 q 268 382 268 246 l 268 640 q 485 776 268 776 l 844 776 q 867 767 863 776 q 872 738 872 757 q 867 708 872 718 q 844 697 863 697 l 488 697 q 394 681 424 697 q 365 640 365 664 l 365 382 q 394 342 365 358 q 488 325 424 325 l 844 325 q 867 315 863 325 q 872 285 872 304 q 867 256 872 265 q 844 246 863 246 l 485 246 z "},"ª":{"ha":735,"x_min":35,"x_max":697,"o":"m 261 553 q 35 697 35 553 l 35 724 q 261 868 35 868 l 578 868 q 551 897 575 886 q 467 907 528 907 l 394 907 q 363 920 369 907 q 356 957 356 933 q 363 994 356 981 q 394 1007 369 1007 l 469 1007 q 697 863 697 1007 l 697 697 q 469 553 697 553 l 261 553 m 467 653 q 551 665 525 653 q 578 697 578 678 l 578 771 l 264 771 q 179 758 206 771 q 153 726 153 746 l 153 697 q 179 665 153 678 q 264 653 206 653 l 467 653 z "},"«":{"ha":794,"x_min":39,"x_max":756,"o":"m 39 0 m 39 392 q 45 436 39 419 q 63 464 51 453 l 392 781 q 411 790 401 790 q 435 767 426 790 q 444 713 444 744 q 440 676 444 694 q 424 647 436 658 l 154 390 l 429 129 q 444 102 440 119 q 449 68 449 85 q 440 17 449 39 q 417 -6 431 -6 q 396 4 406 -6 l 63 319 q 39 392 39 340 m 346 392 q 352 436 346 419 q 369 464 358 453 l 699 781 q 718 790 708 790 q 742 767 733 790 q 751 713 751 744 q 747 676 751 694 q 731 647 743 658 l 461 390 l 736 129 q 751 102 747 119 q 756 68 756 85 q 747 17 756 39 q 724 -6 738 -6 q 703 4 713 -6 l 369 319 q 346 392 346 340 z "},"¬":{"ha":846,"x_min":53,"x_max":793,"o":"m 793 53 q 773 6 793 17 q 713 -6 753 -6 q 653 6 672 -6 q 633 53 633 17 l 633 422 l 111 422 q 64 442 75 422 q 53 503 53 463 q 64 563 53 543 q 111 582 75 582 l 742 582 q 781 568 769 582 q 793 528 793 554 l 793 53 z "},"­":{"ha":656,"x_min":17,"x_max":639,"o":"m 17 426 m 589 567 q 630 549 621 567 q 639 496 639 531 q 630 444 639 461 q 589 426 621 426 l 67 426 q 26 444 35 426 q 17 496 17 461 q 26 549 17 531 q 67 567 35 567 l 589 567 z "},"®":{"ha":1201,"x_min":65,"x_max":1136,"o":"m 1136 268 q 1061 71 1136 142 q 818 0 986 0 l 383 0 q 140 71 215 0 q 65 268 65 142 l 65 739 q 140 936 65 865 q 383 1007 215 1007 l 818 1007 q 1061 936 986 1007 q 1136 739 1136 865 l 1136 268 m 153 278 q 210 136 153 182 q 385 90 268 90 l 817 90 q 991 136 933 90 q 1049 278 1049 182 l 1049 729 q 991 871 1049 825 q 817 917 933 917 l 385 917 q 210 871 268 917 q 153 729 153 825 l 153 278 m 278 743 q 313 776 278 776 l 724 776 q 881 744 824 776 q 939 658 939 711 l 939 565 q 881 480 939 513 q 724 447 824 447 l 547 447 l 888 310 q 911 276 911 303 q 868 243 911 243 q 804 253 824 243 l 376 439 l 376 278 q 363 250 376 257 q 326 243 350 243 q 290 250 303 243 q 278 278 278 257 l 278 743 m 376 697 l 376 525 l 715 525 q 817 539 790 525 q 843 572 843 553 l 843 650 q 817 683 843 669 q 715 697 790 697 l 376 697 z "},"¯":{"ha":724,"x_min":53,"x_max":671,"o":"m 625 1039 q 662 1023 653 1039 q 671 975 671 1007 q 662 927 671 943 q 625 911 653 911 l 99 911 q 61 927 69 911 q 53 975 53 943 q 61 1023 53 1007 q 99 1039 69 1039 l 625 1039 z "},"°":{"ha":642,"x_min":65,"x_max":576,"o":"m 65 1021 q 261 1154 65 1154 l 379 1154 q 576 1021 576 1154 l 576 776 q 379 642 576 642 l 261 642 q 65 776 65 642 l 65 1021 m 461 1001 q 439 1035 461 1021 q 368 1049 417 1049 l 272 1049 q 201 1035 224 1049 q 179 1001 179 1021 l 179 796 q 201 762 179 776 q 272 747 224 747 l 368 747 q 439 762 417 747 q 461 796 461 776 l 461 1001 z "},"±":{"ha":846,"x_min":53,"x_max":793,"o":"m 53 0 m 503 519 l 503 289 q 483 242 503 253 q 422 231 463 231 q 363 242 382 231 q 343 289 343 253 l 343 519 l 111 519 q 64 540 75 519 q 53 600 53 560 q 64 660 53 640 q 111 679 75 679 l 343 679 l 343 913 q 363 960 343 949 q 422 971 382 971 q 483 960 463 971 q 503 913 503 949 l 503 679 l 735 679 q 782 660 771 679 q 793 600 793 640 q 782 540 793 560 q 735 519 771 519 l 503 519 m 111 0 q 64 20 75 0 q 53 81 53 40 q 64 140 53 121 q 111 160 75 160 l 735 160 q 782 140 771 160 q 793 81 793 121 q 782 20 793 40 q 735 0 771 0 l 111 0 z "},"²":{"ha":819,"x_min":42,"x_max":776,"o":"m 42 431 m 276 663 q 190 649 215 663 q 165 614 165 635 l 165 535 l 736 535 q 768 523 760 535 q 776 483 776 511 q 768 444 776 457 q 736 431 760 431 l 89 431 q 42 479 42 431 l 42 614 q 279 768 42 768 l 542 768 q 628 782 603 768 q 654 815 654 796 l 654 853 q 628 888 654 874 q 542 901 603 901 l 424 901 q 390 915 397 901 q 382 954 382 928 q 390 994 382 981 q 424 1007 397 1007 l 539 1007 q 776 853 776 1007 l 776 815 q 539 663 776 663 l 276 663 z "},"³":{"ha":804,"x_min":40,"x_max":776,"o":"m 40 431 m 650 597 q 646 628 650 615 q 629 650 642 642 q 594 663 617 658 q 536 667 572 667 l 82 667 q 49 680 56 667 q 42 719 42 693 q 49 759 42 746 q 82 772 56 772 l 542 772 q 627 785 604 772 q 650 838 650 797 q 630 886 650 871 q 544 901 610 901 l 429 901 q 397 915 406 901 q 389 954 389 928 q 397 994 389 981 q 429 1007 406 1007 l 535 1007 q 630 999 586 1007 q 704 972 674 992 q 752 920 735 953 q 769 836 769 888 q 758 768 769 799 q 714 717 746 738 q 760 675 743 701 q 776 600 776 649 q 756 515 776 547 q 703 463 736 482 q 627 438 669 444 q 540 431 585 431 l 81 431 q 49 444 57 431 q 40 483 40 457 q 49 523 40 511 q 81 535 57 535 l 546 535 q 601 538 581 535 q 632 549 621 542 q 647 569 643 557 q 650 597 650 581 z "},"´":{"ha":603,"x_min":53,"x_max":550,"o":"m 226 882 q 187 868 207 872 q 122 864 167 864 q 74 878 94 864 q 53 922 53 893 q 94 982 53 960 l 376 1135 q 416 1149 396 1144 q 481 1153 436 1153 q 529 1138 508 1153 q 550 1093 550 1124 q 508 1035 550 1057 l 226 882 z "},"¶":{"ha":1032,"x_min":32,"x_max":967,"o":"m 178 781 q 314 668 178 668 l 815 668 l 815 886 l 306 886 q 178 781 178 886 m 890 -229 q 834 -218 853 -229 q 815 -175 815 -207 l 815 547 l 597 547 l 597 -175 q 578 -217 597 -207 q 521 -226 560 -226 q 465 -217 483 -226 q 446 -175 446 -207 l 446 547 l 333 547 q 32 781 32 547 q 325 1007 32 1007 l 917 1007 q 967 957 967 1007 l 967 -175 q 948 -218 967 -207 q 890 -229 929 -229 z "},"·":{"ha":350,"x_min":65,"x_max":285,"o":"m 65 411 m 65 497 q 91 563 65 542 q 175 583 117 583 q 259 563 233 583 q 285 497 285 542 q 259 432 285 453 q 175 411 233 411 q 91 432 117 411 q 65 497 65 453 z "},"¸":{"ha":317,"x_min":53,"x_max":264,"o":"m 239 -236 q 213 -280 233 -268 q 144 -292 192 -292 q 74 -281 96 -292 q 53 -242 53 -269 q 54 -222 53 -233 q 58 -197 56 -210 l 79 -75 q 106 -31 85 -43 q 175 -19 126 -19 q 244 -31 224 -19 q 264 -74 264 -42 q 263 -90 264 -81 q 261 -106 263 -99 l 239 -236 z "},"¹":{"ha":215,"x_min":46,"x_max":169,"o":"m 46 428 m 169 475 q 153 438 169 447 q 107 428 138 428 q 61 438 76 428 q 46 475 46 447 l 46 963 q 61 1000 46 990 q 107 1010 76 1010 q 153 1000 138 1010 q 169 963 169 990 l 169 475 z "},"º":{"ha":699,"x_min":39,"x_max":660,"o":"m 39 863 q 267 1007 39 1007 l 432 1007 q 660 863 660 1007 l 660 697 q 432 553 660 553 l 267 553 q 39 697 39 553 l 39 863 m 540 863 q 514 894 540 882 q 429 907 488 907 l 269 907 q 185 894 211 907 q 158 863 158 882 l 158 697 q 185 665 158 678 q 269 653 211 653 l 429 653 q 514 665 488 653 q 540 697 540 678 l 540 863 z "},"»":{"ha":794,"x_min":39,"x_max":756,"o":"m 39 0 m 449 392 q 425 319 449 340 l 92 4 q 71 -6 82 -6 q 48 17 57 -6 q 39 68 39 39 q 43 102 39 85 q 58 129 47 119 l 333 390 l 64 647 q 47 676 51 658 q 43 713 43 694 q 52 767 43 744 q 76 790 61 790 q 96 781 86 790 l 425 464 q 442 436 436 453 q 449 392 449 419 m 756 392 q 732 319 756 340 l 399 4 q 378 -6 389 -6 q 355 17 364 -6 q 346 68 346 39 q 350 102 346 85 q 365 129 354 119 l 640 390 l 371 647 q 354 676 358 658 q 350 713 350 694 q 359 767 350 744 q 383 790 368 790 q 403 781 393 790 l 732 464 q 749 436 743 453 q 756 392 756 419 z "},"¼":{"ha":1482,"x_min":53,"x_max":1429,"o":"m 53 0 m 279 475 q 263 438 279 447 q 217 428 247 428 q 171 438 186 428 q 156 475 156 447 l 156 963 q 171 1000 156 990 q 217 1010 186 1010 q 263 1000 247 1010 q 279 963 279 990 l 279 475 m 178 21 q 114 -6 157 -6 q 53 38 53 -6 q 56 51 53 42 q 72 79 60 61 l 760 988 q 786 1008 771 1003 q 824 1013 801 1013 q 885 969 885 1013 q 881 953 885 963 q 865 929 876 944 l 178 21 m 776 251 l 1306 251 l 1306 532 q 1322 569 1306 560 q 1368 579 1338 579 q 1414 569 1399 579 q 1429 532 1429 560 l 1429 44 q 1414 7 1429 17 q 1368 -3 1399 -3 q 1322 7 1338 -3 q 1306 44 1306 17 l 1306 147 l 701 147 q 667 156 682 147 q 653 189 653 165 l 653 532 q 669 569 653 560 q 715 579 685 579 q 761 569 746 579 q 776 532 776 560 l 776 251 z "},"½":{"ha":1260,"x_min":53,"x_max":1207,"o":"m 53 0 m 279 475 q 263 438 279 447 q 217 428 247 428 q 171 438 186 428 q 156 475 156 447 l 156 963 q 171 1000 156 990 q 217 1010 186 1010 q 263 1000 247 1010 q 279 963 279 990 l 279 475 m 178 21 q 114 -6 157 -6 q 53 38 53 -6 q 56 51 53 42 q 72 79 60 61 l 760 988 q 786 1008 771 1003 q 824 1013 801 1013 q 885 969 885 1013 q 881 953 885 963 q 865 929 876 944 l 178 21 m 707 232 q 621 218 646 232 q 596 183 596 204 l 596 104 l 1167 104 q 1199 92 1190 104 q 1207 53 1207 81 q 1199 13 1207 26 q 1167 0 1190 0 l 519 0 q 472 49 472 0 l 472 183 q 710 338 472 338 l 972 338 q 1059 351 1033 338 q 1085 385 1085 365 l 1085 422 q 1059 457 1085 443 q 972 471 1033 471 l 854 471 q 820 484 828 471 q 813 524 813 497 q 820 563 813 550 q 854 576 828 576 l 969 576 q 1207 422 1207 576 l 1207 385 q 969 232 1207 232 l 707 232 z "},"¾":{"ha":1946,"x_min":53,"x_max":1893,"o":"m 53 0 m 663 597 q 658 628 663 615 q 642 650 654 642 q 607 663 629 658 q 549 667 585 667 l 94 667 q 61 680 68 667 q 54 719 54 693 q 61 759 54 746 q 94 772 68 772 l 554 772 q 640 785 617 772 q 663 838 663 797 q 642 886 663 871 q 557 901 622 901 l 442 901 q 410 915 418 901 q 401 954 401 928 q 410 994 401 981 q 442 1007 418 1007 l 547 1007 q 642 999 599 1007 q 717 972 686 992 q 765 920 747 953 q 782 836 782 888 q 770 768 782 799 q 726 717 758 738 q 772 675 756 701 q 789 600 789 649 q 769 515 789 547 q 715 463 749 482 q 640 438 682 444 q 553 431 597 431 l 93 431 q 61 444 69 431 q 53 483 53 457 q 61 523 53 511 q 93 535 69 535 l 558 535 q 613 538 593 535 q 644 549 633 542 q 659 569 656 557 q 663 597 663 581 m 642 21 q 578 -6 621 -6 q 517 38 517 -6 q 520 51 517 42 q 536 79 524 61 l 1224 988 q 1250 1008 1235 1003 q 1288 1013 1265 1013 q 1349 969 1349 1013 q 1344 953 1349 963 q 1329 929 1340 944 l 642 21 m 1240 251 l 1769 251 l 1769 532 q 1785 569 1769 560 q 1832 579 1801 579 q 1878 569 1863 579 q 1893 532 1893 560 l 1893 44 q 1878 7 1893 17 q 1832 -3 1863 -3 q 1785 7 1801 -3 q 1769 44 1769 17 l 1769 147 l 1165 147 q 1131 156 1146 147 q 1117 189 1117 165 l 1117 532 q 1133 569 1117 560 q 1179 579 1149 579 q 1225 569 1210 579 q 1240 532 1240 560 l 1240 251 z "},"¿":{"ha":932,"x_min":40,"x_max":892,"o":"m 642 413 q 684 425 676 413 q 692 468 692 438 l 692 528 q 715 579 692 567 q 782 592 738 592 q 849 579 826 592 q 872 528 872 567 l 872 450 q 852 363 872 399 q 799 306 832 328 q 725 276 767 285 q 640 267 683 267 l 447 267 q 272 235 325 267 q 218 158 218 203 l 218 64 q 272 -13 218 18 q 447 -44 325 -44 l 506 -44 q 549 -63 539 -44 q 560 -119 560 -82 q 549 -176 560 -157 q 506 -194 539 -194 l 451 -194 q 40 64 40 -194 l 40 158 q 142 351 40 289 q 451 413 244 413 l 642 413 m 892 732 q 866 667 892 688 q 782 646 840 646 q 698 667 724 646 q 672 732 672 688 q 698 797 672 776 q 782 818 724 818 q 866 797 840 818 q 892 732 892 776 z "},"À":{"ha":1446,"x_min":17,"x_max":1429,"o":"m 17 0 m 706 1011 q 772 999 746 1011 q 814 963 797 986 l 1419 99 q 1429 67 1429 83 q 1420 38 1429 51 q 1397 14 1411 24 q 1364 -1 1382 4 q 1328 -7 1346 -7 q 1293 -1 1308 -7 q 1267 21 1278 6 l 1103 260 l 331 260 l 176 21 q 151 -1 167 6 q 117 -7 135 -7 q 82 -1 100 -7 q 49 15 64 4 q 26 38 35 25 q 17 68 17 51 q 26 99 17 82 l 596 963 q 638 999 611 986 q 706 1011 664 1011 m 426 410 l 1000 410 l 706 842 l 426 410 m 446 1257 q 404 1315 404 1279 q 425 1360 404 1346 q 474 1375 446 1375 q 538 1371 518 1375 q 578 1357 558 1367 l 860 1204 q 901 1144 901 1182 q 881 1101 901 1115 q 832 1086 860 1086 q 767 1090 788 1086 q 728 1104 747 1094 l 446 1257 z "},"Á":{"ha":1446,"x_min":17,"x_max":1429,"o":"m 17 0 m 706 1011 q 772 999 746 1011 q 814 963 797 986 l 1419 99 q 1429 67 1429 83 q 1420 38 1429 51 q 1397 14 1411 24 q 1364 -1 1382 4 q 1328 -7 1346 -7 q 1293 -1 1308 -7 q 1267 21 1278 6 l 1103 260 l 331 260 l 176 21 q 151 -1 167 6 q 117 -7 135 -7 q 82 -1 100 -7 q 49 15 64 4 q 26 38 35 25 q 17 68 17 51 q 26 99 17 82 l 596 963 q 638 999 611 986 q 706 1011 664 1011 m 426 410 l 1000 410 l 706 842 l 426 410 m 717 1104 q 677 1090 697 1094 q 613 1086 657 1086 q 564 1101 585 1086 q 543 1144 543 1115 q 585 1204 543 1182 l 867 1357 q 906 1371 886 1367 q 971 1375 926 1375 q 1019 1360 999 1375 q 1040 1315 1040 1346 q 999 1257 1040 1279 l 717 1104 z "},"Â":{"ha":1446,"x_min":17,"x_max":1429,"o":"m 17 0 m 706 1011 q 772 999 746 1011 q 814 963 797 986 l 1419 99 q 1429 67 1429 83 q 1420 38 1429 51 q 1397 14 1411 24 q 1364 -1 1382 4 q 1328 -7 1346 -7 q 1293 -1 1308 -7 q 1267 21 1278 6 l 1103 260 l 331 260 l 176 21 q 151 -1 167 6 q 117 -7 135 -7 q 82 -1 100 -7 q 49 15 64 4 q 26 38 35 25 q 17 68 17 51 q 26 99 17 82 l 596 963 q 638 999 611 986 q 706 1011 664 1011 m 426 410 l 1000 410 l 706 842 l 426 410 m 635 1114 q 601 1092 622 1099 q 558 1086 579 1086 q 496 1099 522 1086 q 469 1135 469 1113 q 481 1161 469 1149 l 633 1342 q 668 1367 647 1358 q 722 1375 689 1375 q 776 1367 756 1375 q 811 1342 797 1358 l 964 1161 q 975 1135 975 1149 q 949 1099 975 1113 q 886 1086 922 1086 q 844 1092 865 1086 q 810 1114 822 1099 l 722 1221 l 635 1114 z "},"Ã":{"ha":1446,"x_min":17,"x_max":1429,"o":"m 17 0 m 706 1011 q 772 999 746 1011 q 814 963 797 986 l 1419 99 q 1429 67 1429 83 q 1420 38 1429 51 q 1397 14 1411 24 q 1364 -1 1382 4 q 1328 -7 1346 -7 q 1293 -1 1308 -7 q 1267 21 1278 6 l 1103 260 l 331 260 l 176 21 q 151 -1 167 6 q 117 -7 135 -7 q 82 -1 100 -7 q 49 15 64 4 q 26 38 35 25 q 17 68 17 51 q 26 99 17 82 l 596 963 q 638 999 611 986 q 706 1011 664 1011 m 426 410 l 1000 410 l 706 842 l 426 410 m 986 1261 q 1023 1245 1014 1261 q 1032 1197 1032 1229 q 1023 1149 1032 1165 q 986 1133 1014 1133 l 460 1133 q 422 1149 431 1133 q 414 1197 414 1165 q 422 1245 414 1229 q 460 1261 431 1261 l 986 1261 z "},"Ä":{"ha":1446,"x_min":17,"x_max":1429,"o":"m 17 0 m 706 1011 q 772 999 746 1011 q 814 963 797 986 l 1419 99 q 1429 67 1429 83 q 1420 38 1429 51 q 1397 14 1411 24 q 1364 -1 1382 4 q 1328 -7 1346 -7 q 1293 -1 1308 -7 q 1267 21 1278 6 l 1103 260 l 331 260 l 176 21 q 151 -1 167 6 q 117 -7 135 -7 q 82 -1 100 -7 q 49 15 64 4 q 26 38 35 25 q 17 68 17 51 q 26 99 17 82 l 596 963 q 638 999 611 986 q 706 1011 664 1011 m 426 410 l 1000 410 l 706 842 l 426 410 m 772 1190 q 798 1256 772 1235 q 882 1276 824 1276 q 966 1256 940 1276 q 992 1190 992 1235 q 966 1125 992 1146 q 882 1104 940 1104 q 798 1125 824 1104 q 772 1190 772 1146 m 453 1190 q 478 1256 453 1235 q 563 1276 504 1276 q 647 1256 621 1276 q 672 1190 672 1235 q 647 1125 672 1146 q 563 1104 621 1104 q 478 1125 504 1104 q 453 1190 453 1146 z "},"Å":{"ha":1446,"x_min":17,"x_max":1429,"o":"m 17 0 m 706 1011 q 772 999 746 1011 q 814 963 797 986 l 1419 99 q 1429 67 1429 83 q 1420 38 1429 51 q 1397 14 1411 24 q 1364 -1 1382 4 q 1328 -7 1346 -7 q 1293 -1 1308 -7 q 1267 21 1278 6 l 1103 260 l 331 260 l 176 21 q 151 -1 167 6 q 117 -7 135 -7 q 82 -1 100 -7 q 49 15 64 4 q 26 38 35 25 q 17 68 17 51 q 26 99 17 82 l 596 963 q 638 999 611 986 q 706 1011 664 1011 m 426 410 l 1000 410 l 706 842 l 426 410 m 908 1183 q 899 1112 908 1139 q 871 1069 890 1085 q 820 1047 851 1053 q 744 1042 789 1042 l 700 1042 q 624 1047 656 1042 q 574 1069 593 1053 q 545 1112 554 1085 q 536 1183 536 1139 l 536 1233 q 545 1304 536 1276 q 574 1348 554 1332 q 624 1369 593 1364 q 700 1375 656 1375 l 744 1375 q 820 1369 789 1375 q 871 1348 851 1364 q 899 1304 890 1332 q 908 1233 908 1276 l 908 1183 m 736 1121 q 803 1132 789 1121 q 817 1183 817 1143 l 817 1233 q 803 1285 817 1274 q 736 1296 789 1296 l 708 1296 q 642 1285 656 1296 q 628 1233 628 1274 l 628 1183 q 642 1132 628 1143 q 708 1121 656 1121 l 736 1121 z "},"Æ":{"ha":2007,"x_min":17,"x_max":1960,"o":"m 1315 0 q 904 258 904 0 l 904 260 l 331 260 l 176 21 q 151 -1 167 6 q 117 -7 135 -7 q 82 -1 100 -7 q 49 15 64 4 q 26 38 35 25 q 17 68 17 51 q 26 99 17 82 l 593 958 q 635 994 608 982 q 703 1007 661 1007 l 1467 1007 q 1509 988 1499 1007 q 1519 932 1519 969 q 1509 876 1519 894 q 1467 857 1499 857 l 1088 857 l 1088 571 l 1906 571 q 1949 552 1939 571 q 1960 496 1960 533 q 1949 440 1960 458 q 1906 421 1939 421 l 1088 421 l 1088 258 q 1143 182 1088 214 q 1321 150 1199 150 l 1901 150 q 1945 131 1935 150 q 1956 75 1956 113 q 1945 19 1956 39 q 1901 0 1935 0 l 1315 0 m 426 410 l 904 410 l 904 857 l 715 857 l 426 410 z "},"Ç":{"ha":1244,"x_min":53,"x_max":1199,"o":"m 53 0 m 464 0 q 53 258 53 0 l 53 749 q 464 1007 53 1007 l 1144 1007 q 1188 988 1178 1007 q 1199 932 1199 969 q 1188 876 1199 894 q 1144 857 1178 857 l 469 857 q 292 826 347 857 q 236 749 236 794 l 236 258 q 292 182 236 214 q 469 150 347 150 l 1146 150 q 1189 131 1179 150 q 1199 75 1199 113 q 1189 19 1199 39 q 1146 0 1179 0 l 464 0 m 703 -236 q 676 -280 697 -268 q 608 -292 656 -292 q 538 -281 560 -292 q 517 -242 517 -269 q 518 -222 517 -233 q 522 -197 519 -210 l 543 -75 q 569 -31 549 -43 q 639 -19 590 -19 q 708 -31 688 -19 q 728 -74 728 -42 q 727 -90 728 -81 q 725 -106 726 -99 l 703 -236 z "},"È":{"ha":1239,"x_min":53,"x_max":1192,"o":"m 53 0 m 236 421 l 236 258 q 292 182 236 214 q 469 150 347 150 l 1133 150 q 1177 131 1167 150 q 1188 75 1188 113 q 1177 19 1188 39 q 1133 0 1167 0 l 464 0 q 53 258 53 0 l 53 749 q 464 1007 53 1007 l 671 1007 q 713 988 703 1007 q 724 932 724 969 q 713 876 724 894 q 671 857 703 857 l 469 857 q 292 826 347 857 q 236 749 236 794 l 236 571 l 1138 571 q 1181 552 1171 571 q 1192 496 1192 533 q 1181 440 1192 458 q 1138 421 1171 421 l 236 421 m 301 1257 q 260 1315 260 1279 q 281 1360 260 1346 q 329 1375 301 1375 q 394 1371 374 1375 q 433 1357 414 1367 l 715 1204 q 757 1144 757 1182 q 736 1101 757 1115 q 688 1086 715 1086 q 623 1090 643 1086 q 583 1104 603 1094 l 301 1257 z "},"É":{"ha":1239,"x_min":53,"x_max":1192,"o":"m 53 0 m 236 421 l 236 258 q 292 182 236 214 q 469 150 347 150 l 1133 150 q 1177 131 1167 150 q 1188 75 1188 113 q 1177 19 1188 39 q 1133 0 1167 0 l 464 0 q 53 258 53 0 l 53 749 q 464 1007 53 1007 l 671 1007 q 713 988 703 1007 q 724 932 724 969 q 713 876 724 894 q 671 857 703 857 l 469 857 q 292 826 347 857 q 236 749 236 794 l 236 571 l 1138 571 q 1181 552 1171 571 q 1192 496 1192 533 q 1181 440 1192 458 q 1138 421 1171 421 l 236 421 m 572 1104 q 533 1090 553 1094 q 468 1086 513 1086 q 419 1101 440 1086 q 399 1144 399 1115 q 440 1204 399 1182 l 722 1357 q 762 1371 742 1367 q 826 1375 782 1375 q 875 1360 854 1375 q 896 1315 896 1346 q 854 1257 896 1279 l 572 1104 z "},"Ê":{"ha":1239,"x_min":53,"x_max":1192,"o":"m 53 0 m 236 421 l 236 258 q 292 182 236 214 q 469 150 347 150 l 1133 150 q 1177 131 1167 150 q 1188 75 1188 113 q 1177 19 1188 39 q 1133 0 1167 0 l 464 0 q 53 258 53 0 l 53 749 q 464 1007 53 1007 l 671 1007 q 713 988 703 1007 q 724 932 724 969 q 713 876 724 894 q 671 857 703 857 l 469 857 q 292 826 347 857 q 236 749 236 794 l 236 571 l 1138 571 q 1181 552 1171 571 q 1192 496 1192 533 q 1181 440 1192 458 q 1138 421 1171 421 l 236 421 m 490 1114 q 456 1092 478 1099 q 414 1086 435 1086 q 351 1099 378 1086 q 325 1135 325 1113 q 336 1161 325 1149 l 489 1342 q 524 1367 503 1358 q 578 1375 544 1375 q 632 1367 611 1375 q 667 1342 653 1358 l 819 1161 q 831 1135 831 1149 q 804 1099 831 1113 q 742 1086 778 1086 q 699 1092 721 1086 q 665 1114 678 1099 l 578 1221 l 490 1114 z "},"Ë":{"ha":1239,"x_min":53,"x_max":1192,"o":"m 53 0 m 236 421 l 236 258 q 292 182 236 214 q 469 150 347 150 l 1133 150 q 1177 131 1167 150 q 1188 75 1188 113 q 1177 19 1188 39 q 1133 0 1167 0 l 464 0 q 53 258 53 0 l 53 749 q 464 1007 53 1007 l 671 1007 q 713 988 703 1007 q 724 932 724 969 q 713 876 724 894 q 671 857 703 857 l 469 857 q 292 826 347 857 q 236 749 236 794 l 236 571 l 1138 571 q 1181 552 1171 571 q 1192 496 1192 533 q 1181 440 1192 458 q 1138 421 1171 421 l 236 421 m 628 1190 q 653 1256 628 1235 q 738 1276 679 1276 q 822 1256 796 1276 q 847 1190 847 1235 q 822 1125 847 1146 q 738 1104 796 1104 q 653 1125 679 1104 q 628 1190 628 1146 m 308 1190 q 334 1256 308 1235 q 418 1276 360 1276 q 502 1256 476 1276 q 528 1190 528 1235 q 502 1125 528 1146 q 418 1104 476 1104 q 334 1125 360 1104 q 308 1190 308 1146 z "},"Ì":{"ha":393,"x_min":-82,"x_max":415,"o":"m 0 0 m 328 60 q 304 7 328 19 q 235 -6 281 -6 q 167 7 190 -6 q 143 60 143 19 l 143 947 q 167 1000 143 988 q 235 1013 190 1013 q 304 1000 281 1013 q 328 947 328 988 l 328 60 m -40 1257 q -82 1315 -82 1279 q -61 1360 -82 1346 q -12 1375 -40 1375 q 52 1371 32 1375 q 92 1357 72 1367 l 374 1204 q 415 1144 415 1182 q 394 1101 415 1115 q 346 1086 374 1086 q 281 1090 301 1086 q 242 1104 261 1094 l -40 1257 z "},"Í":{"ha":396,"x_min":-21,"x_max":476,"o":"m 0 0 m 250 60 q 226 7 250 19 q 157 -6 203 -6 q 89 7 113 -6 q 65 60 65 19 l 65 947 q 89 1000 65 988 q 157 1013 113 1013 q 226 1000 203 1013 q 250 947 250 988 l 250 60 m 153 1104 q 113 1090 133 1094 q 49 1086 93 1086 q 0 1101 21 1086 q -21 1144 -21 1115 q 21 1204 -21 1182 l 303 1357 q 342 1371 322 1367 q 407 1375 363 1375 q 456 1360 435 1375 q 476 1315 476 1346 q 435 1257 476 1279 l 153 1104 z "},"Î":{"ha":389,"x_min":-58,"x_max":447,"o":"m 0 0 m 286 60 q 263 7 286 19 q 193 -6 239 -6 q 125 7 149 -6 q 101 60 101 19 l 101 947 q 125 1000 101 988 q 193 1013 149 1013 q 263 1000 239 1013 q 286 947 286 988 l 286 60 m 107 1114 q 73 1092 94 1099 q 31 1086 51 1086 q -32 1099 -6 1086 q -58 1135 -58 1113 q -47 1161 -58 1149 l 106 1342 q 140 1367 119 1358 q 194 1375 161 1375 q 249 1367 228 1375 q 283 1342 269 1358 l 436 1161 q 447 1135 447 1149 q 421 1099 447 1113 q 358 1086 394 1086 q 316 1092 338 1086 q 282 1114 294 1099 l 194 1221 l 107 1114 z "},"Ï":{"ha":385,"x_min":-76,"x_max":463,"o":"m 0 0 m 285 60 q 261 7 285 19 q 192 -6 238 -6 q 124 7 147 -6 q 100 60 100 19 l 100 947 q 124 1000 100 988 q 192 1013 147 1013 q 261 1000 238 1013 q 285 947 285 988 l 285 60 m 243 1190 q 269 1256 243 1235 q 353 1276 294 1276 q 437 1256 411 1276 q 463 1190 463 1235 q 437 1125 463 1146 q 353 1104 411 1104 q 269 1125 294 1104 q 243 1190 243 1146 m -76 1190 q -51 1256 -76 1235 q 33 1276 -25 1276 q 117 1256 92 1276 q 143 1190 143 1235 q 117 1125 143 1146 q 33 1104 92 1104 q -51 1125 -25 1104 q -76 1190 -76 1146 z "},"Ð":{"ha":1438,"x_min":14,"x_max":1385,"o":"m 1385 258 q 974 0 1385 0 l 186 0 q 122 65 122 0 l 122 421 l 68 421 q 24 440 35 421 q 14 496 14 458 q 24 552 14 533 q 68 571 35 571 l 122 571 l 122 943 q 186 1007 122 1007 l 974 1007 q 1385 749 1385 1007 l 1385 258 m 307 421 l 307 150 l 968 150 q 1147 182 1090 150 q 1203 258 1203 214 l 1203 749 q 1147 826 1203 794 q 968 857 1090 857 l 307 857 l 307 571 l 875 571 q 919 552 908 571 q 929 496 929 533 q 919 440 929 458 q 875 421 908 421 l 307 421 z "},"Ñ":{"ha":1385,"x_min":65,"x_max":1319,"o":"m 65 0 m 1224 -6 q 1192 -4 1204 -6 q 1168 3 1179 -3 q 1144 17 1157 8 q 1114 42 1132 26 l 250 769 l 250 60 q 226 7 250 19 q 157 -6 203 -6 q 89 7 113 -6 q 65 60 65 19 l 65 947 q 88 999 65 986 q 153 1013 110 1013 q 225 1001 199 1013 q 283 961 251 989 l 1135 236 l 1135 947 q 1158 1000 1135 988 q 1226 1013 1182 1013 q 1296 1000 1272 1013 q 1319 947 1319 988 l 1319 60 q 1296 7 1319 19 q 1224 -6 1272 -6 m 956 1261 q 992 1245 983 1261 q 1001 1197 1001 1229 q 992 1149 1001 1165 q 956 1133 983 1133 l 429 1133 q 392 1149 400 1133 q 383 1197 383 1165 q 392 1245 383 1229 q 429 1261 400 1261 l 956 1261 z "},"Ò":{"ha":1332,"x_min":53,"x_max":1279,"o":"m 53 0 m 464 0 q 53 258 53 0 l 53 749 q 464 1007 53 1007 l 868 1007 q 1279 749 1279 1007 l 1279 258 q 868 0 1279 0 l 464 0 m 863 150 q 1040 182 985 150 q 1096 258 1096 214 l 1096 749 q 1040 826 1096 794 q 863 857 985 857 l 469 857 q 292 826 347 857 q 236 749 236 794 l 236 258 q 292 182 236 214 q 469 150 347 150 l 863 150 m 389 1257 q 347 1315 347 1279 q 368 1360 347 1346 q 417 1375 389 1375 q 481 1371 461 1375 q 521 1357 501 1367 l 803 1204 q 844 1144 844 1182 q 824 1101 844 1115 q 775 1086 803 1086 q 710 1090 731 1086 q 671 1104 690 1094 l 389 1257 z "},"Ó":{"ha":1332,"x_min":53,"x_max":1279,"o":"m 53 0 m 464 0 q 53 258 53 0 l 53 749 q 464 1007 53 1007 l 868 1007 q 1279 749 1279 1007 l 1279 258 q 868 0 1279 0 l 464 0 m 863 150 q 1040 182 985 150 q 1096 258 1096 214 l 1096 749 q 1040 826 1096 794 q 863 857 985 857 l 469 857 q 292 826 347 857 q 236 749 236 794 l 236 258 q 292 182 236 214 q 469 150 347 150 l 863 150 m 660 1104 q 620 1090 640 1094 q 556 1086 600 1086 q 507 1101 528 1086 q 486 1144 486 1115 q 528 1204 486 1182 l 810 1357 q 849 1371 829 1367 q 914 1375 869 1375 q 963 1360 942 1375 q 983 1315 983 1346 q 942 1257 983 1279 l 660 1104 z "},"Ô":{"ha":1332,"x_min":53,"x_max":1279,"o":"m 53 0 m 464 0 q 53 258 53 0 l 53 749 q 464 1007 53 1007 l 868 1007 q 1279 749 1279 1007 l 1279 258 q 868 0 1279 0 l 464 0 m 863 150 q 1040 182 985 150 q 1096 258 1096 214 l 1096 749 q 1040 826 1096 794 q 863 857 985 857 l 469 857 q 292 826 347 857 q 236 749 236 794 l 236 258 q 292 182 236 214 q 469 150 347 150 l 863 150 m 578 1114 q 544 1092 565 1099 q 501 1086 522 1086 q 439 1099 465 1086 q 413 1135 413 1113 q 424 1161 413 1149 l 576 1342 q 611 1367 590 1358 q 665 1375 632 1375 q 719 1367 699 1375 q 754 1342 740 1358 l 907 1161 q 918 1135 918 1149 q 892 1099 918 1113 q 829 1086 865 1086 q 787 1092 808 1086 q 753 1114 765 1099 l 665 1221 l 578 1114 z "},"Õ":{"ha":1332,"x_min":53,"x_max":1279,"o":"m 53 0 m 464 0 q 53 258 53 0 l 53 749 q 464 1007 53 1007 l 868 1007 q 1279 749 1279 1007 l 1279 258 q 868 0 1279 0 l 464 0 m 863 150 q 1040 182 985 150 q 1096 258 1096 214 l 1096 749 q 1040 826 1096 794 q 863 857 985 857 l 469 857 q 292 826 347 857 q 236 749 236 794 l 236 258 q 292 182 236 214 q 469 150 347 150 l 863 150 m 929 1261 q 966 1245 957 1261 q 975 1197 975 1229 q 966 1149 975 1165 q 929 1133 957 1133 l 403 1133 q 365 1149 374 1133 q 357 1197 357 1165 q 365 1245 357 1229 q 403 1261 374 1261 l 929 1261 z "},"Ö":{"ha":1332,"x_min":53,"x_max":1279,"o":"m 53 0 m 464 0 q 53 258 53 0 l 53 749 q 464 1007 53 1007 l 868 1007 q 1279 749 1279 1007 l 1279 258 q 868 0 1279 0 l 464 0 m 863 150 q 1040 182 985 150 q 1096 258 1096 214 l 1096 749 q 1040 826 1096 794 q 863 857 985 857 l 469 857 q 292 826 347 857 q 236 749 236 794 l 236 258 q 292 182 236 214 q 469 150 347 150 l 863 150 m 715 1190 q 741 1256 715 1235 q 825 1276 767 1276 q 909 1256 883 1276 q 935 1190 935 1235 q 909 1125 935 1146 q 825 1104 883 1104 q 741 1125 767 1104 q 715 1190 715 1146 m 396 1190 q 422 1256 396 1235 q 506 1276 447 1276 q 590 1256 564 1276 q 615 1190 615 1235 q 590 1125 615 1146 q 506 1104 564 1104 q 422 1125 447 1104 q 396 1190 396 1146 z "},"×":{"ha":846,"x_min":125,"x_max":719,"o":"m 422 389 l 260 226 q 242 212 251 218 q 221 206 232 206 q 192 216 208 206 q 160 241 175 226 q 136 273 146 256 q 126 303 126 290 q 146 339 126 319 l 310 501 l 146 665 q 125 703 125 686 q 135 732 125 715 q 160 763 146 749 q 192 788 175 778 q 221 799 208 799 q 258 779 239 799 l 422 615 l 588 779 q 625 800 608 800 q 654 790 638 800 q 685 765 671 779 q 710 733 700 750 q 719 704 719 717 q 700 667 719 686 l 535 501 l 699 338 q 713 319 707 329 q 719 299 719 310 q 709 269 719 286 q 683 239 699 253 q 652 215 668 225 q 624 206 636 206 q 586 225 606 206 l 422 389 z "},"Ø":{"ha":1332,"x_min":53,"x_max":1279,"o":"m 1113 972 q 1279 749 1279 914 l 1279 258 q 868 0 1279 0 l 464 0 q 424 0 443 0 q 385 3 404 0 l 317 -87 q 285 -111 303 -106 q 244 -117 268 -117 q 168 -68 168 -117 q 172 -47 168 -57 q 190 -17 176 -36 l 226 32 q 53 258 53 90 l 53 749 q 464 1007 53 1007 l 868 1007 q 958 1003 914 1007 l 1024 1090 q 1054 1114 1036 1107 q 1099 1121 1072 1121 q 1172 1069 1172 1121 q 1149 1019 1172 1051 l 1113 972 m 236 258 q 258 206 236 229 q 328 167 281 182 l 847 857 l 469 857 q 292 826 347 857 q 236 749 236 794 l 236 258 m 863 150 q 1040 182 985 150 q 1096 258 1096 214 l 1096 749 q 1076 799 1096 776 q 1011 838 1056 822 l 494 150 l 863 150 z "},"Ù":{"ha":1369,"x_min":60,"x_max":1310,"o":"m 60 0 m 471 0 q 60 258 60 0 l 60 947 q 83 1000 60 988 q 151 1013 107 1013 q 221 1000 197 1013 q 244 947 244 988 l 244 258 q 299 182 244 214 q 476 150 354 150 l 893 150 q 1070 182 1015 150 q 1125 258 1125 214 l 1125 947 q 1149 1000 1125 988 q 1218 1013 1172 1013 q 1286 1000 1263 1013 q 1310 947 1310 988 l 1310 258 q 899 0 1310 0 l 471 0 m 408 1257 q 367 1315 367 1279 q 388 1360 367 1346 q 436 1375 408 1375 q 501 1371 481 1375 q 540 1357 521 1367 l 822 1204 q 864 1144 864 1182 q 843 1101 864 1115 q 794 1086 822 1086 q 730 1090 750 1086 q 690 1104 710 1094 l 408 1257 z "},"Ú":{"ha":1369,"x_min":60,"x_max":1310,"o":"m 60 0 m 471 0 q 60 258 60 0 l 60 947 q 83 1000 60 988 q 151 1013 107 1013 q 221 1000 197 1013 q 244 947 244 988 l 244 258 q 299 182 244 214 q 476 150 354 150 l 893 150 q 1070 182 1015 150 q 1125 258 1125 214 l 1125 947 q 1149 1000 1125 988 q 1218 1013 1172 1013 q 1286 1000 1263 1013 q 1310 947 1310 988 l 1310 258 q 899 0 1310 0 l 471 0 m 679 1104 q 640 1090 660 1094 q 575 1086 619 1086 q 526 1101 547 1086 q 506 1144 506 1115 q 547 1204 506 1182 l 829 1357 q 869 1371 849 1367 q 933 1375 889 1375 q 982 1360 961 1375 q 1003 1315 1003 1346 q 961 1257 1003 1279 l 679 1104 z "},"Û":{"ha":1369,"x_min":60,"x_max":1310,"o":"m 60 0 m 471 0 q 60 258 60 0 l 60 947 q 83 1000 60 988 q 151 1013 107 1013 q 221 1000 197 1013 q 244 947 244 988 l 244 258 q 299 182 244 214 q 476 150 354 150 l 893 150 q 1070 182 1015 150 q 1125 258 1125 214 l 1125 947 q 1149 1000 1125 988 q 1218 1013 1172 1013 q 1286 1000 1263 1013 q 1310 947 1310 988 l 1310 258 q 899 0 1310 0 l 471 0 m 597 1114 q 563 1092 585 1099 q 521 1086 542 1086 q 458 1099 485 1086 q 432 1135 432 1113 q 443 1161 432 1149 l 596 1342 q 631 1367 610 1358 q 685 1375 651 1375 q 739 1367 718 1375 q 774 1342 760 1358 l 926 1161 q 938 1135 938 1149 q 911 1099 938 1113 q 849 1086 885 1086 q 806 1092 828 1086 q 772 1114 785 1099 l 685 1221 l 597 1114 z "},"Ü":{"ha":1369,"x_min":60,"x_max":1310,"o":"m 60 0 m 471 0 q 60 258 60 0 l 60 947 q 83 1000 60 988 q 151 1013 107 1013 q 221 1000 197 1013 q 244 947 244 988 l 244 258 q 299 182 244 214 q 476 150 354 150 l 893 150 q 1070 182 1015 150 q 1125 258 1125 214 l 1125 947 q 1149 1000 1125 988 q 1218 1013 1172 1013 q 1286 1000 1263 1013 q 1310 947 1310 988 l 1310 258 q 899 0 1310 0 l 471 0 m 735 1190 q 760 1256 735 1235 q 844 1276 786 1276 q 928 1256 903 1276 q 954 1190 954 1235 q 928 1125 954 1146 q 844 1104 903 1104 q 760 1125 786 1104 q 735 1190 735 1146 m 415 1190 q 441 1256 415 1235 q 525 1276 467 1276 q 609 1256 583 1276 q 635 1190 635 1235 q 609 1125 635 1146 q 525 1104 583 1104 q 441 1125 467 1104 q 415 1190 415 1146 z "},"Ý":{"ha":1276,"x_min":15,"x_max":1261,"o":"m 15 0 m 44 901 q 15 957 15 928 q 39 996 15 979 q 115 1013 63 1013 q 162 1006 146 1013 q 193 986 178 1000 l 639 553 l 1083 986 q 1114 1006 1097 1000 q 1161 1013 1131 1013 q 1238 997 1214 1013 q 1261 957 1261 981 q 1232 901 1261 928 l 731 417 l 731 60 q 707 7 731 19 q 638 -6 683 -6 q 569 7 593 -6 q 546 60 546 19 l 546 417 l 44 901 m 632 1104 q 592 1090 613 1094 q 528 1086 572 1086 q 479 1101 500 1086 q 458 1144 458 1115 q 500 1204 458 1182 l 782 1357 q 822 1371 801 1367 q 886 1375 842 1375 q 935 1360 914 1375 q 956 1315 956 1346 q 914 1257 956 1279 l 632 1104 z "},"Þ":{"ha":1367,"x_min":65,"x_max":1326,"o":"m 157 1013 q 226 1000 203 1013 q 250 947 250 988 l 250 804 l 918 804 q 1088 788 1013 804 q 1217 743 1164 772 q 1298 672 1269 714 q 1326 579 1326 631 l 1326 428 q 1298 335 1326 376 q 1217 264 1269 293 q 1088 219 1164 235 q 918 203 1013 203 l 250 203 l 250 60 q 226 7 250 19 q 157 -6 203 -6 q 89 7 113 -6 q 65 60 65 19 l 65 947 q 89 1000 65 988 q 157 1013 113 1013 m 1143 565 q 1132 600 1143 583 q 1093 628 1121 617 q 1019 647 1065 640 q 901 654 972 654 l 250 654 l 250 353 l 901 353 q 1019 360 972 353 q 1093 378 1065 367 q 1132 406 1121 390 q 1143 442 1143 422 l 1143 565 z "},"ß":{"ha":1282,"x_min":60,"x_max":1232,"o":"m 458 772 q 435 847 458 821 q 349 872 411 872 q 260 846 285 872 q 236 772 236 819 l 236 60 q 214 7 236 19 q 147 -6 192 -6 q 81 7 103 -6 q 60 60 60 19 l 60 772 q 83 877 60 832 q 144 952 106 922 q 236 997 183 982 q 349 1013 289 1013 q 460 997 408 1013 q 550 952 511 982 q 611 877 589 922 q 633 772 633 832 l 633 632 q 676 581 633 600 q 821 561 718 561 l 865 561 q 1144 506 1056 561 q 1232 350 1232 450 l 1232 213 q 1210 123 1232 163 q 1140 56 1188 83 q 1018 15 1093 29 q 839 0 943 0 l 485 0 q 443 17 453 0 q 433 71 433 35 q 443 123 433 106 q 485 140 453 140 l 865 140 q 1013 159 971 140 q 1054 210 1054 178 l 1054 353 q 1014 404 1054 385 q 871 424 974 424 l 826 424 q 547 479 635 424 q 458 635 458 535 l 458 772 z "},"à":{"ha":1261,"x_min":44,"x_max":1208,"o":"m 44 0 m 438 0 q 44 242 44 0 l 44 315 q 438 557 44 557 l 1032 557 l 1032 558 q 980 622 1032 599 q 810 644 928 644 l 679 644 q 638 662 647 644 q 628 714 628 679 q 638 767 628 750 q 679 785 647 785 l 815 785 q 1208 543 1208 785 l 1208 242 q 815 0 1208 0 l 438 0 m 810 140 q 979 170 926 140 q 1032 242 1032 200 l 1032 422 l 443 422 q 274 393 326 422 q 221 321 221 364 l 221 242 q 274 170 221 200 q 443 140 326 140 l 810 140 m 479 1035 q 438 1093 438 1057 q 458 1138 438 1124 q 507 1153 479 1153 q 572 1149 551 1153 q 611 1135 592 1144 l 893 982 q 935 922 935 960 q 914 878 935 893 q 865 864 893 864 q 801 868 821 864 q 761 882 781 872 l 479 1035 z "},"á":{"ha":1261,"x_min":44,"x_max":1208,"o":"m 44 0 m 438 0 q 44 242 44 0 l 44 315 q 438 557 44 557 l 1032 557 l 1032 558 q 980 622 1032 599 q 810 644 928 644 l 679 644 q 638 662 647 644 q 628 714 628 679 q 638 767 628 750 q 679 785 647 785 l 815 785 q 1208 543 1208 785 l 1208 242 q 815 0 1208 0 l 438 0 m 810 140 q 979 170 926 140 q 1032 242 1032 200 l 1032 422 l 443 422 q 274 393 326 422 q 221 321 221 364 l 221 242 q 274 170 221 200 q 443 140 326 140 l 810 140 m 750 882 q 710 868 731 872 q 646 864 690 864 q 597 878 618 864 q 576 922 576 893 q 618 982 576 960 l 900 1135 q 940 1149 919 1144 q 1004 1153 960 1153 q 1053 1138 1032 1153 q 1074 1093 1074 1124 q 1032 1035 1074 1057 l 750 882 z "},"â":{"ha":1261,"x_min":44,"x_max":1208,"o":"m 44 0 m 438 0 q 44 242 44 0 l 44 315 q 438 557 44 557 l 1032 557 l 1032 558 q 980 622 1032 599 q 810 644 928 644 l 679 644 q 638 662 647 644 q 628 714 628 679 q 638 767 628 750 q 679 785 647 785 l 815 785 q 1208 543 1208 785 l 1208 242 q 815 0 1208 0 l 438 0 m 810 140 q 979 170 926 140 q 1032 242 1032 200 l 1032 422 l 443 422 q 274 393 326 422 q 221 321 221 364 l 221 242 q 274 170 221 200 q 443 140 326 140 l 810 140 m 668 892 q 634 870 656 876 q 592 864 613 864 q 529 877 556 864 q 503 913 503 890 q 514 939 503 926 l 667 1119 q 701 1144 681 1136 q 756 1153 722 1153 q 810 1144 789 1153 q 844 1119 831 1136 l 997 939 q 1008 913 1008 926 q 982 877 1008 890 q 919 864 956 864 q 877 870 899 864 q 843 892 856 876 l 756 999 l 668 892 z "},"ã":{"ha":1261,"x_min":44,"x_max":1208,"o":"m 44 0 m 438 0 q 44 242 44 0 l 44 315 q 438 557 44 557 l 1032 557 l 1032 558 q 980 622 1032 599 q 810 644 928 644 l 679 644 q 638 662 647 644 q 628 714 628 679 q 638 767 628 750 q 679 785 647 785 l 815 785 q 1208 543 1208 785 l 1208 242 q 815 0 1208 0 l 438 0 m 810 140 q 979 170 926 140 q 1032 242 1032 200 l 1032 422 l 443 422 q 274 393 326 422 q 221 321 221 364 l 221 242 q 274 170 221 200 q 443 140 326 140 l 810 140 m 1018 1039 q 1055 1023 1046 1039 q 1064 975 1064 1007 q 1055 927 1064 943 q 1018 911 1046 911 l 492 911 q 454 927 463 911 q 446 975 446 943 q 454 1023 446 1007 q 492 1039 463 1039 l 1018 1039 z "},"ä":{"ha":1261,"x_min":44,"x_max":1208,"o":"m 44 0 m 438 0 q 44 242 44 0 l 44 315 q 438 557 44 557 l 1032 557 l 1032 558 q 980 622 1032 599 q 810 644 928 644 l 679 644 q 638 662 647 644 q 628 714 628 679 q 638 767 628 750 q 679 785 647 785 l 815 785 q 1208 543 1208 785 l 1208 242 q 815 0 1208 0 l 438 0 m 810 140 q 979 170 926 140 q 1032 242 1032 200 l 1032 422 l 443 422 q 274 393 326 422 q 221 321 221 364 l 221 242 q 274 170 221 200 q 443 140 326 140 l 810 140 m 806 968 q 831 1033 806 1013 q 915 1054 857 1054 q 999 1033 974 1054 q 1025 968 1025 1013 q 999 903 1025 924 q 915 882 974 882 q 831 903 857 882 q 806 968 806 924 m 486 968 q 512 1033 486 1013 q 596 1054 538 1054 q 680 1033 654 1054 q 706 968 706 1013 q 680 903 706 924 q 596 882 654 882 q 512 903 538 882 q 486 968 486 924 z "},"å":{"ha":1261,"x_min":44,"x_max":1208,"o":"m 44 0 m 438 0 q 44 242 44 0 l 44 315 q 438 557 44 557 l 1032 557 l 1032 558 q 980 622 1032 599 q 810 644 928 644 l 679 644 q 638 662 647 644 q 628 714 628 679 q 638 767 628 750 q 679 785 647 785 l 815 785 q 1208 543 1208 785 l 1208 242 q 815 0 1208 0 l 438 0 m 810 140 q 979 170 926 140 q 1032 242 1032 200 l 1032 422 l 443 422 q 274 393 326 422 q 221 321 221 364 l 221 242 q 274 170 221 200 q 443 140 326 140 l 810 140 m 942 961 q 933 890 942 917 q 904 847 924 863 q 853 825 885 831 q 778 819 822 819 l 733 819 q 658 825 689 819 q 607 847 626 831 q 578 890 588 863 q 569 961 569 917 l 569 1011 q 578 1082 569 1054 q 607 1126 588 1110 q 658 1147 626 1142 q 733 1153 689 1153 l 778 1153 q 853 1147 822 1153 q 904 1126 885 1142 q 933 1082 924 1110 q 942 1011 942 1054 l 942 961 m 769 899 q 836 910 822 899 q 850 961 850 921 l 850 1011 q 836 1063 850 1051 q 769 1074 822 1074 l 742 1074 q 675 1063 689 1074 q 661 1011 661 1051 l 661 961 q 675 910 661 921 q 742 899 689 899 l 769 899 z "},"æ":{"ha":2181,"x_min":44,"x_max":2139,"o":"m 1208 313 l 1208 242 q 1261 170 1208 200 q 1431 140 1314 140 l 1590 140 q 1631 123 1622 140 q 1640 71 1640 106 q 1631 18 1640 36 q 1590 0 1622 0 l 1425 0 q 1119 67 1217 0 q 815 0 1021 0 l 438 0 q 44 242 44 0 l 44 315 q 438 557 44 557 l 1032 557 l 1032 558 q 980 622 1032 599 q 810 644 928 644 l 679 644 q 638 662 647 644 q 628 714 628 679 q 638 767 628 750 q 679 785 647 785 l 815 785 q 1119 718 1021 785 q 1425 785 1217 785 l 1746 785 q 2047 725 1954 785 q 2139 543 2139 665 l 2139 383 q 2124 328 2139 343 q 2056 313 2108 313 l 1208 313 m 810 140 q 979 170 926 140 q 1032 242 1032 200 l 1032 422 l 443 422 q 274 393 326 422 q 221 321 221 364 l 221 242 q 274 170 221 200 q 443 140 326 140 l 810 140 m 1208 450 l 1963 450 l 1963 543 q 1910 618 1963 592 q 1740 644 1858 644 l 1431 644 q 1261 615 1314 644 q 1208 543 1208 586 l 1208 450 z "},"ç":{"ha":1240,"x_min":53,"x_max":1194,"o":"m 53 0 m 446 0 q 53 242 53 0 l 53 543 q 446 785 53 785 l 1140 785 q 1182 767 1172 785 q 1192 714 1192 750 q 1182 662 1192 679 q 1140 644 1172 644 l 451 644 q 282 615 335 644 q 229 543 229 586 l 229 242 q 282 170 229 200 q 451 140 335 140 l 1144 140 q 1185 123 1176 140 q 1194 71 1194 106 q 1185 18 1194 36 q 1144 0 1176 0 l 446 0 m 700 -236 q 674 -280 694 -268 q 606 -292 653 -292 q 535 -281 557 -292 q 514 -242 514 -269 q 515 -222 514 -233 q 519 -197 517 -210 l 540 -75 q 567 -31 546 -43 q 636 -19 588 -19 q 705 -31 685 -19 q 725 -74 725 -42 q 724 -90 725 -81 q 722 -106 724 -99 l 700 -236 z "},"è":{"ha":1201,"x_min":53,"x_max":1160,"o":"m 53 0 m 229 313 l 229 242 q 282 170 229 200 q 451 140 335 140 l 611 140 q 652 123 643 140 q 661 71 661 106 q 652 18 661 36 q 611 0 643 0 l 446 0 q 53 242 53 0 l 53 543 q 446 785 53 785 l 767 785 q 1067 725 975 785 q 1160 543 1160 665 l 1160 383 q 1144 328 1160 343 q 1076 313 1129 313 l 229 313 m 229 450 l 983 450 l 983 543 q 931 618 983 592 q 761 644 879 644 l 451 644 q 282 615 335 644 q 229 543 229 586 l 229 450 m 324 1035 q 282 1093 282 1057 q 303 1138 282 1124 q 351 1153 324 1153 q 416 1149 396 1153 q 456 1135 436 1144 l 738 982 q 779 922 779 960 q 758 878 779 893 q 710 864 738 864 q 645 868 665 864 q 606 882 625 872 l 324 1035 z "},"é":{"ha":1201,"x_min":53,"x_max":1160,"o":"m 53 0 m 229 313 l 229 242 q 282 170 229 200 q 451 140 335 140 l 611 140 q 652 123 643 140 q 661 71 661 106 q 652 18 661 36 q 611 0 643 0 l 446 0 q 53 242 53 0 l 53 543 q 446 785 53 785 l 767 785 q 1067 725 975 785 q 1160 543 1160 665 l 1160 383 q 1144 328 1160 343 q 1076 313 1129 313 l 229 313 m 229 450 l 983 450 l 983 543 q 931 618 983 592 q 761 644 879 644 l 451 644 q 282 615 335 644 q 229 543 229 586 l 229 450 m 594 882 q 555 868 575 872 q 490 864 535 864 q 442 878 463 864 q 421 922 421 893 q 463 982 421 960 l 744 1135 q 784 1149 764 1144 q 849 1153 804 1153 q 897 1138 876 1153 q 918 1093 918 1124 q 876 1035 918 1057 l 594 882 z "},"ê":{"ha":1201,"x_min":53,"x_max":1160,"o":"m 53 0 m 229 313 l 229 242 q 282 170 229 200 q 451 140 335 140 l 611 140 q 652 123 643 140 q 661 71 661 106 q 652 18 661 36 q 611 0 643 0 l 446 0 q 53 242 53 0 l 53 543 q 446 785 53 785 l 767 785 q 1067 725 975 785 q 1160 543 1160 665 l 1160 383 q 1144 328 1160 343 q 1076 313 1129 313 l 229 313 m 229 450 l 983 450 l 983 543 q 931 618 983 592 q 761 644 879 644 l 451 644 q 282 615 335 644 q 229 543 229 586 l 229 450 m 513 892 q 478 870 500 876 q 436 864 457 864 q 374 877 400 864 q 347 913 347 890 q 358 939 347 926 l 511 1119 q 546 1144 525 1136 q 600 1153 567 1153 q 654 1144 633 1153 q 689 1119 675 1136 l 842 939 q 853 913 853 926 q 826 877 853 890 q 764 864 800 864 q 722 870 743 864 q 688 892 700 876 l 600 999 l 513 892 z "},"ë":{"ha":1201,"x_min":53,"x_max":1160,"o":"m 53 0 m 229 313 l 229 242 q 282 170 229 200 q 451 140 335 140 l 611 140 q 652 123 643 140 q 661 71 661 106 q 652 18 661 36 q 611 0 643 0 l 446 0 q 53 242 53 0 l 53 543 q 446 785 53 785 l 767 785 q 1067 725 975 785 q 1160 543 1160 665 l 1160 383 q 1144 328 1160 343 q 1076 313 1129 313 l 229 313 m 229 450 l 983 450 l 983 543 q 931 618 983 592 q 761 644 879 644 l 451 644 q 282 615 335 644 q 229 543 229 586 l 229 450 m 650 968 q 676 1033 650 1013 q 760 1054 701 1054 q 844 1033 818 1054 q 869 968 869 1013 q 844 903 869 924 q 760 882 818 882 q 676 903 701 882 q 650 968 650 924 m 331 968 q 356 1033 331 1013 q 440 1054 382 1054 q 524 1033 499 1054 q 550 968 550 1013 q 524 903 550 924 q 440 882 499 882 q 356 903 382 882 q 331 968 331 924 z "},"ì":{"ha":471,"x_min":0,"x_max":497,"o":"m 0 0 m 406 60 q 383 7 406 19 q 317 -6 361 -6 q 251 7 272 -6 q 229 60 229 19 l 229 725 q 251 778 229 765 q 317 790 272 790 q 383 778 361 790 q 406 725 406 765 l 406 60 m 42 1035 q 0 1093 0 1057 q 21 1138 0 1124 q 69 1153 42 1153 q 134 1149 114 1153 q 174 1135 154 1144 l 456 982 q 497 922 497 960 q 476 878 497 893 q 428 864 456 864 q 363 868 383 864 q 324 882 343 872 l 42 1035 z "},"í":{"ha":472,"x_min":-25,"x_max":472,"o":"m 0 0 m 242 60 q 219 7 242 19 q 153 -6 197 -6 q 87 7 108 -6 q 65 60 65 19 l 65 725 q 87 778 65 765 q 153 790 108 790 q 219 778 197 790 q 242 725 242 765 l 242 60 m 149 882 q 109 868 129 872 q 44 864 89 864 q -4 878 17 864 q -25 922 -25 893 q 17 982 -25 960 l 299 1135 q 338 1149 318 1144 q 403 1153 358 1153 q 451 1138 431 1153 q 472 1093 472 1124 q 431 1035 472 1057 l 149 882 z "},"î":{"ha":506,"x_min":0,"x_max":506,"o":"m 0 0 m 340 60 q 318 7 340 19 q 251 -6 296 -6 q 185 7 207 -6 q 164 60 164 19 l 164 725 q 185 778 164 765 q 251 790 207 790 q 318 778 296 790 q 340 725 340 765 l 340 60 m 165 892 q 131 870 153 876 q 89 864 110 864 q 26 877 53 864 q 0 913 0 890 q 11 939 0 926 l 164 1119 q 199 1144 178 1136 q 253 1153 219 1153 q 307 1144 286 1153 q 342 1119 328 1136 l 494 939 q 506 913 506 926 q 479 877 506 890 q 417 864 453 864 q 374 870 396 864 q 340 892 353 876 l 253 999 l 165 892 z "},"ï":{"ha":539,"x_min":0,"x_max":539,"o":"m 0 0 m 357 60 q 335 7 357 19 q 268 -6 313 -6 q 202 7 224 -6 q 181 60 181 19 l 181 725 q 202 778 181 765 q 268 790 224 790 q 335 778 313 790 q 357 725 357 765 l 357 60 m 319 968 q 345 1033 319 1013 q 429 1054 371 1054 q 513 1033 488 1054 q 539 968 539 1013 q 513 903 539 924 q 429 882 488 882 q 345 903 371 882 q 319 968 319 924 m 0 968 q 26 1033 0 1013 q 110 1054 51 1054 q 194 1033 168 1054 q 219 968 219 1013 q 194 903 219 924 q 110 882 168 882 q 26 903 51 882 q 0 968 0 924 z "},"ð":{"ha":1232,"x_min":53,"x_max":1172,"o":"m 958 1007 q 1121 958 1069 1007 q 1172 822 1172 910 l 1172 242 q 779 0 1172 0 l 446 0 q 53 242 53 0 l 53 418 q 446 660 53 660 l 996 660 l 996 822 q 958 867 996 867 l 704 867 q 663 884 672 867 q 654 936 654 901 q 663 989 654 971 q 704 1007 672 1007 l 958 1007 m 451 519 q 282 490 335 519 q 229 418 229 461 l 229 242 q 282 170 229 200 q 451 140 335 140 l 774 140 q 943 170 890 140 q 996 242 996 200 l 996 519 l 451 519 z "},"ñ":{"ha":1208,"x_min":60,"x_max":1149,"o":"m 60 0 m 147 -6 q 81 7 103 -6 q 60 60 60 19 l 60 543 q 453 785 60 785 l 756 785 q 1149 543 1149 785 l 1149 60 q 1126 7 1149 19 q 1060 -6 1104 -6 q 994 7 1015 -6 q 972 60 972 19 l 972 543 q 919 615 972 586 q 750 644 867 644 l 458 644 q 289 615 342 644 q 236 543 236 586 l 236 60 q 214 7 236 19 q 147 -6 192 -6 m 867 1039 q 903 1023 894 1039 q 913 975 913 1007 q 903 927 913 943 q 867 911 894 911 l 340 911 q 303 927 311 911 q 294 975 294 943 q 303 1023 294 1007 q 340 1039 311 1039 l 867 1039 z "},"ò":{"ha":1194,"x_min":53,"x_max":1142,"o":"m 53 0 m 53 543 q 446 785 53 785 l 749 785 q 1142 543 1142 785 l 1142 242 q 749 0 1142 0 l 446 0 q 53 242 53 0 l 53 543 m 965 543 q 913 615 965 586 q 743 644 860 644 l 451 644 q 282 615 335 644 q 229 543 229 586 l 229 242 q 282 170 229 200 q 451 140 335 140 l 743 140 q 913 170 860 140 q 965 242 965 200 l 965 543 m 321 1035 q 279 1093 279 1057 q 300 1138 279 1124 q 349 1153 321 1153 q 413 1149 393 1153 q 453 1135 433 1144 l 735 982 q 776 922 776 960 q 756 878 776 893 q 707 864 735 864 q 642 868 663 864 q 603 882 622 872 l 321 1035 z "},"ó":{"ha":1194,"x_min":53,"x_max":1142,"o":"m 53 0 m 53 543 q 446 785 53 785 l 749 785 q 1142 543 1142 785 l 1142 242 q 749 0 1142 0 l 446 0 q 53 242 53 0 l 53 543 m 965 543 q 913 615 965 586 q 743 644 860 644 l 451 644 q 282 615 335 644 q 229 543 229 586 l 229 242 q 282 170 229 200 q 451 140 335 140 l 743 140 q 913 170 860 140 q 965 242 965 200 l 965 543 m 592 882 q 552 868 572 872 q 488 864 532 864 q 439 878 460 864 q 418 922 418 893 q 460 982 418 960 l 742 1135 q 781 1149 761 1144 q 846 1153 801 1153 q 894 1138 874 1153 q 915 1093 915 1124 q 874 1035 915 1057 l 592 882 z "},"ô":{"ha":1194,"x_min":53,"x_max":1142,"o":"m 53 0 m 53 543 q 446 785 53 785 l 749 785 q 1142 543 1142 785 l 1142 242 q 749 0 1142 0 l 446 0 q 53 242 53 0 l 53 543 m 965 543 q 913 615 965 586 q 743 644 860 644 l 451 644 q 282 615 335 644 q 229 543 229 586 l 229 242 q 282 170 229 200 q 451 140 335 140 l 743 140 q 913 170 860 140 q 965 242 965 200 l 965 543 m 510 892 q 476 870 497 876 q 433 864 454 864 q 371 877 397 864 q 344 913 344 890 q 356 939 344 926 l 508 1119 q 543 1144 522 1136 q 597 1153 564 1153 q 651 1144 631 1153 q 686 1119 672 1136 l 839 939 q 850 913 850 926 q 824 877 850 890 q 761 864 797 864 q 719 870 740 864 q 685 892 697 876 l 597 999 l 510 892 z "},"õ":{"ha":1194,"x_min":53,"x_max":1142,"o":"m 53 0 m 53 543 q 446 785 53 785 l 749 785 q 1142 543 1142 785 l 1142 242 q 749 0 1142 0 l 446 0 q 53 242 53 0 l 53 543 m 965 543 q 913 615 965 586 q 743 644 860 644 l 451 644 q 282 615 335 644 q 229 543 229 586 l 229 242 q 282 170 229 200 q 451 140 335 140 l 743 140 q 913 170 860 140 q 965 242 965 200 l 965 543 m 860 1039 q 897 1023 888 1039 q 906 975 906 1007 q 897 927 906 943 q 860 911 888 911 l 333 911 q 296 927 304 911 q 288 975 288 943 q 296 1023 288 1007 q 333 1039 304 1039 l 860 1039 z "},"ö":{"ha":1194,"x_min":53,"x_max":1142,"o":"m 53 0 m 53 543 q 446 785 53 785 l 749 785 q 1142 543 1142 785 l 1142 242 q 749 0 1142 0 l 446 0 q 53 242 53 0 l 53 543 m 965 543 q 913 615 965 586 q 743 644 860 644 l 451 644 q 282 615 335 644 q 229 543 229 586 l 229 242 q 282 170 229 200 q 451 140 335 140 l 743 140 q 913 170 860 140 q 965 242 965 200 l 965 543 m 647 968 q 673 1033 647 1013 q 757 1054 699 1054 q 841 1033 815 1054 q 867 968 867 1013 q 841 903 867 924 q 757 882 815 882 q 673 903 699 882 q 647 968 647 924 m 328 968 q 353 1033 328 1013 q 438 1054 379 1054 q 522 1033 496 1054 q 547 968 547 1013 q 522 903 547 924 q 438 882 496 882 q 353 903 379 882 q 328 968 328 924 z "},"÷":{"ha":846,"x_min":53,"x_max":793,"o":"m 53 139 m 111 422 q 64 442 75 422 q 53 503 53 463 q 64 563 53 543 q 111 582 75 582 l 735 582 q 782 563 771 582 q 793 503 793 543 q 782 442 793 463 q 735 422 771 422 l 111 422 m 313 779 q 338 844 313 824 q 422 865 364 865 q 506 844 481 865 q 532 779 532 824 q 506 714 532 735 q 422 693 481 693 q 338 714 364 693 q 313 779 313 735 m 313 225 q 338 290 313 269 q 422 311 364 311 q 506 290 481 311 q 532 225 532 269 q 506 160 532 181 q 422 139 481 139 q 338 160 364 139 q 313 225 313 181 z "},"ø":{"ha":1194,"x_min":53,"x_max":1142,"o":"m 993 749 q 1142 543 1142 692 l 1142 242 q 749 0 1142 0 l 446 0 q 385 1 414 0 q 329 6 356 3 l 264 -67 q 234 -86 251 -82 q 196 -90 217 -90 q 124 -51 124 -90 q 128 -35 124 -43 q 144 -11 132 -26 l 190 40 q 53 242 53 99 l 53 543 q 446 785 53 785 l 749 785 q 803 783 776 785 q 853 779 829 782 l 935 871 q 1006 896 958 896 q 1075 857 1075 896 q 1070 839 1075 847 q 1053 815 1065 831 l 993 749 m 965 543 q 946 591 965 569 q 883 626 926 613 l 449 140 l 743 140 q 913 170 860 140 q 965 242 965 200 l 965 543 m 229 242 q 247 197 229 218 q 300 161 264 176 l 732 644 l 451 644 q 282 615 335 644 q 229 543 229 586 l 229 242 z "},"ù":{"ha":1238,"x_min":60,"x_max":1178,"o":"m 60 0 m 1090 790 q 1156 778 1135 790 q 1178 725 1178 765 l 1178 242 q 785 0 1178 0 l 453 0 q 60 242 60 0 l 60 725 q 82 778 60 765 q 149 790 104 790 q 215 778 193 790 q 236 725 236 765 l 236 242 q 289 169 236 199 q 458 140 342 140 l 779 140 q 949 169 896 140 q 1001 242 1001 199 l 1001 725 q 1024 778 1001 765 q 1090 790 1046 790 m 342 1035 q 300 1093 300 1057 q 321 1138 300 1124 q 369 1153 342 1153 q 434 1149 414 1153 q 474 1135 454 1144 l 756 982 q 797 922 797 960 q 776 878 797 893 q 728 864 756 864 q 663 868 683 864 q 624 882 643 872 l 342 1035 z "},"ú":{"ha":1238,"x_min":60,"x_max":1178,"o":"m 60 0 m 1090 790 q 1156 778 1135 790 q 1178 725 1178 765 l 1178 242 q 785 0 1178 0 l 453 0 q 60 242 60 0 l 60 725 q 82 778 60 765 q 149 790 104 790 q 215 778 193 790 q 236 725 236 765 l 236 242 q 289 169 236 199 q 458 140 342 140 l 779 140 q 949 169 896 140 q 1001 242 1001 199 l 1001 725 q 1024 778 1001 765 q 1090 790 1046 790 m 613 882 q 573 868 593 872 q 508 864 553 864 q 460 878 481 864 q 439 922 439 893 q 481 982 439 960 l 763 1135 q 802 1149 782 1144 q 867 1153 822 1153 q 915 1138 894 1153 q 936 1093 936 1124 q 894 1035 936 1057 l 613 882 z "},"û":{"ha":1238,"x_min":60,"x_max":1178,"o":"m 60 0 m 1090 790 q 1156 778 1135 790 q 1178 725 1178 765 l 1178 242 q 785 0 1178 0 l 453 0 q 60 242 60 0 l 60 725 q 82 778 60 765 q 149 790 104 790 q 215 778 193 790 q 236 725 236 765 l 236 242 q 289 169 236 199 q 458 140 342 140 l 779 140 q 949 169 896 140 q 1001 242 1001 199 l 1001 725 q 1024 778 1001 765 q 1090 790 1046 790 m 531 892 q 497 870 518 876 q 454 864 475 864 q 392 877 418 864 q 365 913 365 890 q 376 939 365 926 l 529 1119 q 564 1144 543 1136 q 618 1153 585 1153 q 672 1144 651 1153 q 707 1119 693 1136 l 860 939 q 871 913 871 926 q 844 877 871 890 q 782 864 818 864 q 740 870 761 864 q 706 892 718 876 l 618 999 l 531 892 z "},"ü":{"ha":1238,"x_min":60,"x_max":1178,"o":"m 60 0 m 1090 790 q 1156 778 1135 790 q 1178 725 1178 765 l 1178 242 q 785 0 1178 0 l 453 0 q 60 242 60 0 l 60 725 q 82 778 60 765 q 149 790 104 790 q 215 778 193 790 q 236 725 236 765 l 236 242 q 289 169 236 199 q 458 140 342 140 l 779 140 q 949 169 896 140 q 1001 242 1001 199 l 1001 725 q 1024 778 1001 765 q 1090 790 1046 790 m 668 968 q 694 1033 668 1013 q 778 1054 719 1054 q 862 1033 836 1054 q 888 968 888 1013 q 862 903 888 924 q 778 882 836 882 q 694 903 719 882 q 668 968 668 924 m 349 968 q 374 1033 349 1013 q 458 1054 400 1054 q 542 1033 517 1054 q 568 968 568 1013 q 542 903 568 924 q 458 882 517 882 q 374 903 400 882 q 349 968 349 924 z "},"ý":{"ha":1222,"x_min":60,"x_max":1157,"o":"m 60 0 m 981 160 l 981 725 q 1002 778 981 765 q 1068 790 1024 790 q 1135 778 1113 790 q 1157 725 1157 765 l 1157 13 q 1065 -168 1157 -108 q 797 -228 972 -228 l 606 -228 q 565 -210 574 -228 q 556 -157 556 -192 q 565 -105 556 -122 q 606 -87 574 -87 l 797 -87 q 940 -62 900 -87 q 981 13 981 -36 l 981 19 l 453 19 q 60 261 60 19 l 60 725 q 81 778 60 765 q 147 790 103 790 q 214 778 192 790 q 236 725 236 765 l 236 260 q 289 188 236 217 q 458 160 342 160 l 981 160 m 606 882 q 566 868 586 872 q 501 864 546 864 q 453 878 474 864 q 432 922 432 893 q 474 982 432 960 l 756 1135 q 795 1149 775 1144 q 860 1153 815 1153 q 908 1138 888 1153 q 929 1093 929 1124 q 888 1035 929 1057 l 606 882 z "},"þ":{"ha":1225,"x_min":65,"x_max":1172,"o":"m 242 0 l 242 -174 q 219 -226 242 -214 q 153 -239 197 -239 q 87 -226 108 -239 q 65 -174 65 -214 l 65 947 q 87 1000 65 988 q 153 1013 108 1013 q 219 1000 197 1013 q 242 947 242 988 l 242 785 l 779 785 q 1172 543 1172 785 l 1172 242 q 779 0 1172 0 l 242 0 m 242 644 l 242 140 l 774 140 q 943 170 890 140 q 996 242 996 200 l 996 543 q 943 615 996 586 q 774 644 890 644 l 242 644 z "},"ÿ":{"ha":1222,"x_min":60,"x_max":1157,"o":"m 60 0 m 981 160 l 981 725 q 1002 778 981 765 q 1068 790 1024 790 q 1135 778 1113 790 q 1157 725 1157 765 l 1157 13 q 1065 -168 1157 -108 q 797 -228 972 -228 l 606 -228 q 565 -210 574 -228 q 556 -157 556 -192 q 565 -105 556 -122 q 606 -87 574 -87 l 797 -87 q 940 -62 900 -87 q 981 13 981 -36 l 981 19 l 453 19 q 60 261 60 19 l 60 725 q 81 778 60 765 q 147 790 103 790 q 214 778 192 790 q 236 725 236 765 l 236 260 q 289 188 236 217 q 458 160 342 160 l 981 160 m 661 968 q 687 1033 661 1013 q 771 1054 713 1054 q 855 1033 829 1054 q 881 968 881 1013 q 855 903 881 924 q 771 882 829 882 q 687 903 713 882 q 661 968 661 924 m 342 968 q 367 1033 342 1013 q 451 1054 393 1054 q 535 1033 510 1054 q 561 968 561 1013 q 535 903 561 924 q 451 882 510 882 q 367 903 393 882 q 342 968 342 924 z "},"Ā":{"ha":1446,"x_min":17,"x_max":1429,"o":"m 17 0 m 706 1011 q 772 999 746 1011 q 814 963 797 986 l 1419 99 q 1429 67 1429 83 q 1420 38 1429 51 q 1397 14 1411 24 q 1364 -1 1382 4 q 1328 -7 1346 -7 q 1293 -1 1308 -7 q 1267 21 1278 6 l 1103 260 l 331 260 l 176 21 q 151 -1 167 6 q 117 -7 135 -7 q 82 -1 100 -7 q 49 15 64 4 q 26 38 35 25 q 17 68 17 51 q 26 99 17 82 l 596 963 q 638 999 611 986 q 706 1011 664 1011 m 426 410 l 1000 410 l 706 842 l 426 410 m 986 1261 q 1023 1245 1014 1261 q 1032 1197 1032 1229 q 1023 1149 1032 1165 q 986 1133 1014 1133 l 460 1133 q 422 1149 431 1133 q 414 1197 414 1165 q 422 1245 414 1229 q 460 1261 431 1261 l 986 1261 z "},"ā":{"ha":1261,"x_min":44,"x_max":1208,"o":"m 44 0 m 438 0 q 44 242 44 0 l 44 315 q 438 557 44 557 l 1032 557 l 1032 558 q 980 622 1032 599 q 810 644 928 644 l 679 644 q 638 662 647 644 q 628 714 628 679 q 638 767 628 750 q 679 785 647 785 l 815 785 q 1208 543 1208 785 l 1208 242 q 815 0 1208 0 l 438 0 m 810 140 q 979 170 926 140 q 1032 242 1032 200 l 1032 422 l 443 422 q 274 393 326 422 q 221 321 221 364 l 221 242 q 274 170 221 200 q 443 140 326 140 l 810 140 m 1004 1039 q 1041 1023 1032 1039 q 1050 975 1050 1007 q 1041 927 1050 943 q 1004 911 1032 911 l 478 911 q 440 927 449 911 q 432 975 432 943 q 440 1023 432 1007 q 478 1039 449 1039 l 1004 1039 z "},"Ă":{"ha":1446,"x_min":17,"x_max":1429,"o":"m 17 0 m 706 1011 q 772 999 746 1011 q 814 963 797 986 l 1419 99 q 1429 67 1429 83 q 1420 38 1429 51 q 1397 14 1411 24 q 1364 -1 1382 4 q 1328 -7 1346 -7 q 1293 -1 1308 -7 q 1267 21 1278 6 l 1103 260 l 331 260 l 176 21 q 151 -1 167 6 q 117 -7 135 -7 q 82 -1 100 -7 q 49 15 64 4 q 26 38 35 25 q 17 68 17 51 q 26 99 17 82 l 596 963 q 638 999 611 986 q 706 1011 664 1011 m 426 410 l 1000 410 l 706 842 l 426 410 m 722 1086 q 606 1101 663 1086 q 503 1146 549 1117 q 431 1217 458 1175 q 404 1311 404 1258 q 422 1361 404 1347 q 492 1375 440 1375 q 544 1368 522 1375 q 576 1338 565 1361 q 598 1295 586 1317 q 626 1256 610 1274 q 666 1226 643 1238 q 722 1215 689 1215 q 778 1226 756 1215 q 818 1256 801 1238 q 847 1295 835 1274 q 868 1338 858 1317 q 901 1368 879 1361 q 953 1375 922 1375 q 1022 1361 1004 1375 q 1040 1311 1040 1347 q 1013 1217 1040 1258 q 940 1146 985 1175 q 839 1101 896 1117 q 722 1086 782 1086 z "},"ă":{"ha":1261,"x_min":44,"x_max":1208,"o":"m 44 0 m 438 0 q 44 242 44 0 l 44 315 q 438 557 44 557 l 1032 557 l 1032 558 q 980 622 1032 599 q 810 644 928 644 l 679 644 q 638 662 647 644 q 628 714 628 679 q 638 767 628 750 q 679 785 647 785 l 815 785 q 1208 543 1208 785 l 1208 242 q 815 0 1208 0 l 438 0 m 810 140 q 979 170 926 140 q 1032 242 1032 200 l 1032 422 l 443 422 q 274 393 326 422 q 221 321 221 364 l 221 242 q 274 170 221 200 q 443 140 326 140 l 810 140 m 742 864 q 625 879 682 864 q 523 924 568 894 q 451 994 478 953 q 424 1089 424 1036 q 442 1139 424 1125 q 511 1153 460 1153 q 563 1146 542 1153 q 596 1115 585 1139 q 617 1073 606 1094 q 646 1033 629 1051 q 685 1004 663 1015 q 742 993 708 993 q 798 1004 775 993 q 838 1033 821 1015 q 866 1073 854 1051 q 888 1115 878 1094 q 920 1146 899 1139 q 972 1153 942 1153 q 1042 1139 1024 1153 q 1060 1089 1060 1125 q 1032 994 1060 1036 q 960 924 1004 953 q 858 879 915 894 q 742 864 801 864 z "},"Ą":{"ha":1446,"x_min":17,"x_max":1429,"o":"m 1363 -161 q 1401 -177 1392 -161 q 1410 -225 1410 -193 q 1401 -274 1410 -257 q 1363 -292 1392 -292 l 1154 -292 q 1076 -281 1107 -292 q 1028 -255 1046 -271 q 1004 -220 1011 -239 q 997 -186 997 -201 l 997 -153 q 1009 -101 997 -124 q 1051 -60 1021 -79 q 1135 -24 1082 -40 q 1274 11 1189 -7 l 1103 260 l 331 260 l 176 21 q 151 -1 167 6 q 117 -7 135 -7 q 82 -1 100 -7 q 49 15 64 4 q 26 38 35 25 q 17 68 17 51 q 26 99 17 82 l 596 963 q 638 999 611 986 q 706 1011 664 1011 q 772 999 746 1011 q 814 963 797 986 l 1419 99 q 1429 67 1429 83 q 1419 34 1429 49 q 1392 9 1408 19 q 1358 -9 1376 -1 q 1325 -21 1340 -17 q 1200 -64 1239 -47 q 1161 -108 1161 -81 l 1161 -129 q 1169 -155 1161 -149 q 1199 -161 1176 -161 l 1363 -161 m 426 410 l 1000 410 l 706 842 l 426 410 z "},"ą":{"ha":1261,"x_min":44,"x_max":1208,"o":"m 925 -161 q 963 -177 954 -161 q 972 -225 972 -193 q 963 -274 972 -257 q 925 -292 954 -292 l 717 -292 q 639 -281 669 -292 q 591 -255 608 -271 q 567 -220 574 -239 q 560 -186 560 -201 l 560 -153 q 571 -101 560 -124 q 609 -61 582 -79 q 681 -28 636 -43 q 796 0 726 -14 l 438 0 q 44 242 44 0 l 44 315 q 438 557 44 557 l 1032 557 l 1032 558 q 980 622 1032 599 q 810 644 928 644 l 679 644 q 638 662 647 644 q 628 714 628 679 q 638 767 628 750 q 679 785 647 785 l 815 785 q 1208 543 1208 785 l 1208 242 q 1188 149 1208 188 q 1127 82 1168 111 q 1026 28 1086 53 q 888 -21 967 4 q 763 -65 801 -49 q 724 -108 724 -82 l 724 -129 q 731 -155 724 -149 q 761 -161 739 -161 l 925 -161 m 810 140 q 979 170 926 140 q 1032 242 1032 200 l 1032 422 l 443 422 q 274 393 326 422 q 221 321 221 364 l 221 242 q 274 170 221 200 q 443 140 326 140 l 810 140 z "},"Ć":{"ha":1244,"x_min":53,"x_max":1199,"o":"m 53 0 m 464 0 q 53 258 53 0 l 53 749 q 464 1007 53 1007 l 1144 1007 q 1188 988 1178 1007 q 1199 932 1199 969 q 1188 876 1199 894 q 1144 857 1178 857 l 469 857 q 292 826 347 857 q 236 749 236 794 l 236 258 q 292 182 236 214 q 469 150 347 150 l 1146 150 q 1189 131 1179 150 q 1199 75 1199 113 q 1189 19 1199 39 q 1146 0 1179 0 l 464 0 m 617 1104 q 577 1090 597 1094 q 513 1086 557 1086 q 464 1101 485 1086 q 443 1144 443 1115 q 485 1204 443 1182 l 767 1357 q 806 1371 786 1367 q 871 1375 826 1375 q 919 1360 899 1375 q 940 1315 940 1346 q 899 1257 940 1279 l 617 1104 z "},"ć":{"ha":1240,"x_min":53,"x_max":1194,"o":"m 53 0 m 446 0 q 53 242 53 0 l 53 543 q 446 785 53 785 l 1140 785 q 1182 767 1172 785 q 1192 714 1192 750 q 1182 662 1192 679 q 1140 644 1172 644 l 451 644 q 282 615 335 644 q 229 543 229 586 l 229 242 q 282 170 229 200 q 451 140 335 140 l 1144 140 q 1185 123 1176 140 q 1194 71 1194 106 q 1185 18 1194 36 q 1144 0 1176 0 l 446 0 m 614 882 q 574 868 594 872 q 510 864 554 864 q 461 878 482 864 q 440 922 440 893 q 482 982 440 960 l 764 1135 q 803 1149 783 1144 q 868 1153 824 1153 q 917 1138 896 1153 q 938 1093 938 1124 q 896 1035 938 1057 l 614 882 z "},"Ċ":{"ha":1244,"x_min":53,"x_max":1199,"o":"m 53 0 m 464 0 q 53 258 53 0 l 53 749 q 464 1007 53 1007 l 1144 1007 q 1188 988 1178 1007 q 1199 932 1199 969 q 1188 876 1199 894 q 1144 857 1178 857 l 469 857 q 292 826 347 857 q 236 749 236 794 l 236 258 q 292 182 236 214 q 469 150 347 150 l 1146 150 q 1189 131 1179 150 q 1199 75 1199 113 q 1189 19 1199 39 q 1146 0 1179 0 l 464 0 m 513 1190 q 538 1256 513 1235 q 622 1276 564 1276 q 706 1256 681 1276 q 732 1190 732 1235 q 706 1125 732 1146 q 622 1104 681 1104 q 538 1125 564 1104 q 513 1190 513 1146 z "},"ċ":{"ha":1240,"x_min":53,"x_max":1194,"o":"m 53 0 m 446 0 q 53 242 53 0 l 53 543 q 446 785 53 785 l 1140 785 q 1182 767 1172 785 q 1192 714 1192 750 q 1182 662 1192 679 q 1140 644 1172 644 l 451 644 q 282 615 335 644 q 229 543 229 586 l 229 242 q 282 170 229 200 q 451 140 335 140 l 1144 140 q 1185 123 1176 140 q 1194 71 1194 106 q 1185 18 1194 36 q 1144 0 1176 0 l 446 0 m 510 968 q 535 1033 510 1013 q 619 1054 561 1054 q 703 1033 678 1054 q 729 968 729 1013 q 703 903 729 924 q 619 882 678 882 q 535 903 561 882 q 510 968 510 924 z "},"Č":{"ha":1244,"x_min":53,"x_max":1199,"o":"m 53 0 m 464 0 q 53 258 53 0 l 53 749 q 464 1007 53 1007 l 1144 1007 q 1188 988 1178 1007 q 1199 932 1199 969 q 1188 876 1199 894 q 1144 857 1178 857 l 469 857 q 292 826 347 857 q 236 749 236 794 l 236 258 q 292 182 236 214 q 469 150 347 150 l 1146 150 q 1189 131 1179 150 q 1199 75 1199 113 q 1189 19 1199 39 q 1146 0 1179 0 l 464 0 m 710 1347 q 744 1369 722 1363 q 786 1375 765 1375 q 849 1362 822 1375 q 875 1326 875 1349 q 864 1300 875 1313 l 711 1119 q 676 1094 697 1103 q 622 1086 656 1086 q 568 1094 589 1086 q 533 1119 547 1103 l 381 1300 q 369 1326 369 1313 q 396 1362 369 1349 q 458 1375 422 1375 q 501 1369 479 1375 q 535 1347 522 1363 l 622 1240 l 710 1347 z "},"č":{"ha":1240,"x_min":53,"x_max":1194,"o":"m 53 0 m 446 0 q 53 242 53 0 l 53 543 q 446 785 53 785 l 1140 785 q 1182 767 1172 785 q 1192 714 1192 750 q 1182 662 1192 679 q 1140 644 1172 644 l 451 644 q 282 615 335 644 q 229 543 229 586 l 229 242 q 282 170 229 200 q 451 140 335 140 l 1144 140 q 1185 123 1176 140 q 1194 71 1194 106 q 1185 18 1194 36 q 1144 0 1176 0 l 446 0 m 707 1125 q 741 1147 719 1140 q 783 1153 763 1153 q 846 1140 819 1153 q 872 1104 872 1126 q 861 1078 872 1090 l 708 897 q 674 872 694 881 q 619 864 653 864 q 565 872 586 864 q 531 897 544 881 l 378 1078 q 367 1104 367 1090 q 393 1140 367 1126 q 456 1153 419 1153 q 498 1147 476 1153 q 532 1125 519 1140 l 619 1018 l 707 1125 z "},"Ď":{"ha":1381,"x_min":65,"x_max":1328,"o":"m 65 0 m 1328 258 q 917 0 1328 0 l 129 0 q 65 65 65 0 l 65 943 q 129 1007 65 1007 l 917 1007 q 1328 749 1328 1007 l 1328 258 m 250 150 l 911 150 q 1090 182 1033 150 q 1146 258 1146 214 l 1146 749 q 1090 826 1146 794 q 911 857 1033 857 l 250 857 l 250 150 m 778 1347 q 812 1369 790 1363 q 854 1375 833 1375 q 917 1362 890 1375 q 943 1326 943 1349 q 932 1300 943 1313 l 779 1119 q 744 1094 765 1103 q 690 1086 724 1086 q 636 1094 657 1086 q 601 1119 615 1103 l 449 1300 q 438 1326 438 1313 q 464 1362 438 1349 q 526 1375 490 1375 q 569 1369 547 1375 q 603 1347 590 1363 l 690 1240 l 778 1347 z "},"ď":{"ha":1443,"x_min":53,"x_max":1443,"o":"m 53 0 m 996 947 q 1018 1000 996 988 q 1085 1013 1040 1013 q 1151 1000 1129 1013 q 1172 947 1172 988 l 1172 242 q 779 0 1172 0 l 446 0 q 53 242 53 0 l 53 543 q 446 785 53 785 l 996 785 l 996 947 m 451 644 q 282 615 335 644 q 229 543 229 586 l 229 242 q 282 170 229 200 q 451 140 335 140 l 774 140 q 943 170 890 140 q 996 242 996 200 l 996 644 l 451 644 m 1418 879 q 1392 835 1413 847 q 1324 824 1371 824 q 1253 835 1275 824 q 1232 874 1232 846 q 1233 894 1232 882 q 1238 918 1235 906 l 1258 1040 q 1285 1084 1264 1072 q 1354 1096 1306 1096 q 1423 1085 1403 1096 q 1443 1042 1443 1074 q 1442 1026 1443 1035 q 1440 1010 1442 1017 l 1418 879 z "},"Đ":{"ha":1438,"x_min":14,"x_max":1385,"o":"m 14 0 m 1385 258 q 974 0 1385 0 l 186 0 q 122 65 122 0 l 122 421 l 68 421 q 24 440 35 421 q 14 496 14 458 q 24 552 14 533 q 68 571 35 571 l 122 571 l 122 943 q 186 1007 122 1007 l 974 1007 q 1385 749 1385 1007 l 1385 258 m 307 421 l 307 150 l 968 150 q 1147 182 1090 150 q 1203 258 1203 214 l 1203 749 q 1147 826 1203 794 q 968 857 1090 857 l 307 857 l 307 571 l 875 571 q 919 552 908 571 q 929 496 929 533 q 919 440 929 458 q 875 421 908 421 l 307 421 z "},"đ":{"ha":1232,"x_min":53,"x_max":1172,"o":"m 1126 1039 q 1163 1023 1154 1039 q 1172 975 1172 1007 l 1172 242 q 779 0 1172 0 l 446 0 q 53 242 53 0 l 53 543 q 446 785 53 785 l 996 785 l 996 911 l 600 911 q 563 927 571 911 q 554 975 554 943 q 563 1023 554 1007 q 600 1039 571 1039 l 1126 1039 m 451 644 q 282 615 335 644 q 229 543 229 586 l 229 242 q 282 170 229 200 q 451 140 335 140 l 774 140 q 943 170 890 140 q 996 242 996 200 l 996 644 l 451 644 z "},"Ē":{"ha":1239,"x_min":53,"x_max":1192,"o":"m 53 0 m 236 421 l 236 258 q 292 182 236 214 q 469 150 347 150 l 1133 150 q 1177 131 1167 150 q 1188 75 1188 113 q 1177 19 1188 39 q 1133 0 1167 0 l 464 0 q 53 258 53 0 l 53 749 q 464 1007 53 1007 l 671 1007 q 713 988 703 1007 q 724 932 724 969 q 713 876 724 894 q 671 857 703 857 l 469 857 q 292 826 347 857 q 236 749 236 794 l 236 571 l 1138 571 q 1181 552 1171 571 q 1192 496 1192 533 q 1181 440 1192 458 q 1138 421 1171 421 l 236 421 m 840 1261 q 877 1245 868 1261 q 886 1197 886 1229 q 877 1149 886 1165 q 840 1133 868 1133 l 314 1133 q 276 1149 285 1133 q 268 1197 268 1165 q 276 1245 268 1229 q 314 1261 285 1261 l 840 1261 z "},"ē":{"ha":1201,"x_min":53,"x_max":1160,"o":"m 53 0 m 229 313 l 229 242 q 282 170 229 200 q 451 140 335 140 l 611 140 q 652 123 643 140 q 661 71 661 106 q 652 18 661 36 q 611 0 643 0 l 446 0 q 53 242 53 0 l 53 543 q 446 785 53 785 l 767 785 q 1067 725 975 785 q 1160 543 1160 665 l 1160 383 q 1144 328 1160 343 q 1076 313 1129 313 l 229 313 m 229 450 l 983 450 l 983 543 q 931 618 983 592 q 761 644 879 644 l 451 644 q 282 615 335 644 q 229 543 229 586 l 229 450 m 864 1039 q 901 1023 892 1039 q 910 975 910 1007 q 901 927 910 943 q 864 911 892 911 l 338 911 q 300 927 308 911 q 292 975 292 943 q 300 1023 292 1007 q 338 1039 308 1039 l 864 1039 z "},"Ĕ":{"ha":1239,"x_min":53,"x_max":1192,"o":"m 53 0 m 236 421 l 236 258 q 292 182 236 214 q 469 150 347 150 l 1133 150 q 1177 131 1167 150 q 1188 75 1188 113 q 1177 19 1188 39 q 1133 0 1167 0 l 464 0 q 53 258 53 0 l 53 749 q 464 1007 53 1007 l 671 1007 q 713 988 703 1007 q 724 932 724 969 q 713 876 724 894 q 671 857 703 857 l 469 857 q 292 826 347 857 q 236 749 236 794 l 236 571 l 1138 571 q 1181 552 1171 571 q 1192 496 1192 533 q 1181 440 1192 458 q 1138 421 1171 421 l 236 421 m 578 1086 q 461 1101 518 1086 q 359 1146 404 1117 q 287 1217 314 1175 q 260 1311 260 1258 q 278 1361 260 1347 q 347 1375 296 1375 q 399 1368 378 1375 q 432 1338 421 1361 q 453 1295 442 1317 q 482 1256 465 1274 q 522 1226 499 1238 q 578 1215 544 1215 q 634 1226 611 1215 q 674 1256 657 1238 q 702 1295 690 1274 q 724 1338 714 1317 q 756 1368 735 1361 q 808 1375 778 1375 q 878 1361 860 1375 q 896 1311 896 1347 q 868 1217 896 1258 q 796 1146 840 1175 q 694 1101 751 1117 q 578 1086 638 1086 z "},"ĕ":{"ha":1201,"x_min":53,"x_max":1160,"o":"m 53 0 m 229 313 l 229 242 q 282 170 229 200 q 451 140 335 140 l 611 140 q 652 123 643 140 q 661 71 661 106 q 652 18 661 36 q 611 0 643 0 l 446 0 q 53 242 53 0 l 53 543 q 446 785 53 785 l 767 785 q 1067 725 975 785 q 1160 543 1160 665 l 1160 383 q 1144 328 1160 343 q 1076 313 1129 313 l 229 313 m 229 450 l 983 450 l 983 543 q 931 618 983 592 q 761 644 879 644 l 451 644 q 282 615 335 644 q 229 543 229 586 l 229 450 m 600 864 q 483 879 540 864 q 381 924 426 894 q 309 994 336 953 q 282 1089 282 1036 q 300 1139 282 1125 q 369 1153 318 1153 q 422 1146 400 1153 q 454 1115 443 1139 q 476 1073 464 1094 q 504 1033 488 1051 q 544 1004 521 1015 q 600 993 567 993 q 656 1004 633 993 q 696 1033 679 1015 q 724 1073 713 1051 q 746 1115 736 1094 q 778 1146 757 1139 q 831 1153 800 1153 q 900 1139 882 1153 q 918 1089 918 1125 q 890 994 918 1036 q 818 924 863 953 q 717 879 774 894 q 600 864 660 864 z "},"Ė":{"ha":1239,"x_min":53,"x_max":1192,"o":"m 53 0 m 236 421 l 236 258 q 292 182 236 214 q 469 150 347 150 l 1133 150 q 1177 131 1167 150 q 1188 75 1188 113 q 1177 19 1188 39 q 1133 0 1167 0 l 464 0 q 53 258 53 0 l 53 749 q 464 1007 53 1007 l 671 1007 q 713 988 703 1007 q 724 932 724 969 q 713 876 724 894 q 671 857 703 857 l 469 857 q 292 826 347 857 q 236 749 236 794 l 236 571 l 1138 571 q 1181 552 1171 571 q 1192 496 1192 533 q 1181 440 1192 458 q 1138 421 1171 421 l 236 421 m 468 1190 q 494 1256 468 1235 q 578 1276 519 1276 q 662 1256 636 1276 q 688 1190 688 1235 q 662 1125 688 1146 q 578 1104 636 1104 q 494 1125 519 1104 q 468 1190 468 1146 z "},"ė":{"ha":1201,"x_min":53,"x_max":1160,"o":"m 53 0 m 229 313 l 229 242 q 282 170 229 200 q 451 140 335 140 l 611 140 q 652 123 643 140 q 661 71 661 106 q 652 18 661 36 q 611 0 643 0 l 446 0 q 53 242 53 0 l 53 543 q 446 785 53 785 l 767 785 q 1067 725 975 785 q 1160 543 1160 665 l 1160 383 q 1144 328 1160 343 q 1076 313 1129 313 l 229 313 m 229 450 l 983 450 l 983 543 q 931 618 983 592 q 761 644 879 644 l 451 644 q 282 615 335 644 q 229 543 229 586 l 229 450 m 490 968 q 516 1033 490 1013 q 600 1054 542 1054 q 684 1033 658 1054 q 710 968 710 1013 q 684 903 710 924 q 600 882 658 882 q 516 903 542 882 q 490 968 490 924 z "},"Ę":{"ha":1239,"x_min":53,"x_max":1194,"o":"m 1147 -161 q 1185 -177 1176 -161 q 1194 -225 1194 -193 q 1185 -274 1194 -257 q 1147 -292 1176 -292 l 939 -292 q 861 -281 892 -292 q 813 -255 831 -271 q 789 -220 796 -239 q 782 -186 782 -201 l 782 -153 q 793 -101 782 -124 q 831 -61 804 -79 q 903 -28 858 -43 q 1018 0 949 -14 l 464 0 q 53 258 53 0 l 53 749 q 464 1007 53 1007 l 671 1007 q 713 988 703 1007 q 724 932 724 969 q 713 876 724 894 q 671 857 703 857 l 469 857 q 292 826 347 857 q 236 749 236 794 l 236 571 l 1138 571 q 1181 552 1171 571 q 1192 496 1192 533 q 1181 440 1192 458 q 1138 421 1171 421 l 236 421 l 236 258 q 292 182 236 214 q 469 150 347 150 l 1133 150 q 1176 132 1165 150 q 1188 81 1188 114 q 1170 15 1188 36 q 1110 -21 1153 -7 q 983 -65 1019 -49 q 946 -108 946 -82 l 946 -129 q 953 -155 946 -149 q 983 -161 961 -161 l 1147 -161 l 1147 -161 z "},"ę":{"ha":1201,"x_min":53,"x_max":1160,"o":"m 614 -161 q 652 -177 643 -161 q 661 -225 661 -193 q 652 -274 661 -257 q 614 -292 643 -292 l 406 -292 q 328 -281 358 -292 q 280 -255 297 -271 q 256 -220 263 -239 q 249 -186 249 -201 l 249 -153 q 260 -101 249 -124 q 298 -61 271 -79 q 370 -28 325 -43 q 485 0 415 -14 l 446 0 q 53 242 53 0 l 53 543 q 446 785 53 785 l 767 785 q 1067 725 975 785 q 1160 543 1160 665 l 1160 383 q 1144 328 1160 343 q 1076 313 1129 313 l 229 313 l 229 242 q 282 170 229 200 q 451 140 335 140 l 611 140 q 651 124 642 140 q 661 75 661 107 q 657 36 661 51 q 642 10 653 21 q 616 -7 632 0 q 576 -21 600 -14 q 449 -67 486 -50 q 413 -108 413 -83 l 413 -129 q 420 -155 413 -149 q 450 -161 428 -161 l 614 -161 m 229 450 l 983 450 l 983 543 q 931 618 983 592 q 761 644 879 644 l 451 644 q 282 615 335 644 q 229 543 229 586 l 229 450 z "},"Ě":{"ha":1239,"x_min":53,"x_max":1192,"o":"m 53 0 m 236 421 l 236 258 q 292 182 236 214 q 469 150 347 150 l 1133 150 q 1177 131 1167 150 q 1188 75 1188 113 q 1177 19 1188 39 q 1133 0 1167 0 l 464 0 q 53 258 53 0 l 53 749 q 464 1007 53 1007 l 671 1007 q 713 988 703 1007 q 724 932 724 969 q 713 876 724 894 q 671 857 703 857 l 469 857 q 292 826 347 857 q 236 749 236 794 l 236 571 l 1138 571 q 1181 552 1171 571 q 1192 496 1192 533 q 1181 440 1192 458 q 1138 421 1171 421 l 236 421 m 665 1347 q 699 1369 678 1363 q 742 1375 721 1375 q 804 1362 778 1375 q 831 1326 831 1349 q 819 1300 831 1313 l 667 1119 q 632 1094 653 1103 q 578 1086 611 1086 q 524 1094 544 1086 q 489 1119 503 1103 l 336 1300 q 325 1326 325 1313 q 351 1362 325 1349 q 414 1375 378 1375 q 456 1369 435 1375 q 490 1347 478 1363 l 578 1240 l 665 1347 z "},"ě":{"ha":1201,"x_min":53,"x_max":1160,"o":"m 53 0 m 229 313 l 229 242 q 282 170 229 200 q 451 140 335 140 l 611 140 q 652 123 643 140 q 661 71 661 106 q 652 18 661 36 q 611 0 643 0 l 446 0 q 53 242 53 0 l 53 543 q 446 785 53 785 l 767 785 q 1067 725 975 785 q 1160 543 1160 665 l 1160 383 q 1144 328 1160 343 q 1076 313 1129 313 l 229 313 m 229 450 l 983 450 l 983 543 q 931 618 983 592 q 761 644 879 644 l 451 644 q 282 615 335 644 q 229 543 229 586 l 229 450 m 688 1125 q 722 1147 700 1140 q 764 1153 743 1153 q 826 1140 800 1153 q 853 1104 853 1126 q 842 1078 853 1090 l 689 897 q 654 872 675 881 q 600 864 633 864 q 546 872 567 864 q 511 897 525 881 l 358 1078 q 347 1104 347 1090 q 374 1140 347 1126 q 436 1153 400 1153 q 478 1147 457 1153 q 513 1125 500 1140 l 600 1018 l 688 1125 z "},"Ğ":{"ha":1347,"x_min":53,"x_max":1297,"o":"m 53 0 m 1297 258 q 1192 63 1297 125 q 885 0 1088 0 l 464 0 q 53 258 53 0 l 53 749 q 464 1007 53 1007 l 660 1007 q 703 988 693 1007 q 714 932 714 969 q 703 876 714 894 q 660 857 693 857 l 469 857 q 292 826 347 857 q 236 749 236 794 l 236 258 q 292 182 236 214 q 469 150 347 150 l 879 150 q 1056 182 1001 150 q 1111 258 1111 214 l 1111 506 q 1134 558 1111 546 q 1203 571 1157 571 q 1273 558 1249 571 q 1297 506 1297 546 l 1297 258 m 632 1086 q 515 1101 572 1086 q 413 1146 458 1117 q 341 1217 368 1175 q 314 1311 314 1258 q 332 1361 314 1347 q 401 1375 350 1375 q 453 1368 432 1375 q 486 1338 475 1361 q 508 1295 496 1317 q 536 1256 519 1274 q 576 1226 553 1238 q 632 1215 599 1215 q 688 1226 665 1215 q 728 1256 711 1238 q 756 1295 744 1274 q 778 1338 768 1317 q 810 1368 789 1361 q 863 1375 832 1375 q 932 1361 914 1375 q 950 1311 950 1347 q 922 1217 950 1258 q 850 1146 894 1175 q 749 1101 806 1117 q 632 1086 692 1086 z "},"ğ":{"ha":1217,"x_min":53,"x_max":1157,"o":"m 53 0 m 606 -228 q 565 -210 574 -228 q 556 -157 556 -192 q 565 -105 556 -122 q 606 -87 574 -87 l 797 -87 q 940 -62 900 -87 q 981 13 981 -36 l 981 19 l 446 19 q 53 261 53 19 l 53 543 q 446 785 53 785 l 764 785 q 1157 543 1157 785 l 1157 13 q 1065 -168 1157 -108 q 797 -228 972 -228 l 606 -228 m 981 157 l 981 543 q 928 615 981 585 q 758 644 875 644 l 451 644 q 282 615 335 644 q 229 543 229 585 l 229 258 q 282 186 229 215 q 451 157 335 157 l 981 157 m 608 864 q 492 879 549 864 q 390 924 435 894 q 317 994 344 953 q 290 1089 290 1036 q 308 1139 290 1125 q 378 1153 326 1153 q 430 1146 408 1153 q 463 1115 451 1139 q 484 1073 472 1094 q 513 1033 496 1051 q 552 1004 529 1015 q 608 993 575 993 q 665 1004 642 993 q 704 1033 688 1015 q 733 1073 721 1051 q 754 1115 744 1094 q 787 1146 765 1139 q 839 1153 808 1153 q 908 1139 890 1153 q 926 1089 926 1125 q 899 994 926 1036 q 826 924 871 953 q 725 879 782 894 q 608 864 668 864 z "},"Ġ":{"ha":1347,"x_min":53,"x_max":1297,"o":"m 53 0 m 1297 258 q 1192 63 1297 125 q 885 0 1088 0 l 464 0 q 53 258 53 0 l 53 749 q 464 1007 53 1007 l 660 1007 q 703 988 693 1007 q 714 932 714 969 q 703 876 714 894 q 660 857 693 857 l 469 857 q 292 826 347 857 q 236 749 236 794 l 236 258 q 292 182 236 214 q 469 150 347 150 l 879 150 q 1056 182 1001 150 q 1111 258 1111 214 l 1111 506 q 1134 558 1111 546 q 1203 571 1157 571 q 1273 558 1249 571 q 1297 506 1297 546 l 1297 258 m 522 1190 q 548 1256 522 1235 q 632 1276 574 1276 q 716 1256 690 1276 q 742 1190 742 1235 q 716 1125 742 1146 q 632 1104 690 1104 q 548 1125 574 1104 q 522 1190 522 1146 z "},"ġ":{"ha":1217,"x_min":53,"x_max":1157,"o":"m 53 0 m 606 -228 q 565 -210 574 -228 q 556 -157 556 -192 q 565 -105 556 -122 q 606 -87 574 -87 l 797 -87 q 940 -62 900 -87 q 981 13 981 -36 l 981 19 l 446 19 q 53 261 53 19 l 53 543 q 446 785 53 785 l 764 785 q 1157 543 1157 785 l 1157 13 q 1065 -168 1157 -108 q 797 -228 972 -228 l 606 -228 m 981 157 l 981 543 q 928 615 981 585 q 758 644 875 644 l 451 644 q 282 615 335 644 q 229 543 229 585 l 229 258 q 282 186 229 215 q 451 157 335 157 l 981 157 m 499 968 q 524 1033 499 1013 q 608 1054 550 1054 q 692 1033 667 1054 q 718 968 718 1013 q 692 903 718 924 q 608 882 667 882 q 524 903 550 882 q 499 968 499 924 z "},"Ģ":{"ha":1347,"x_min":53,"x_max":1297,"o":"m 53 0 m 1297 258 q 1192 63 1297 125 q 885 0 1088 0 l 464 0 q 53 258 53 0 l 53 749 q 464 1007 53 1007 l 660 1007 q 703 988 693 1007 q 714 932 714 969 q 703 876 714 894 q 660 857 693 857 l 469 857 q 292 826 347 857 q 236 749 236 794 l 236 258 q 292 182 236 214 q 469 150 347 150 l 879 150 q 1056 182 1001 150 q 1111 258 1111 214 l 1111 506 q 1134 558 1111 546 q 1203 571 1157 571 q 1273 558 1249 571 q 1297 506 1297 546 l 1297 258 m 754 -236 q 728 -280 749 -268 q 660 -292 707 -292 q 590 -281 611 -292 q 568 -242 568 -269 q 569 -222 568 -233 q 574 -197 571 -210 l 594 -75 q 621 -31 600 -43 q 690 -19 642 -19 q 759 -31 739 -19 q 779 -74 779 -42 q 778 -90 779 -81 q 776 -106 778 -99 l 754 -236 z "},"ģ":{"ha":1217,"x_min":53,"x_max":1157,"o":"m 53 0 m 606 -228 q 565 -210 574 -228 q 556 -157 556 -192 q 565 -105 556 -122 q 606 -87 574 -87 l 797 -87 q 940 -62 900 -87 q 981 13 981 -36 l 981 19 l 446 19 q 53 261 53 19 l 53 543 q 446 785 53 785 l 764 785 q 1157 543 1157 785 l 1157 13 q 1065 -168 1157 -108 q 797 -228 972 -228 l 606 -228 m 981 157 l 981 543 q 928 615 981 585 q 758 644 875 644 l 451 644 q 282 615 335 644 q 229 543 229 585 l 229 258 q 282 186 229 215 q 451 157 335 157 l 981 157 m 738 879 q 711 835 732 847 q 643 824 690 824 q 573 835 594 824 q 551 874 551 846 q 553 894 551 882 q 557 918 554 906 l 578 1040 q 604 1084 583 1072 q 674 1096 625 1096 q 742 1085 722 1096 q 763 1042 763 1074 q 762 1026 763 1035 q 760 1010 761 1017 l 738 879 z "},"Ħ":{"ha":1394,"x_min":65,"x_max":1329,"o":"m 250 857 l 1144 857 l 1144 947 q 1168 1000 1144 988 q 1238 1013 1192 1013 q 1306 1000 1282 1013 q 1329 947 1329 988 l 1329 60 q 1306 7 1329 19 q 1238 -6 1282 -6 q 1168 7 1192 -6 q 1144 60 1144 19 l 1144 421 l 250 421 l 250 60 q 226 7 250 19 q 157 -6 203 -6 q 89 7 113 -6 q 65 60 65 19 l 65 947 q 89 1000 65 988 q 157 1013 113 1013 q 226 1000 203 1013 q 250 947 250 988 l 250 857 m 1144 571 l 1144 729 l 250 729 l 250 571 l 1144 571 z "},"ħ":{"ha":1228,"x_min":65,"x_max":1168,"o":"m 638 1039 q 674 1023 665 1039 q 683 975 683 1007 q 674 927 683 943 q 638 911 665 911 l 242 911 l 242 785 l 775 785 q 1168 543 1168 785 l 1168 60 q 1146 7 1168 19 q 1079 -6 1124 -6 q 1013 7 1035 -6 q 992 60 992 19 l 992 543 q 939 615 992 586 q 769 644 886 644 l 242 644 l 242 60 q 219 7 242 19 q 153 -6 197 -6 q 87 7 108 -6 q 65 60 65 19 l 65 975 q 74 1023 65 1007 q 111 1039 82 1039 l 638 1039 z "},"Ī":{"ha":463,"x_min":-78,"x_max":540,"o":"m 0 0 m 324 60 q 300 7 324 19 q 231 -6 276 -6 q 163 7 186 -6 q 139 60 139 19 l 139 947 q 163 1000 139 988 q 231 1013 186 1013 q 300 1000 276 1013 q 324 947 324 988 l 324 60 m 494 1261 q 531 1245 522 1261 q 540 1197 540 1229 q 531 1149 540 1165 q 494 1133 522 1133 l -32 1133 q -69 1149 -61 1133 q -78 1197 -78 1165 q -69 1245 -78 1229 q -32 1261 -61 1261 l 494 1261 z "},"ī":{"ha":604,"x_min":-7,"x_max":611,"o":"m 0 0 m 390 60 q 368 7 390 19 q 301 -6 346 -6 q 235 7 257 -6 q 214 60 214 19 l 214 725 q 235 778 214 765 q 301 790 257 790 q 368 778 346 790 q 390 725 390 765 l 390 60 m 565 1039 q 602 1023 593 1039 q 611 975 611 1007 q 602 927 611 943 q 565 911 593 911 l 39 911 q 1 927 10 911 q -7 975 -7 943 q 1 1023 -7 1007 q 39 1039 10 1039 l 565 1039 z "},"Ĭ":{"ha":485,"x_min":-75,"x_max":561,"o":"m 0 0 m 335 60 q 311 7 335 19 q 242 -6 288 -6 q 174 7 197 -6 q 150 60 150 19 l 150 947 q 174 1000 150 988 q 242 1013 197 1013 q 311 1000 288 1013 q 335 947 335 988 l 335 60 m 243 1086 q 126 1101 183 1086 q 24 1146 69 1117 q -48 1217 -21 1175 q -75 1311 -75 1258 q -57 1361 -75 1347 q 13 1375 -39 1375 q 65 1368 43 1375 q 97 1338 86 1361 q 119 1295 107 1317 q 147 1256 131 1274 q 187 1226 164 1238 q 243 1215 210 1215 q 299 1226 276 1215 q 339 1256 322 1238 q 367 1295 356 1274 q 389 1338 379 1317 q 422 1368 400 1361 q 474 1375 443 1375 q 543 1361 525 1375 q 561 1311 561 1347 q 533 1217 561 1258 q 461 1146 506 1175 q 360 1101 417 1117 q 243 1086 303 1086 z "},"ĭ":{"ha":618,"x_min":-8,"x_max":628,"o":"m 0 0 m 397 60 q 375 7 397 19 q 308 -6 353 -6 q 242 7 264 -6 q 221 60 221 19 l 221 725 q 242 778 221 765 q 308 790 264 790 q 375 778 353 790 q 397 725 397 765 l 397 60 m 310 864 q 193 879 250 864 q 91 924 136 894 q 19 994 46 953 q -8 1089 -8 1036 q 10 1139 -8 1125 q 79 1153 28 1153 q 131 1146 110 1153 q 164 1115 153 1139 q 185 1073 174 1094 q 214 1033 197 1051 q 253 1004 231 1015 q 310 993 276 993 q 366 1004 343 993 q 406 1033 389 1015 q 434 1073 422 1051 q 456 1115 446 1094 q 488 1146 467 1139 q 540 1153 510 1153 q 610 1139 592 1153 q 628 1089 628 1125 q 600 994 628 1036 q 528 924 572 953 q 426 879 483 894 q 310 864 369 864 z "},"Į":{"ha":400,"x_min":-72,"x_max":340,"o":"m 293 -161 q 331 -177 322 -161 q 340 -225 340 -193 q 331 -274 340 -257 q 293 -292 322 -292 l 85 -292 q 7 -281 38 -292 q -41 -255 -24 -271 q -65 -220 -58 -239 q -72 -186 -72 -201 l -72 -153 q -61 -101 -72 -124 q -22 -60 -50 -79 q 55 -26 7 -42 q 178 4 103 -11 q 150 60 150 21 l 150 947 q 174 1000 150 988 q 242 1013 197 1013 q 311 1000 288 1013 q 335 947 335 988 l 335 60 q 310 6 335 24 q 256 -21 285 -11 q 128 -65 165 -49 q 92 -108 92 -82 l 92 -129 q 99 -155 92 -149 q 129 -161 107 -161 l 293 -161 l 293 -161 z "},"į":{"ha":400,"x_min":-71,"x_max":356,"o":"m 294 -161 q 333 -177 324 -161 q 342 -225 342 -193 q 333 -274 342 -257 q 294 -292 324 -292 l 86 -292 q 8 -281 39 -292 q -40 -255 -22 -271 q -64 -220 -57 -239 q -71 -186 -71 -201 l -71 -153 q -60 -101 -71 -124 q -20 -60 -49 -79 q 58 -26 8 -42 q 182 4 107 -11 q 158 60 158 18 l 158 715 q 180 768 158 756 q 246 781 201 781 q 313 768 290 781 q 335 715 335 756 l 335 60 q 310 6 335 24 q 257 -21 286 -11 q 130 -65 167 -49 q 93 -108 93 -82 l 93 -129 q 101 -155 93 -149 q 131 -161 108 -161 l 294 -161 m 136 926 q 162 992 136 971 q 246 1013 188 1013 q 330 992 304 1013 q 356 926 356 971 q 330 861 356 882 q 246 840 304 840 q 162 861 188 840 q 136 926 136 882 z "},"İ":{"ha":315,"x_min":49,"x_max":268,"o":"m 49 0 m 250 60 q 226 7 250 19 q 157 -6 203 -6 q 89 7 113 -6 q 65 60 65 19 l 65 947 q 89 1000 65 988 q 157 1013 113 1013 q 226 1000 203 1013 q 250 947 250 988 l 250 60 m 49 1190 q 74 1256 49 1235 q 158 1276 100 1276 q 242 1256 217 1276 q 268 1190 268 1235 q 242 1125 268 1146 q 158 1104 217 1104 q 74 1125 100 1104 q 49 1190 49 1146 z "},"ı":{"ha":307,"x_min":65,"x_max":242,"o":"m 242 60 q 219 7 242 19 q 153 -6 197 -6 q 87 7 108 -6 q 65 60 65 19 l 65 725 q 87 778 65 765 q 153 790 108 790 q 219 778 197 790 q 242 725 242 765 l 242 60 z "},"Ĳ":{"ha":625,"x_min":65,"x_max":565,"o":"m 250 99 q 226 46 250 58 q 157 33 203 33 q 89 46 113 33 q 65 99 65 58 l 65 947 q 89 1000 65 988 q 157 1013 113 1013 q 226 1000 203 1013 q 250 947 250 988 l 250 99 m 118 -228 q 75 -208 85 -228 q 65 -151 65 -189 q 75 -97 65 -115 q 118 -78 85 -78 l 149 -78 q 326 -46 271 -78 q 381 31 381 -14 l 381 947 q 404 1000 381 988 q 474 1013 428 1013 q 542 1000 518 1013 q 565 947 565 988 l 565 31 q 153 -228 565 -228 l 118 -228 z "},"ĳ":{"ha":638,"x_min":43,"x_max":593,"o":"m 43 0 m 242 60 q 219 7 242 19 q 153 -6 197 -6 q 87 7 108 -6 q 65 60 65 19 l 65 715 q 87 768 65 756 q 153 781 108 781 q 219 768 197 781 q 242 715 242 756 l 242 60 m 43 926 q 69 992 43 971 q 153 1013 94 1013 q 237 992 211 1013 q 263 926 263 971 q 237 861 263 882 q 153 840 211 840 q 69 861 94 840 q 43 926 43 882 m 374 926 q 399 992 374 971 q 483 1013 425 1013 q 567 992 542 1013 q 593 926 593 971 q 567 861 593 882 q 483 840 542 840 q 399 861 425 840 q 374 926 374 882 m 99 -228 q 58 -210 67 -228 q 49 -157 49 -192 q 58 -105 49 -122 q 99 -87 67 -87 l 213 -87 q 356 -62 315 -87 q 396 13 396 -36 l 396 715 q 418 768 396 756 q 485 781 440 781 q 551 768 529 781 q 572 715 572 756 l 572 13 q 480 -168 572 -108 q 213 -228 388 -228 l 99 -228 z "},"Ķ":{"ha":1221,"x_min":65,"x_max":1194,"o":"m 65 0 m 250 599 l 982 993 q 1024 1008 1001 1004 q 1094 1013 1047 1013 q 1147 997 1125 1013 q 1169 949 1169 981 q 1125 885 1169 907 l 383 511 l 1150 122 q 1194 58 1194 100 q 1172 10 1194 26 q 1119 -6 1150 -6 q 1049 -1 1072 -6 q 1007 14 1026 3 l 250 415 l 250 60 q 226 7 250 19 q 157 -6 203 -6 q 89 7 113 -6 q 65 60 65 19 l 65 947 q 89 1000 65 988 q 157 1013 113 1013 q 226 1000 203 1013 q 250 947 250 988 l 250 599 m 649 -236 q 622 -280 643 -268 q 554 -292 601 -292 q 484 -281 506 -292 q 463 -242 463 -269 q 464 -222 463 -233 q 468 -197 465 -210 l 489 -75 q 515 -31 494 -43 q 585 -19 536 -19 q 653 -31 633 -19 q 674 -74 674 -42 q 673 -90 674 -81 q 671 -106 672 -99 l 649 -236 z "},"ķ":{"ha":1024,"x_min":65,"x_max":997,"o":"m 65 0 m 242 475 l 811 775 q 852 788 829 785 q 918 790 875 790 q 966 778 946 790 q 986 739 986 765 q 975 708 986 719 q 947 689 964 697 l 389 396 l 957 108 q 997 50 997 88 q 973 7 997 19 q 900 -6 949 -6 q 830 1 856 -6 q 793 15 804 8 l 242 307 l 242 60 q 219 7 242 19 q 153 -6 197 -6 q 87 7 108 -6 q 65 60 65 19 l 65 947 q 87 1000 65 988 q 153 1013 108 1013 q 219 1000 197 1013 q 242 947 242 988 l 242 475 m 550 -236 q 524 -280 544 -268 q 456 -292 503 -292 q 385 -281 407 -292 q 364 -242 364 -269 q 365 -222 364 -233 q 369 -197 367 -210 l 390 -75 q 417 -31 396 -43 q 486 -19 438 -19 q 555 -31 535 -19 q 575 -74 575 -42 q 574 -90 575 -81 q 572 -106 574 -99 l 550 -236 z "},"Ĺ":{"ha":1226,"x_min":60,"x_max":1210,"o":"m 60 0 m 471 0 q 60 258 60 0 l 60 947 q 83 1000 60 988 q 151 1013 107 1013 q 221 1000 197 1013 q 244 947 244 988 l 244 258 q 299 182 244 214 q 476 150 354 150 l 1157 150 q 1200 131 1190 150 q 1210 76 1210 113 q 1200 19 1210 39 q 1157 0 1190 0 l 471 0 m 329 1104 q 290 1090 310 1094 q 225 1086 269 1086 q 176 1101 197 1086 q 156 1144 156 1115 q 197 1204 156 1182 l 479 1357 q 519 1371 499 1367 q 583 1375 539 1375 q 632 1360 611 1375 q 653 1315 653 1346 q 611 1257 653 1279 l 329 1104 z "},"ĺ":{"ha":307,"x_min":-25,"x_max":472,"o":"m 0 0 m 242 60 q 219 7 242 19 q 153 -6 197 -6 q 87 7 108 -6 q 65 60 65 19 l 65 947 q 87 1000 65 988 q 153 1013 108 1013 q 219 1000 197 1013 q 242 947 242 988 l 242 60 m 149 1104 q 109 1090 129 1094 q 44 1086 89 1086 q -4 1101 17 1086 q -25 1144 -25 1115 q 17 1204 -25 1182 l 299 1357 q 338 1371 318 1367 q 403 1375 358 1375 q 451 1360 431 1375 q 472 1315 472 1346 q 431 1257 472 1279 l 149 1104 z "},"Ļ":{"ha":1226,"x_min":60,"x_max":1210,"o":"m 60 0 m 471 0 q 60 258 60 0 l 60 947 q 83 1000 60 988 q 151 1013 107 1013 q 221 1000 197 1013 q 244 947 244 988 l 244 258 q 299 182 244 214 q 476 150 354 150 l 1157 150 q 1200 131 1190 150 q 1210 76 1210 113 q 1200 19 1210 39 q 1157 0 1190 0 l 471 0 m 693 -236 q 667 -280 688 -268 q 599 -292 646 -292 q 528 -281 550 -292 q 507 -242 507 -269 q 508 -222 507 -233 q 513 -197 510 -210 l 533 -75 q 560 -31 539 -43 q 629 -19 581 -19 q 698 -31 678 -19 q 718 -74 718 -42 q 717 -90 718 -81 q 715 -106 717 -99 l 693 -236 z "},"ļ":{"ha":307,"x_min":49,"x_max":260,"o":"m 49 0 m 242 60 q 219 7 242 19 q 153 -6 197 -6 q 87 7 108 -6 q 65 60 65 19 l 65 947 q 87 1000 65 988 q 153 1013 108 1013 q 219 1000 197 1013 q 242 947 242 988 l 242 60 m 235 -236 q 208 -280 229 -268 q 140 -292 188 -292 q 70 -281 92 -292 q 49 -242 49 -269 q 50 -222 49 -233 q 54 -197 51 -210 l 75 -75 q 101 -31 81 -43 q 171 -19 122 -19 q 240 -31 219 -19 q 260 -74 260 -42 q 259 -90 260 -81 q 257 -106 258 -99 l 235 -236 z "},"Ľ":{"ha":1226,"x_min":60,"x_max":1210,"o":"m 60 0 m 471 0 q 60 258 60 0 l 60 947 q 83 1000 60 988 q 151 1013 107 1013 q 221 1000 197 1013 q 244 947 244 988 l 244 258 q 299 182 244 214 q 476 150 354 150 l 1157 150 q 1200 131 1190 150 q 1210 76 1210 113 q 1200 19 1210 39 q 1157 0 1190 0 l 471 0 m 682 879 q 656 835 676 847 q 588 824 635 824 q 517 835 539 824 q 496 874 496 846 q 497 894 496 882 q 501 918 499 906 l 522 1040 q 549 1084 528 1072 q 618 1096 569 1096 q 687 1085 667 1096 q 707 1042 707 1074 q 706 1026 707 1035 q 704 1010 706 1017 l 682 879 z "},"ľ":{"ha":518,"x_min":65,"x_max":518,"o":"m 65 0 m 242 60 q 219 7 242 19 q 153 -6 197 -6 q 87 7 108 -6 q 65 60 65 19 l 65 947 q 87 1000 65 988 q 153 1013 108 1013 q 219 1000 197 1013 q 242 947 242 988 l 242 60 m 493 879 q 467 835 488 847 q 399 824 446 824 q 328 835 350 824 q 307 874 307 846 q 308 894 307 882 q 313 918 310 906 l 333 1040 q 360 1084 339 1072 q 429 1096 381 1096 q 498 1085 478 1096 q 518 1042 518 1074 q 517 1026 518 1035 q 515 1010 517 1017 l 493 879 z "},"Ŀ":{"ha":1226,"x_min":60,"x_max":1210,"o":"m 60 0 m 471 0 q 60 258 60 0 l 60 947 q 83 1000 60 988 q 151 1013 107 1013 q 221 1000 197 1013 q 244 947 244 988 l 244 258 q 299 182 244 214 q 476 150 354 150 l 1157 150 q 1200 131 1190 150 q 1210 76 1210 113 q 1200 19 1210 39 q 1157 0 1190 0 l 471 0 m 399 531 q 424 596 399 575 q 508 617 450 617 q 592 596 567 617 q 618 531 618 575 q 592 465 618 486 q 508 444 567 444 q 424 465 450 444 q 399 531 399 486 z "},"ŀ":{"ha":500,"x_min":65,"x_max":507,"o":"m 65 0 m 242 60 q 219 7 242 19 q 153 -6 197 -6 q 87 7 108 -6 q 65 60 65 19 l 65 947 q 87 1000 65 988 q 153 1013 108 1013 q 219 1000 197 1013 q 242 947 242 988 l 242 60 m 288 531 q 313 596 288 575 q 397 617 339 617 q 481 596 456 617 q 507 531 507 575 q 481 465 507 486 q 397 444 456 444 q 313 465 339 444 q 288 531 288 486 z "},"Ł":{"ha":1281,"x_min":4,"x_max":1264,"o":"m 114 654 l 114 947 q 138 1000 114 988 q 206 1013 161 1013 q 275 1000 251 1013 q 299 947 299 988 l 299 732 l 618 865 q 654 876 633 872 q 711 881 675 881 q 758 868 740 881 q 775 832 775 856 q 740 782 775 796 l 299 597 l 299 258 q 353 182 299 214 q 531 150 408 150 l 1211 150 q 1254 131 1244 150 q 1264 76 1264 113 q 1254 19 1264 39 q 1211 0 1244 0 l 525 0 q 114 258 114 0 l 114 528 q 92 525 103 525 q 67 525 82 525 q 22 538 39 525 q 4 574 4 550 q 39 624 4 610 l 114 654 z "},"ł":{"ha":614,"x_min":10,"x_max":604,"o":"m 218 690 l 218 947 q 240 1000 218 988 q 306 1013 261 1013 q 372 1000 350 1013 q 394 947 394 988 l 394 764 l 447 786 q 483 797 463 793 q 540 801 504 801 q 587 789 569 801 q 604 753 604 776 q 569 703 604 717 l 394 629 l 394 60 q 372 7 394 19 q 306 -6 350 -6 q 240 7 261 -6 q 218 60 218 19 l 218 556 l 167 535 q 130 524 151 528 q 72 519 108 519 q 27 532 44 519 q 10 568 10 544 q 44 618 10 604 l 218 690 z "},"Ń":{"ha":1385,"x_min":65,"x_max":1319,"o":"m 65 0 m 1224 -6 q 1192 -4 1204 -6 q 1168 3 1179 -3 q 1144 17 1157 8 q 1114 42 1132 26 l 250 769 l 250 60 q 226 7 250 19 q 157 -6 203 -6 q 89 7 113 -6 q 65 60 65 19 l 65 947 q 88 999 65 986 q 153 1013 110 1013 q 225 1001 199 1013 q 283 961 251 989 l 1135 236 l 1135 947 q 1158 1000 1135 988 q 1226 1013 1182 1013 q 1296 1000 1272 1013 q 1319 947 1319 988 l 1319 60 q 1296 7 1319 19 q 1224 -6 1272 -6 m 686 1104 q 647 1090 667 1094 q 582 1086 626 1086 q 533 1101 554 1086 q 513 1144 513 1115 q 554 1204 513 1182 l 836 1357 q 876 1371 856 1367 q 940 1375 896 1375 q 989 1360 968 1375 q 1010 1315 1010 1346 q 968 1257 1010 1279 l 686 1104 z "},"ń":{"ha":1208,"x_min":60,"x_max":1149,"o":"m 60 0 m 147 -6 q 81 7 103 -6 q 60 60 60 19 l 60 543 q 453 785 60 785 l 756 785 q 1149 543 1149 785 l 1149 60 q 1126 7 1149 19 q 1060 -6 1104 -6 q 994 7 1015 -6 q 972 60 972 19 l 972 543 q 919 615 972 586 q 750 644 867 644 l 458 644 q 289 615 342 644 q 236 543 236 586 l 236 60 q 214 7 236 19 q 147 -6 192 -6 m 599 882 q 559 868 579 872 q 494 864 539 864 q 446 878 467 864 q 425 922 425 893 q 467 982 425 960 l 749 1135 q 788 1149 768 1144 q 853 1153 808 1153 q 901 1138 881 1153 q 922 1093 922 1124 q 881 1035 922 1057 l 599 882 z "},"Ņ":{"ha":1385,"x_min":65,"x_max":1319,"o":"m 65 0 m 1224 -6 q 1192 -4 1204 -6 q 1168 3 1179 -3 q 1144 17 1157 8 q 1114 42 1132 26 l 250 769 l 250 60 q 226 7 250 19 q 157 -6 203 -6 q 89 7 113 -6 q 65 60 65 19 l 65 947 q 88 999 65 986 q 153 1013 110 1013 q 225 1001 199 1013 q 283 961 251 989 l 1135 236 l 1135 947 q 1158 1000 1135 988 q 1226 1013 1182 1013 q 1296 1000 1272 1013 q 1319 947 1319 988 l 1319 60 q 1296 7 1319 19 q 1224 -6 1272 -6 m 772 -236 q 746 -280 767 -268 q 678 -292 725 -292 q 608 -281 629 -292 q 586 -242 586 -269 q 588 -222 586 -233 q 592 -197 589 -210 l 613 -75 q 639 -31 618 -43 q 708 -19 660 -19 q 777 -31 757 -19 q 797 -74 797 -42 q 797 -90 797 -81 q 794 -106 796 -99 l 772 -236 z "},"ņ":{"ha":1208,"x_min":60,"x_max":1149,"o":"m 60 0 m 147 -6 q 81 7 103 -6 q 60 60 60 19 l 60 543 q 453 785 60 785 l 756 785 q 1149 543 1149 785 l 1149 60 q 1126 7 1149 19 q 1060 -6 1104 -6 q 994 7 1015 -6 q 972 60 972 19 l 972 543 q 919 615 972 586 q 750 644 867 644 l 458 644 q 289 615 342 644 q 236 543 236 586 l 236 60 q 214 7 236 19 q 147 -6 192 -6 m 685 -236 q 658 -280 679 -268 q 590 -292 638 -292 q 520 -281 542 -292 q 499 -242 499 -269 q 500 -222 499 -233 q 504 -197 501 -210 l 525 -75 q 551 -31 531 -43 q 621 -19 572 -19 q 690 -31 669 -19 q 710 -74 710 -42 q 709 -90 710 -81 q 707 -106 708 -99 l 685 -236 z "},"Ň":{"ha":1385,"x_min":65,"x_max":1319,"o":"m 65 0 m 1224 -6 q 1192 -4 1204 -6 q 1168 3 1179 -3 q 1144 17 1157 8 q 1114 42 1132 26 l 250 769 l 250 60 q 226 7 250 19 q 157 -6 203 -6 q 89 7 113 -6 q 65 60 65 19 l 65 947 q 88 999 65 986 q 153 1013 110 1013 q 225 1001 199 1013 q 283 961 251 989 l 1135 236 l 1135 947 q 1158 1000 1135 988 q 1226 1013 1182 1013 q 1296 1000 1272 1013 q 1319 947 1319 988 l 1319 60 q 1296 7 1319 19 q 1224 -6 1272 -6 m 779 1347 q 813 1369 792 1363 q 856 1375 835 1375 q 918 1362 892 1375 q 944 1326 944 1349 q 933 1300 944 1313 l 781 1119 q 746 1094 767 1103 q 692 1086 725 1086 q 638 1094 658 1086 q 603 1119 617 1103 l 450 1300 q 439 1326 439 1313 q 465 1362 439 1349 q 528 1375 492 1375 q 570 1369 549 1375 q 604 1347 592 1363 l 692 1240 l 779 1347 z "},"ň":{"ha":1208,"x_min":60,"x_max":1149,"o":"m 60 0 m 147 -6 q 81 7 103 -6 q 60 60 60 19 l 60 543 q 453 785 60 785 l 756 785 q 1149 543 1149 785 l 1149 60 q 1126 7 1149 19 q 1060 -6 1104 -6 q 994 7 1015 -6 q 972 60 972 19 l 972 543 q 919 615 972 586 q 750 644 867 644 l 458 644 q 289 615 342 644 q 236 543 236 586 l 236 60 q 214 7 236 19 q 147 -6 192 -6 m 692 1125 q 726 1147 704 1140 q 768 1153 747 1153 q 831 1140 804 1153 q 857 1104 857 1126 q 846 1078 857 1090 l 693 897 q 658 872 679 881 q 604 864 638 864 q 550 872 571 864 q 515 897 529 881 l 363 1078 q 351 1104 351 1090 q 378 1140 351 1126 q 440 1153 404 1153 q 483 1147 461 1153 q 517 1125 504 1140 l 604 1018 l 692 1125 z "},"Ŋ":{"ha":1385,"x_min":65,"x_max":1319,"o":"m 838 -228 q 797 -210 806 -228 q 788 -157 788 -192 q 797 -105 788 -122 q 838 -87 806 -87 l 951 -87 q 1094 -62 1054 -87 q 1135 13 1135 -36 l 1135 25 l 250 769 l 250 60 q 226 7 250 19 q 157 -6 203 -6 q 89 7 113 -6 q 65 60 65 19 l 65 947 q 88 999 65 986 q 153 1013 110 1013 q 225 1001 199 1013 q 283 961 251 989 l 1135 236 l 1135 947 q 1158 1000 1135 988 q 1226 1013 1182 1013 q 1296 1000 1272 1013 q 1319 947 1319 988 l 1319 13 q 1223 -168 1319 -108 q 951 -228 1126 -228 l 838 -228 z "},"ŋ":{"ha":1208,"x_min":60,"x_max":1149,"o":"m 675 -228 q 634 -210 643 -228 q 625 -157 625 -192 q 634 -105 625 -122 q 675 -87 643 -87 l 789 -87 q 932 -62 892 -87 q 972 13 972 -36 l 972 543 q 919 615 972 586 q 750 644 867 644 l 458 644 q 289 615 342 644 q 236 543 236 586 l 236 60 q 214 7 236 19 q 147 -6 192 -6 q 81 7 103 -6 q 60 60 60 19 l 60 543 q 453 785 60 785 l 756 785 q 1149 543 1149 785 l 1149 13 q 1056 -168 1149 -108 q 789 -228 964 -228 l 675 -228 z "},"Ō":{"ha":1332,"x_min":53,"x_max":1279,"o":"m 53 0 m 464 0 q 53 258 53 0 l 53 749 q 464 1007 53 1007 l 868 1007 q 1279 749 1279 1007 l 1279 258 q 868 0 1279 0 l 464 0 m 863 150 q 1040 182 985 150 q 1096 258 1096 214 l 1096 749 q 1040 826 1096 794 q 863 857 985 857 l 469 857 q 292 826 347 857 q 236 749 236 794 l 236 258 q 292 182 236 214 q 469 150 347 150 l 863 150 m 929 1261 q 966 1245 957 1261 q 975 1197 975 1229 q 966 1149 975 1165 q 929 1133 957 1133 l 403 1133 q 365 1149 374 1133 q 357 1197 357 1165 q 365 1245 357 1229 q 403 1261 374 1261 l 929 1261 z "},"ō":{"ha":1194,"x_min":53,"x_max":1142,"o":"m 53 0 m 53 543 q 446 785 53 785 l 749 785 q 1142 543 1142 785 l 1142 242 q 749 0 1142 0 l 446 0 q 53 242 53 0 l 53 543 m 965 543 q 913 615 965 586 q 743 644 860 644 l 451 644 q 282 615 335 644 q 229 543 229 586 l 229 242 q 282 170 229 200 q 451 140 335 140 l 743 140 q 913 170 860 140 q 965 242 965 200 l 965 543 m 860 1039 q 897 1023 888 1039 q 906 975 906 1007 q 897 927 906 943 q 860 911 888 911 l 333 911 q 296 927 304 911 q 288 975 288 943 q 296 1023 288 1007 q 333 1039 304 1039 l 860 1039 z "},"Ŏ":{"ha":1332,"x_min":53,"x_max":1279,"o":"m 53 0 m 464 0 q 53 258 53 0 l 53 749 q 464 1007 53 1007 l 868 1007 q 1279 749 1279 1007 l 1279 258 q 868 0 1279 0 l 464 0 m 863 150 q 1040 182 985 150 q 1096 258 1096 214 l 1096 749 q 1040 826 1096 794 q 863 857 985 857 l 469 857 q 292 826 347 857 q 236 749 236 794 l 236 258 q 292 182 236 214 q 469 150 347 150 l 863 150 m 665 1086 q 549 1101 606 1086 q 447 1146 492 1117 q 374 1217 401 1175 q 347 1311 347 1258 q 365 1361 347 1347 q 435 1375 383 1375 q 487 1368 465 1375 q 519 1338 508 1361 q 541 1295 529 1317 q 569 1256 553 1274 q 609 1226 586 1238 q 665 1215 632 1215 q 722 1226 699 1215 q 761 1256 744 1238 q 790 1295 778 1274 q 811 1338 801 1317 q 844 1368 822 1361 q 896 1375 865 1375 q 965 1361 947 1375 q 983 1311 983 1347 q 956 1217 983 1258 q 883 1146 928 1175 q 782 1101 839 1117 q 665 1086 725 1086 z "},"ŏ":{"ha":1194,"x_min":53,"x_max":1142,"o":"m 53 0 m 53 543 q 446 785 53 785 l 749 785 q 1142 543 1142 785 l 1142 242 q 749 0 1142 0 l 446 0 q 53 242 53 0 l 53 543 m 965 543 q 913 615 965 586 q 743 644 860 644 l 451 644 q 282 615 335 644 q 229 543 229 586 l 229 242 q 282 170 229 200 q 451 140 335 140 l 743 140 q 913 170 860 140 q 965 242 965 200 l 965 543 m 597 864 q 481 879 538 864 q 378 924 424 894 q 306 994 333 953 q 279 1089 279 1036 q 297 1139 279 1125 q 367 1153 315 1153 q 419 1146 397 1153 q 451 1115 440 1139 q 473 1073 461 1094 q 501 1033 485 1051 q 541 1004 518 1015 q 597 993 564 993 q 653 1004 631 993 q 693 1033 676 1015 q 722 1073 710 1051 q 743 1115 733 1094 q 776 1146 754 1139 q 828 1153 797 1153 q 897 1139 879 1153 q 915 1089 915 1125 q 888 994 915 1036 q 815 924 860 953 q 714 879 771 894 q 597 864 657 864 z "},"Ő":{"ha":1332,"x_min":53,"x_max":1279,"o":"m 53 0 m 464 0 q 53 258 53 0 l 53 749 q 464 1007 53 1007 l 868 1007 q 1279 749 1279 1007 l 1279 258 q 868 0 1279 0 l 464 0 m 863 150 q 1040 182 985 150 q 1096 258 1096 214 l 1096 749 q 1040 826 1096 794 q 863 857 985 857 l 469 857 q 292 826 347 857 q 236 749 236 794 l 236 258 q 292 182 236 214 q 469 150 347 150 l 863 150 m 844 1104 q 775 1086 817 1086 q 724 1101 739 1086 q 708 1143 708 1115 q 742 1204 708 1181 l 961 1357 q 997 1371 976 1367 q 1033 1375 1017 1375 q 1097 1317 1097 1375 q 1065 1257 1097 1279 l 844 1104 m 508 1104 q 477 1090 493 1093 q 426 1086 461 1086 q 388 1101 404 1086 q 372 1144 372 1115 q 404 1204 372 1182 l 625 1357 q 694 1375 651 1375 q 743 1363 725 1375 q 761 1315 761 1350 q 754 1283 761 1296 q 728 1257 747 1269 l 508 1104 z "},"ő":{"ha":1194,"x_min":53,"x_max":1142,"o":"m 53 0 m 53 543 q 446 785 53 785 l 749 785 q 1142 543 1142 785 l 1142 242 q 749 0 1142 0 l 446 0 q 53 242 53 0 l 53 543 m 965 543 q 913 615 965 586 q 743 644 860 644 l 451 644 q 282 615 335 644 q 229 543 229 586 l 229 242 q 282 170 229 200 q 451 140 335 140 l 743 140 q 913 170 860 140 q 965 242 965 200 l 965 543 m 776 882 q 707 864 749 864 q 656 878 671 864 q 640 921 640 893 q 674 982 640 958 l 893 1135 q 928 1149 908 1144 q 965 1153 949 1153 q 1029 1094 1029 1153 q 997 1035 1029 1057 l 776 882 m 440 882 q 409 867 425 871 q 358 864 393 864 q 320 878 336 864 q 304 922 304 893 q 336 982 304 960 l 557 1135 q 626 1153 583 1153 q 675 1140 657 1153 q 693 1093 693 1128 q 686 1060 693 1074 q 660 1035 679 1047 l 440 882 z "},"Œ":{"ha":2207,"x_min":53,"x_max":2160,"o":"m 1460 0 q 1140 72 1242 0 q 821 0 1039 0 l 464 0 q 53 258 53 0 l 53 749 q 464 1007 53 1007 l 821 1007 q 1140 935 1039 1007 q 1460 1007 1242 1007 l 1653 1007 q 1695 988 1685 1007 q 1706 932 1706 969 q 1695 876 1706 894 q 1653 857 1685 857 l 1465 857 q 1289 827 1346 857 q 1232 753 1232 797 l 1232 571 l 2106 571 q 2149 552 2139 571 q 2160 496 2160 533 q 2149 440 2160 458 q 2106 421 2139 421 l 1232 421 l 1232 258 q 1288 182 1232 214 q 1465 150 1343 150 l 2101 150 q 2145 131 2135 150 q 2156 75 2156 113 q 2145 19 2156 39 q 2101 0 2135 0 l 1460 0 m 815 150 q 993 182 938 150 q 1049 258 1049 214 l 1049 749 q 993 826 1049 794 q 815 857 938 857 l 469 857 q 292 826 347 857 q 236 749 236 794 l 236 258 q 292 182 236 214 q 469 150 347 150 l 815 150 z "},"œ":{"ha":2114,"x_min":53,"x_max":2072,"o":"m 1142 313 l 1142 242 q 1194 170 1142 200 q 1364 140 1247 140 l 1524 140 q 1565 123 1556 140 q 1574 71 1574 106 q 1565 18 1574 36 q 1524 0 1556 0 l 1358 0 q 1053 67 1150 0 q 749 0 954 0 l 446 0 q 53 242 53 0 l 53 543 q 446 785 53 785 l 749 785 q 1053 718 954 785 q 1358 785 1150 785 l 1679 785 q 1980 725 1888 785 q 2072 543 2072 665 l 2072 383 q 2057 328 2072 343 q 1989 313 2042 313 l 1142 313 m 965 543 q 913 615 965 586 q 743 644 860 644 l 451 644 q 282 615 335 644 q 229 543 229 586 l 229 242 q 282 170 229 200 q 451 140 335 140 l 743 140 q 913 170 860 140 q 965 242 965 200 l 965 543 m 1142 450 l 1896 450 l 1896 543 q 1844 618 1896 592 q 1674 644 1792 644 l 1364 644 q 1194 615 1247 644 q 1142 543 1142 586 l 1142 450 z "},"Ŕ":{"ha":1368,"x_min":65,"x_max":1319,"o":"m 65 0 m 65 943 q 131 1007 65 1007 l 911 1007 q 1081 991 1006 1007 q 1210 946 1157 975 q 1291 875 1263 917 q 1319 782 1319 833 l 1319 607 q 1291 514 1319 556 q 1210 443 1263 472 q 1081 398 1157 414 q 911 382 1006 382 l 856 382 q 749 382 794 382 q 669 383 704 382 q 607 385 635 383 q 553 388 579 386 l 553 385 q 601 367 575 376 q 664 344 626 358 q 755 310 701 331 q 888 257 808 289 l 1222 122 q 1267 60 1267 104 q 1242 8 1267 22 q 1172 -6 1218 -6 q 1148 -5 1163 -6 q 1118 -2 1133 -4 q 1088 3 1103 0 q 1063 14 1074 7 l 250 365 l 250 60 q 226 7 250 19 q 157 -6 203 -6 q 89 7 113 -6 q 65 60 65 19 l 65 943 m 250 857 l 250 529 l 894 529 q 1012 536 965 529 q 1086 555 1058 543 q 1125 583 1114 567 q 1136 618 1136 599 l 1136 768 q 1125 803 1136 786 q 1086 831 1114 819 q 1012 850 1058 843 q 894 857 965 857 l 250 857 m 678 1104 q 638 1090 658 1094 q 574 1086 618 1086 q 525 1101 546 1086 q 504 1144 504 1115 q 546 1204 504 1182 l 828 1357 q 867 1371 847 1367 q 932 1375 888 1375 q 981 1360 960 1375 q 1001 1315 1001 1346 q 960 1257 1001 1279 l 678 1104 z "},"ŕ":{"ha":608,"x_min":60,"x_max":678,"o":"m 60 0 m 528 785 q 569 767 560 785 q 578 714 578 749 q 569 662 578 679 q 528 644 560 644 l 419 644 q 276 618 317 644 q 236 544 236 592 l 236 60 q 214 7 236 19 q 147 -6 192 -6 q 81 7 103 -6 q 60 60 60 19 l 60 544 q 152 725 60 665 q 419 785 244 785 l 528 785 m 354 882 q 315 868 335 872 q 250 864 294 864 q 201 878 222 864 q 181 922 181 893 q 222 982 181 960 l 504 1135 q 544 1149 524 1144 q 608 1153 564 1153 q 657 1138 636 1153 q 678 1093 678 1124 q 636 1035 678 1057 l 354 882 z "},"Ŗ":{"ha":1368,"x_min":65,"x_max":1319,"o":"m 65 0 m 65 943 q 131 1007 65 1007 l 911 1007 q 1081 991 1006 1007 q 1210 946 1157 975 q 1291 875 1263 917 q 1319 782 1319 833 l 1319 607 q 1291 514 1319 556 q 1210 443 1263 472 q 1081 398 1157 414 q 911 382 1006 382 l 856 382 q 749 382 794 382 q 669 383 704 382 q 607 385 635 383 q 553 388 579 386 l 553 385 q 601 367 575 376 q 664 344 626 358 q 755 310 701 331 q 888 257 808 289 l 1222 122 q 1267 60 1267 104 q 1242 8 1267 22 q 1172 -6 1218 -6 q 1148 -5 1163 -6 q 1118 -2 1133 -4 q 1088 3 1103 0 q 1063 14 1074 7 l 250 365 l 250 60 q 226 7 250 19 q 157 -6 203 -6 q 89 7 113 -6 q 65 60 65 19 l 65 943 m 250 857 l 250 529 l 894 529 q 1012 536 965 529 q 1086 555 1058 543 q 1125 583 1114 567 q 1136 618 1136 599 l 1136 768 q 1125 803 1136 786 q 1086 831 1114 819 q 1012 850 1058 843 q 894 857 965 857 l 250 857 m 694 -236 q 668 -280 689 -268 q 600 -292 647 -292 q 530 -281 551 -292 q 508 -242 508 -269 q 510 -222 508 -233 q 514 -197 511 -210 l 535 -75 q 561 -31 540 -43 q 631 -19 582 -19 q 699 -31 679 -19 q 719 -74 719 -42 q 719 -90 719 -81 q 717 -106 718 -99 l 694 -236 z "},"ŗ":{"ha":608,"x_min":15,"x_max":578,"o":"m 15 0 m 528 785 q 569 767 560 785 q 578 714 578 749 q 569 662 578 679 q 528 644 560 644 l 419 644 q 276 618 317 644 q 236 544 236 592 l 236 60 q 214 7 236 19 q 147 -6 192 -6 q 81 7 103 -6 q 60 60 60 19 l 60 544 q 152 725 60 665 q 419 785 244 785 l 528 785 m 201 -236 q 175 -280 196 -268 q 107 -292 154 -292 q 37 -281 58 -292 q 15 -242 15 -269 q 17 -222 15 -233 q 21 -197 18 -210 l 42 -75 q 68 -31 47 -43 q 138 -19 89 -19 q 206 -31 186 -19 q 226 -74 226 -42 q 226 -90 226 -81 q 224 -106 225 -99 l 201 -236 z "},"Ř":{"ha":1368,"x_min":65,"x_max":1319,"o":"m 65 0 m 65 943 q 131 1007 65 1007 l 911 1007 q 1081 991 1006 1007 q 1210 946 1157 975 q 1291 875 1263 917 q 1319 782 1319 833 l 1319 607 q 1291 514 1319 556 q 1210 443 1263 472 q 1081 398 1157 414 q 911 382 1006 382 l 856 382 q 749 382 794 382 q 669 383 704 382 q 607 385 635 383 q 553 388 579 386 l 553 385 q 601 367 575 376 q 664 344 626 358 q 755 310 701 331 q 888 257 808 289 l 1222 122 q 1267 60 1267 104 q 1242 8 1267 22 q 1172 -6 1218 -6 q 1148 -5 1163 -6 q 1118 -2 1133 -4 q 1088 3 1103 0 q 1063 14 1074 7 l 250 365 l 250 60 q 226 7 250 19 q 157 -6 203 -6 q 89 7 113 -6 q 65 60 65 19 l 65 943 m 250 857 l 250 529 l 894 529 q 1012 536 965 529 q 1086 555 1058 543 q 1125 583 1114 567 q 1136 618 1136 599 l 1136 768 q 1125 803 1136 786 q 1086 831 1114 819 q 1012 850 1058 843 q 894 857 965 857 l 250 857 m 771 1347 q 805 1369 783 1363 q 847 1375 826 1375 q 910 1362 883 1375 q 936 1326 936 1349 q 925 1300 936 1313 l 772 1119 q 738 1094 758 1103 q 683 1086 717 1086 q 629 1094 650 1086 q 594 1119 608 1103 l 442 1300 q 431 1326 431 1313 q 457 1362 431 1349 q 519 1375 483 1375 q 562 1369 540 1375 q 596 1347 583 1363 l 683 1240 l 771 1347 z "},"ř":{"ha":608,"x_min":60,"x_max":613,"o":"m 60 0 m 528 785 q 569 767 560 785 q 578 714 578 749 q 569 662 578 679 q 528 644 560 644 l 419 644 q 276 618 317 644 q 236 544 236 592 l 236 60 q 214 7 236 19 q 147 -6 192 -6 q 81 7 103 -6 q 60 60 60 19 l 60 544 q 152 725 60 665 q 419 785 244 785 l 528 785 m 447 1125 q 481 1147 460 1140 q 524 1153 503 1153 q 586 1140 560 1153 q 613 1104 613 1126 q 601 1078 613 1090 l 449 897 q 414 872 435 881 q 360 864 393 864 q 306 872 326 864 q 271 897 285 881 l 118 1078 q 107 1104 107 1090 q 133 1140 107 1126 q 196 1153 160 1153 q 238 1147 217 1153 q 272 1125 260 1140 l 360 1018 l 447 1125 z "},"Ś":{"ha":1232,"x_min":47,"x_max":1193,"o":"m 47 0 m 458 436 q 47 694 47 436 l 47 749 q 458 1007 47 1007 l 597 1007 q 641 988 631 1007 q 651 932 651 969 q 641 876 651 894 q 597 857 631 857 l 454 857 q 281 826 332 857 q 231 749 231 794 l 231 694 q 281 618 231 650 q 454 586 332 586 l 782 586 q 1193 328 1193 586 l 1193 258 q 782 0 1193 0 l 101 0 q 58 19 68 0 q 47 75 47 38 q 58 131 47 113 q 101 150 68 150 l 786 150 q 959 181 908 150 q 1010 258 1010 213 l 1010 328 q 959 404 1010 372 q 786 436 908 436 l 458 436 m 540 1104 q 501 1090 521 1094 q 436 1086 481 1086 q 388 1101 408 1086 q 367 1144 367 1115 q 408 1204 367 1182 l 690 1357 q 730 1371 710 1367 q 794 1375 750 1375 q 843 1360 822 1375 q 864 1315 864 1346 q 822 1257 864 1279 l 540 1104 z "},"ś":{"ha":1096,"x_min":47,"x_max":1057,"o":"m 47 0 m 47 576 q 131 729 47 674 q 378 785 214 785 l 568 785 q 610 767 600 785 q 619 714 619 750 q 610 662 619 679 q 568 644 600 644 l 376 644 q 260 626 297 644 q 222 575 222 607 l 222 539 q 261 488 222 507 q 383 468 300 468 l 690 468 q 971 413 885 468 q 1057 257 1057 357 l 1057 213 q 1035 123 1057 163 q 965 56 1013 83 q 843 15 918 29 q 664 0 768 0 l 101 0 q 60 17 69 0 q 50 71 50 35 q 60 123 50 106 q 101 140 69 140 l 690 140 q 783 145 746 140 q 841 159 819 150 q 871 181 863 168 q 879 210 879 193 l 879 260 q 871 289 879 276 q 842 311 863 301 q 785 326 821 321 q 696 331 750 331 l 385 331 q 132 385 217 331 q 47 536 47 440 l 47 576 m 472 882 q 433 868 453 872 q 368 864 413 864 q 319 878 340 864 q 299 922 299 893 q 340 982 299 960 l 622 1135 q 662 1149 642 1144 q 726 1153 682 1153 q 775 1138 754 1153 q 796 1093 796 1124 q 754 1035 796 1057 l 472 882 z "},"Ş":{"ha":1232,"x_min":47,"x_max":1193,"o":"m 47 0 m 458 436 q 47 694 47 436 l 47 749 q 458 1007 47 1007 l 597 1007 q 641 988 631 1007 q 651 932 651 969 q 641 876 651 894 q 597 857 631 857 l 454 857 q 281 826 332 857 q 231 749 231 794 l 231 694 q 281 618 231 650 q 454 586 332 586 l 782 586 q 1193 328 1193 586 l 1193 258 q 782 0 1193 0 l 101 0 q 58 19 68 0 q 47 75 47 38 q 58 131 47 113 q 101 150 68 150 l 786 150 q 959 181 908 150 q 1010 258 1010 213 l 1010 328 q 959 404 1010 372 q 786 436 908 436 l 458 436 m 696 -236 q 669 -280 690 -268 q 601 -292 649 -292 q 531 -281 553 -292 q 510 -242 510 -269 q 511 -222 510 -233 q 515 -197 513 -210 l 536 -75 q 563 -31 542 -43 q 632 -19 583 -19 q 701 -31 681 -19 q 721 -74 721 -42 q 720 -90 721 -81 q 718 -106 719 -99 l 696 -236 z "},"ş":{"ha":1096,"x_min":47,"x_max":1057,"o":"m 47 0 m 47 576 q 131 729 47 674 q 378 785 214 785 l 568 785 q 610 767 600 785 q 619 714 619 750 q 610 662 619 679 q 568 644 600 644 l 376 644 q 260 626 297 644 q 222 575 222 607 l 222 539 q 261 488 222 507 q 383 468 300 468 l 690 468 q 971 413 885 468 q 1057 257 1057 357 l 1057 213 q 1035 123 1057 163 q 965 56 1013 83 q 843 15 918 29 q 664 0 768 0 l 101 0 q 60 17 69 0 q 50 71 50 35 q 60 123 50 106 q 101 140 69 140 l 690 140 q 783 145 746 140 q 841 159 819 150 q 871 181 863 168 q 879 210 879 193 l 879 260 q 871 289 879 276 q 842 311 863 301 q 785 326 821 321 q 696 331 750 331 l 385 331 q 132 385 217 331 q 47 536 47 440 l 47 576 m 628 -236 q 601 -280 622 -268 q 533 -292 581 -292 q 463 -281 485 -292 q 442 -242 442 -269 q 443 -222 442 -233 q 447 -197 444 -210 l 468 -75 q 494 -31 474 -43 q 564 -19 515 -19 q 633 -31 613 -19 q 653 -74 653 -42 q 652 -90 653 -81 q 650 -106 651 -99 l 628 -236 z "},"Š":{"ha":1232,"x_min":47,"x_max":1193,"o":"m 47 0 m 458 436 q 47 694 47 436 l 47 749 q 458 1007 47 1007 l 597 1007 q 641 988 631 1007 q 651 932 651 969 q 641 876 651 894 q 597 857 631 857 l 454 857 q 281 826 332 857 q 231 749 231 794 l 231 694 q 281 618 231 650 q 454 586 332 586 l 782 586 q 1193 328 1193 586 l 1193 258 q 782 0 1193 0 l 101 0 q 58 19 68 0 q 47 75 47 38 q 58 131 47 113 q 101 150 68 150 l 786 150 q 959 181 908 150 q 1010 258 1010 213 l 1010 328 q 959 404 1010 372 q 786 436 908 436 l 458 436 m 633 1347 q 667 1369 646 1363 q 710 1375 689 1375 q 772 1362 746 1375 q 799 1326 799 1349 q 788 1300 799 1313 l 635 1119 q 600 1094 621 1103 q 546 1086 579 1086 q 492 1094 513 1086 q 457 1119 471 1103 l 304 1300 q 293 1326 293 1313 q 319 1362 293 1349 q 382 1375 346 1375 q 424 1369 403 1375 q 458 1347 446 1363 l 546 1240 l 633 1347 z "},"š":{"ha":1096,"x_min":47,"x_max":1057,"o":"m 47 0 m 47 576 q 131 729 47 674 q 378 785 214 785 l 568 785 q 610 767 600 785 q 619 714 619 750 q 610 662 619 679 q 568 644 600 644 l 376 644 q 260 626 297 644 q 222 575 222 607 l 222 539 q 261 488 222 507 q 383 468 300 468 l 690 468 q 971 413 885 468 q 1057 257 1057 357 l 1057 213 q 1035 123 1057 163 q 965 56 1013 83 q 843 15 918 29 q 664 0 768 0 l 101 0 q 60 17 69 0 q 50 71 50 35 q 60 123 50 106 q 101 140 69 140 l 690 140 q 783 145 746 140 q 841 159 819 150 q 871 181 863 168 q 879 210 879 193 l 879 260 q 871 289 879 276 q 842 311 863 301 q 785 326 821 321 q 696 331 750 331 l 385 331 q 132 385 217 331 q 47 536 47 440 l 47 576 m 565 1125 q 599 1147 578 1140 q 642 1153 621 1153 q 704 1140 678 1153 q 731 1104 731 1126 q 719 1078 731 1090 l 567 897 q 532 872 553 881 q 478 864 511 864 q 424 872 444 864 q 389 897 403 881 l 236 1078 q 225 1104 225 1090 q 251 1140 225 1126 q 314 1153 278 1153 q 356 1147 335 1153 q 390 1125 378 1140 l 478 1018 l 565 1125 z "},"Ţ":{"ha":1164,"x_min":17,"x_max":1147,"o":"m 17 0 m 674 857 l 674 60 q 650 7 674 19 q 581 -6 626 -6 q 513 7 536 -6 q 489 60 489 19 l 489 857 l 71 857 q 27 876 38 857 q 17 932 17 894 q 27 988 17 969 q 71 1007 38 1007 l 1093 1007 q 1137 988 1126 1007 q 1147 932 1147 969 q 1137 876 1147 894 q 1093 857 1126 857 l 674 857 m 635 -236 q 608 -280 629 -268 q 540 -292 588 -292 q 470 -281 492 -292 q 449 -242 449 -269 q 450 -222 449 -233 q 454 -197 451 -210 l 475 -75 q 501 -31 481 -43 q 571 -19 522 -19 q 640 -31 619 -19 q 660 -74 660 -42 q 659 -90 660 -81 q 657 -106 658 -99 l 635 -236 z "},"ţ":{"ha":682,"x_min":17,"x_max":665,"o":"m 17 0 m 146 785 l 146 947 q 167 1000 146 988 q 233 1013 189 1013 q 300 1000 278 1013 q 322 947 322 988 l 322 785 l 615 785 q 656 767 647 785 q 665 714 665 749 q 656 662 665 679 q 615 644 647 644 l 322 644 l 322 60 q 300 7 322 19 q 233 -6 278 -6 q 167 7 189 -6 q 146 60 146 19 l 146 644 l 67 644 q 26 662 35 644 q 17 714 17 679 q 26 767 17 749 q 67 785 35 785 l 146 785 m 289 -236 q 263 -280 283 -268 q 194 -292 242 -292 q 124 -281 146 -292 q 103 -242 103 -269 q 104 -222 103 -233 q 108 -197 106 -210 l 129 -75 q 156 -31 135 -43 q 225 -19 176 -19 q 294 -31 274 -19 q 314 -74 314 -42 q 313 -90 314 -81 q 311 -106 313 -99 l 289 -236 z "},"Ť":{"ha":1164,"x_min":17,"x_max":1147,"o":"m 17 0 m 674 857 l 674 60 q 650 7 674 19 q 581 -6 626 -6 q 513 7 536 -6 q 489 60 489 19 l 489 857 l 71 857 q 27 876 38 857 q 17 932 17 894 q 27 988 17 969 q 71 1007 38 1007 l 1093 1007 q 1137 988 1126 1007 q 1147 932 1147 969 q 1137 876 1147 894 q 1093 857 1126 857 l 674 857 m 669 1347 q 703 1369 682 1363 q 746 1375 725 1375 q 808 1362 782 1375 q 835 1326 835 1349 q 824 1300 835 1313 l 671 1119 q 636 1094 657 1103 q 582 1086 615 1086 q 528 1094 549 1086 q 493 1119 507 1103 l 340 1300 q 329 1326 329 1313 q 356 1362 329 1349 q 418 1375 382 1375 q 460 1369 439 1375 q 494 1347 482 1363 l 582 1240 l 669 1347 z "},"ť":{"ha":763,"x_min":17,"x_max":763,"o":"m 17 0 m 146 785 l 146 947 q 167 1000 146 988 q 233 1013 189 1013 q 300 1000 278 1013 q 322 947 322 988 l 322 785 l 615 785 q 656 767 647 785 q 665 714 665 749 q 656 662 665 679 q 615 644 647 644 l 322 644 l 322 60 q 300 7 322 19 q 233 -6 278 -6 q 167 7 189 -6 q 146 60 146 19 l 146 644 l 67 644 q 26 662 35 644 q 17 714 17 679 q 26 767 17 749 q 67 785 35 785 l 146 785 m 738 879 q 711 835 732 847 q 643 824 690 824 q 573 835 594 824 q 551 874 551 846 q 553 894 551 882 q 557 918 554 906 l 578 1040 q 604 1084 583 1072 q 674 1096 625 1096 q 742 1085 722 1096 q 763 1042 763 1074 q 762 1026 763 1035 q 760 1010 761 1017 l 738 879 z "},"Ŧ":{"ha":1164,"x_min":17,"x_max":1147,"o":"m 489 704 l 489 857 l 71 857 q 27 876 38 857 q 17 932 17 894 q 27 988 17 969 q 71 1007 38 1007 l 1093 1007 q 1137 988 1126 1007 q 1147 932 1147 969 q 1137 876 1147 894 q 1093 857 1126 857 l 674 857 l 674 704 l 843 704 q 884 686 875 704 q 893 633 893 668 q 884 581 893 599 q 843 564 875 564 l 674 564 l 674 60 q 650 7 674 19 q 581 -6 626 -6 q 513 7 536 -6 q 489 60 489 19 l 489 564 l 321 564 q 280 581 289 564 q 271 633 271 599 q 280 686 271 668 q 321 704 289 704 l 489 704 z "},"ŧ":{"ha":682,"x_min":17,"x_max":665,"o":"m 146 544 l 146 644 l 67 644 q 26 662 35 644 q 17 714 17 679 q 26 767 17 749 q 67 785 35 785 l 146 785 l 146 947 q 167 1000 146 988 q 233 1013 189 1013 q 300 1000 278 1013 q 322 947 322 988 l 322 785 l 615 785 q 656 767 647 785 q 665 714 665 749 q 656 662 665 679 q 615 644 647 644 l 322 644 l 322 544 l 615 544 q 656 526 647 544 q 665 474 665 508 q 656 422 665 439 q 615 404 647 404 l 322 404 l 322 60 q 300 7 322 19 q 233 -6 278 -6 q 167 7 189 -6 q 146 60 146 19 l 146 404 l 67 404 q 26 422 35 404 q 17 474 17 439 q 26 526 17 508 q 67 544 35 544 l 146 544 z "},"Ũ":{"ha":1369,"x_min":60,"x_max":1310,"o":"m 60 0 m 471 0 q 60 258 60 0 l 60 947 q 83 1000 60 988 q 151 1013 107 1013 q 221 1000 197 1013 q 244 947 244 988 l 244 258 q 299 182 244 214 q 476 150 354 150 l 893 150 q 1070 182 1015 150 q 1125 258 1125 214 l 1125 947 q 1149 1000 1125 988 q 1218 1013 1172 1013 q 1286 1000 1263 1013 q 1310 947 1310 988 l 1310 258 q 899 0 1310 0 l 471 0 m 947 1261 q 984 1245 975 1261 q 993 1197 993 1229 q 984 1149 993 1165 q 947 1133 975 1133 l 421 1133 q 383 1149 392 1133 q 375 1197 375 1165 q 383 1245 375 1229 q 421 1261 392 1261 l 947 1261 z "},"ũ":{"ha":1238,"x_min":60,"x_max":1178,"o":"m 60 0 m 1090 790 q 1156 778 1135 790 q 1178 725 1178 765 l 1178 242 q 785 0 1178 0 l 453 0 q 60 242 60 0 l 60 725 q 82 778 60 765 q 149 790 104 790 q 215 778 193 790 q 236 725 236 765 l 236 242 q 289 169 236 199 q 458 140 342 140 l 779 140 q 949 169 896 140 q 1001 242 1001 199 l 1001 725 q 1024 778 1001 765 q 1090 790 1046 790 m 882 1039 q 919 1023 910 1039 q 928 975 928 1007 q 919 927 928 943 q 882 911 910 911 l 356 911 q 318 927 326 911 q 310 975 310 943 q 318 1023 310 1007 q 356 1039 326 1039 l 882 1039 z "},"Ū":{"ha":1369,"x_min":60,"x_max":1310,"o":"m 60 0 m 471 0 q 60 258 60 0 l 60 947 q 83 1000 60 988 q 151 1013 107 1013 q 221 1000 197 1013 q 244 947 244 988 l 244 258 q 299 182 244 214 q 476 150 354 150 l 893 150 q 1070 182 1015 150 q 1125 258 1125 214 l 1125 947 q 1149 1000 1125 988 q 1218 1013 1172 1013 q 1286 1000 1263 1013 q 1310 947 1310 988 l 1310 258 q 899 0 1310 0 l 471 0 m 947 1261 q 984 1245 975 1261 q 993 1197 993 1229 q 984 1149 993 1165 q 947 1133 975 1133 l 421 1133 q 383 1149 392 1133 q 375 1197 375 1165 q 383 1245 375 1229 q 421 1261 392 1261 l 947 1261 z "},"ū":{"ha":1238,"x_min":60,"x_max":1178,"o":"m 60 0 m 1090 790 q 1156 778 1135 790 q 1178 725 1178 765 l 1178 242 q 785 0 1178 0 l 453 0 q 60 242 60 0 l 60 725 q 82 778 60 765 q 149 790 104 790 q 215 778 193 790 q 236 725 236 765 l 236 242 q 289 169 236 199 q 458 140 342 140 l 779 140 q 949 169 896 140 q 1001 242 1001 199 l 1001 725 q 1024 778 1001 765 q 1090 790 1046 790 m 882 1039 q 919 1023 910 1039 q 928 975 928 1007 q 919 927 928 943 q 882 911 910 911 l 356 911 q 318 927 326 911 q 310 975 310 943 q 318 1023 310 1007 q 356 1039 326 1039 l 882 1039 z "},"Ŭ":{"ha":1369,"x_min":60,"x_max":1310,"o":"m 60 0 m 471 0 q 60 258 60 0 l 60 947 q 83 1000 60 988 q 151 1013 107 1013 q 221 1000 197 1013 q 244 947 244 988 l 244 258 q 299 182 244 214 q 476 150 354 150 l 893 150 q 1070 182 1015 150 q 1125 258 1125 214 l 1125 947 q 1149 1000 1125 988 q 1218 1013 1172 1013 q 1286 1000 1263 1013 q 1310 947 1310 988 l 1310 258 q 899 0 1310 0 l 471 0 m 685 1086 q 568 1101 625 1086 q 466 1146 511 1117 q 394 1217 421 1175 q 367 1311 367 1258 q 385 1361 367 1347 q 454 1375 403 1375 q 506 1368 485 1375 q 539 1338 528 1361 q 560 1295 549 1317 q 589 1256 572 1274 q 628 1226 606 1238 q 685 1215 651 1215 q 741 1226 718 1215 q 781 1256 764 1238 q 809 1295 797 1274 q 831 1338 821 1317 q 863 1368 842 1361 q 915 1375 885 1375 q 985 1361 967 1375 q 1003 1311 1003 1347 q 975 1217 1003 1258 q 903 1146 947 1175 q 801 1101 858 1117 q 685 1086 744 1086 z "},"ŭ":{"ha":1238,"x_min":60,"x_max":1178,"o":"m 60 0 m 1090 790 q 1156 778 1135 790 q 1178 725 1178 765 l 1178 242 q 785 0 1178 0 l 453 0 q 60 242 60 0 l 60 725 q 82 778 60 765 q 149 790 104 790 q 215 778 193 790 q 236 725 236 765 l 236 242 q 289 169 236 199 q 458 140 342 140 l 779 140 q 949 169 896 140 q 1001 242 1001 199 l 1001 725 q 1024 778 1001 765 q 1090 790 1046 790 m 618 864 q 501 879 558 864 q 399 924 444 894 q 327 994 354 953 q 300 1089 300 1036 q 318 1139 300 1125 q 388 1153 336 1153 q 440 1146 418 1153 q 472 1115 461 1139 q 494 1073 482 1094 q 522 1033 506 1051 q 562 1004 539 1015 q 618 993 585 993 q 674 1004 651 993 q 714 1033 697 1015 q 742 1073 731 1051 q 764 1115 754 1094 q 797 1146 775 1139 q 849 1153 818 1153 q 918 1139 900 1153 q 936 1089 936 1125 q 908 994 936 1036 q 836 924 881 953 q 735 879 792 894 q 618 864 678 864 z "},"Ů":{"ha":1369,"x_min":60,"x_max":1310,"o":"m 60 0 m 471 0 q 60 258 60 0 l 60 947 q 83 1000 60 988 q 151 1013 107 1013 q 221 1000 197 1013 q 244 947 244 988 l 244 258 q 299 182 244 214 q 476 150 354 150 l 893 150 q 1070 182 1015 150 q 1125 258 1125 214 l 1125 947 q 1149 1000 1125 988 q 1218 1013 1172 1013 q 1286 1000 1263 1013 q 1310 947 1310 988 l 1310 258 q 899 0 1310 0 l 471 0 m 871 1183 q 862 1112 871 1139 q 833 1069 853 1085 q 783 1047 814 1053 q 707 1042 751 1042 l 663 1042 q 587 1047 618 1042 q 536 1069 556 1053 q 508 1112 517 1085 q 499 1183 499 1139 l 499 1233 q 508 1304 499 1276 q 536 1348 517 1332 q 587 1369 556 1364 q 663 1375 618 1375 l 707 1375 q 783 1369 751 1375 q 833 1348 814 1364 q 862 1304 853 1332 q 871 1233 871 1276 l 871 1183 m 699 1121 q 765 1132 751 1121 q 779 1183 779 1143 l 779 1233 q 765 1285 779 1274 q 699 1296 751 1296 l 671 1296 q 604 1285 618 1296 q 590 1233 590 1274 l 590 1183 q 604 1132 590 1143 q 671 1121 618 1121 l 699 1121 z "},"ů":{"ha":1238,"x_min":60,"x_max":1178,"o":"m 60 0 m 1090 790 q 1156 778 1135 790 q 1178 725 1178 765 l 1178 242 q 785 0 1178 0 l 453 0 q 60 242 60 0 l 60 725 q 82 778 60 765 q 149 790 104 790 q 215 778 193 790 q 236 725 236 765 l 236 242 q 289 169 236 199 q 458 140 342 140 l 779 140 q 949 169 896 140 q 1001 242 1001 199 l 1001 725 q 1024 778 1001 765 q 1090 790 1046 790 m 804 961 q 795 890 804 917 q 767 847 786 863 q 716 825 747 831 q 640 819 685 819 l 596 819 q 520 825 551 819 q 469 847 489 831 q 441 890 450 863 q 432 961 432 917 l 432 1011 q 441 1082 432 1054 q 469 1126 450 1110 q 520 1147 489 1142 q 596 1153 551 1153 l 640 1153 q 716 1147 685 1153 q 767 1126 747 1142 q 795 1082 786 1110 q 804 1011 804 1054 l 804 961 m 632 899 q 699 910 685 899 q 713 961 713 921 l 713 1011 q 699 1063 713 1051 q 632 1074 685 1074 l 604 1074 q 538 1063 551 1074 q 524 1011 524 1051 l 524 961 q 538 910 524 921 q 604 899 551 899 l 632 899 z "},"Ű":{"ha":1369,"x_min":60,"x_max":1310,"o":"m 60 0 m 471 0 q 60 258 60 0 l 60 947 q 83 1000 60 988 q 151 1013 107 1013 q 221 1000 197 1013 q 244 947 244 988 l 244 258 q 299 182 244 214 q 476 150 354 150 l 893 150 q 1070 182 1015 150 q 1125 258 1125 214 l 1125 947 q 1149 1000 1125 988 q 1218 1013 1172 1013 q 1286 1000 1263 1013 q 1310 947 1310 988 l 1310 258 q 899 0 1310 0 l 471 0 m 864 1104 q 794 1086 836 1086 q 743 1101 758 1086 q 728 1143 728 1115 q 761 1204 728 1181 l 981 1357 q 1016 1371 996 1367 q 1053 1375 1036 1375 q 1117 1317 1117 1375 q 1085 1257 1117 1279 l 864 1104 m 528 1104 q 497 1090 513 1093 q 446 1086 481 1086 q 408 1101 424 1086 q 392 1144 392 1115 q 424 1204 392 1182 l 644 1357 q 714 1375 671 1375 q 763 1363 744 1375 q 781 1315 781 1350 q 774 1283 781 1296 q 747 1257 767 1269 l 528 1104 z "},"ű":{"ha":1238,"x_min":60,"x_max":1178,"o":"m 60 0 m 1090 790 q 1156 778 1135 790 q 1178 725 1178 765 l 1178 242 q 785 0 1178 0 l 453 0 q 60 242 60 0 l 60 725 q 82 778 60 765 q 149 790 104 790 q 215 778 193 790 q 236 725 236 765 l 236 242 q 289 169 236 199 q 458 140 342 140 l 779 140 q 949 169 896 140 q 1001 242 1001 199 l 1001 725 q 1024 778 1001 765 q 1090 790 1046 790 m 797 882 q 728 864 769 864 q 676 878 692 864 q 661 921 661 893 q 694 982 661 958 l 914 1135 q 949 1149 929 1144 q 986 1153 969 1153 q 1050 1094 1050 1153 q 1018 1035 1050 1057 l 797 882 m 461 882 q 430 867 446 871 q 379 864 414 864 q 341 878 357 864 q 325 922 325 893 q 357 982 325 960 l 578 1135 q 647 1153 604 1153 q 696 1140 678 1153 q 714 1093 714 1128 q 707 1060 714 1074 q 681 1035 700 1047 l 461 882 z "},"Ų":{"ha":1369,"x_min":60,"x_max":1310,"o":"m 843 -161 q 881 -177 872 -161 q 890 -225 890 -193 q 881 -274 890 -257 q 843 -292 872 -292 l 635 -292 q 557 -281 588 -292 q 509 -255 526 -271 q 485 -220 492 -239 q 478 -186 478 -201 l 478 -153 q 489 -101 478 -124 q 527 -61 500 -79 q 599 -28 554 -43 q 714 0 644 -14 l 471 0 q 60 258 60 0 l 60 947 q 83 1000 60 988 q 151 1013 107 1013 q 221 1000 197 1013 q 244 947 244 988 l 244 258 q 299 182 244 214 q 476 150 354 150 l 893 150 q 1070 182 1015 150 q 1125 258 1125 214 l 1125 947 q 1149 1000 1125 988 q 1218 1013 1172 1013 q 1286 1000 1263 1013 q 1310 947 1310 988 l 1310 258 q 899 0 1310 0 l 863 0 q 754 -36 797 -21 q 686 -63 711 -51 q 651 -85 661 -75 q 642 -108 642 -96 l 642 -129 q 649 -155 642 -149 q 679 -161 657 -161 l 843 -161 l 843 -161 z "},"ų":{"ha":1238,"x_min":60,"x_max":1178,"o":"m 729 -161 q 767 -177 758 -161 q 776 -225 776 -193 q 767 -274 776 -257 q 729 -292 758 -292 l 521 -292 q 443 -281 474 -292 q 395 -255 413 -271 q 371 -220 378 -239 q 364 -186 364 -201 l 364 -153 q 375 -101 364 -124 q 413 -61 386 -79 q 485 -28 440 -43 q 600 0 531 -14 l 453 0 q 60 242 60 0 l 60 725 q 82 778 60 765 q 149 790 104 790 q 215 778 193 790 q 236 725 236 765 l 236 242 q 289 169 236 199 q 458 140 342 140 l 779 140 q 949 169 896 140 q 1001 242 1001 199 l 1001 725 q 1024 778 1001 765 q 1090 790 1046 790 q 1156 778 1135 790 q 1178 725 1178 765 l 1178 242 q 785 0 1178 0 l 750 0 q 640 -36 683 -21 q 572 -63 597 -51 q 538 -85 547 -75 q 528 -108 528 -96 l 528 -129 q 535 -155 528 -149 q 565 -161 543 -161 l 729 -161 l 729 -161 z "},"Ŵ":{"ha":1932,"x_min":17,"x_max":1915,"o":"m 17 0 m 632 54 q 525 -6 606 -6 q 456 10 485 -6 q 411 58 426 25 l 25 915 q 17 947 17 932 q 45 995 17 978 q 118 1013 74 1013 q 169 1002 150 1013 q 197 971 188 992 l 522 208 l 860 943 q 901 998 879 983 q 965 1013 924 1013 q 1028 998 1010 1013 q 1065 943 1047 983 l 1401 208 l 1735 971 q 1814 1013 1753 1013 q 1887 995 1858 1013 q 1915 947 1915 978 q 1907 915 1915 932 l 1513 58 q 1399 -6 1483 -6 q 1333 8 1361 -6 q 1289 54 1304 22 l 961 768 l 632 54 m 878 1114 q 844 1092 865 1099 q 801 1086 822 1086 q 739 1099 765 1086 q 713 1135 713 1113 q 724 1161 713 1149 l 876 1342 q 911 1367 890 1358 q 965 1375 932 1375 q 1019 1367 999 1375 q 1054 1342 1040 1358 l 1207 1161 q 1218 1135 1218 1149 q 1192 1099 1218 1113 q 1129 1086 1165 1086 q 1087 1092 1108 1086 q 1053 1114 1065 1099 l 965 1221 l 878 1114 z "},"ŵ":{"ha":1644,"x_min":14,"x_max":1631,"o":"m 14 0 m 546 42 q 446 -6 521 -6 q 381 6 408 -6 q 342 44 354 18 l 22 714 q 14 740 14 728 q 40 777 14 764 q 110 790 67 790 q 185 758 171 790 l 444 175 l 736 736 q 772 779 753 768 q 826 790 790 790 q 860 787 847 790 q 883 777 874 783 q 899 760 892 771 q 913 736 906 750 l 1193 175 l 1458 758 q 1535 790 1472 790 q 1604 777 1578 790 q 1631 740 1631 764 q 1622 714 1631 728 l 1294 44 q 1255 6 1282 18 q 1192 -6 1228 -6 q 1130 6 1157 -6 q 1090 42 1103 17 l 824 583 l 546 42 m 735 892 q 701 870 722 876 q 658 864 679 864 q 596 877 622 864 q 569 913 569 890 q 581 939 569 926 l 733 1119 q 768 1144 747 1136 q 822 1153 789 1153 q 876 1144 856 1153 q 911 1119 897 1136 l 1064 939 q 1075 913 1075 926 q 1049 877 1075 890 q 986 864 1022 864 q 944 870 965 864 q 910 892 922 876 l 822 999 l 735 892 z "},"Ŷ":{"ha":1276,"x_min":15,"x_max":1261,"o":"m 15 0 m 44 901 q 15 957 15 928 q 39 996 15 979 q 115 1013 63 1013 q 162 1006 146 1013 q 193 986 178 1000 l 639 553 l 1083 986 q 1114 1006 1097 1000 q 1161 1013 1131 1013 q 1238 997 1214 1013 q 1261 957 1261 981 q 1232 901 1261 928 l 731 417 l 731 60 q 707 7 731 19 q 638 -6 683 -6 q 569 7 593 -6 q 546 60 546 19 l 546 417 l 44 901 m 550 1114 q 516 1092 538 1099 q 474 1086 494 1086 q 411 1099 438 1086 q 385 1135 385 1113 q 396 1161 385 1149 l 549 1342 q 583 1367 563 1358 q 638 1375 604 1375 q 692 1367 671 1375 q 726 1342 713 1358 l 879 1161 q 890 1135 890 1149 q 864 1099 890 1113 q 801 1086 838 1086 q 759 1092 781 1086 q 725 1114 738 1099 l 638 1221 l 550 1114 z "},"ŷ":{"ha":1222,"x_min":60,"x_max":1157,"o":"m 60 0 m 981 160 l 981 725 q 1002 778 981 765 q 1068 790 1024 790 q 1135 778 1113 790 q 1157 725 1157 765 l 1157 13 q 1065 -168 1157 -108 q 797 -228 972 -228 l 606 -228 q 565 -210 574 -228 q 556 -157 556 -192 q 565 -105 556 -122 q 606 -87 574 -87 l 797 -87 q 940 -62 900 -87 q 981 13 981 -36 l 981 19 l 453 19 q 60 261 60 19 l 60 725 q 81 778 60 765 q 147 790 103 790 q 214 778 192 790 q 236 725 236 765 l 236 260 q 289 188 236 217 q 458 160 342 160 l 981 160 m 524 892 q 490 870 511 876 q 447 864 468 864 q 385 877 411 864 q 358 913 358 890 q 369 939 358 926 l 522 1119 q 557 1144 536 1136 q 611 1153 578 1153 q 665 1144 644 1153 q 700 1119 686 1136 l 853 939 q 864 913 864 926 q 838 877 864 890 q 775 864 811 864 q 733 870 754 864 q 699 892 711 876 l 611 999 l 524 892 z "},"Ÿ":{"ha":1276,"x_min":15,"x_max":1261,"o":"m 15 0 m 44 901 q 15 957 15 928 q 39 996 15 979 q 115 1013 63 1013 q 162 1006 146 1013 q 193 986 178 1000 l 639 553 l 1083 986 q 1114 1006 1097 1000 q 1161 1013 1131 1013 q 1238 997 1214 1013 q 1261 957 1261 981 q 1232 901 1261 928 l 731 417 l 731 60 q 707 7 731 19 q 638 -6 683 -6 q 569 7 593 -6 q 546 60 546 19 l 546 417 l 44 901 m 688 1190 q 713 1256 688 1235 q 797 1276 739 1276 q 881 1256 856 1276 q 907 1190 907 1235 q 881 1125 907 1146 q 797 1104 856 1104 q 713 1125 739 1104 q 688 1190 688 1146 m 368 1190 q 394 1256 368 1235 q 478 1276 419 1276 q 562 1256 536 1276 q 588 1190 588 1235 q 562 1125 588 1146 q 478 1104 536 1104 q 394 1125 419 1104 q 368 1190 368 1146 z "},"Ź":{"ha":1233,"x_min":25,"x_max":1172,"o":"m 25 0 m 178 0 q 64 19 103 0 q 25 96 25 39 q 32 134 25 119 q 54 161 39 149 l 990 982 q 1031 1002 1007 997 q 1086 1007 1054 1007 q 1117 1006 1101 1007 q 1144 998 1132 1004 q 1165 981 1157 992 q 1172 950 1172 969 q 1162 916 1172 929 q 1128 882 1151 903 l 278 150 l 1115 150 q 1159 131 1149 150 q 1169 75 1169 113 q 1159 19 1169 38 q 1115 0 1149 0 l 178 0 m 681 1104 q 641 1090 661 1094 q 576 1086 621 1086 q 528 1101 549 1086 q 507 1144 507 1115 q 549 1204 507 1182 l 831 1357 q 870 1371 850 1367 q 935 1375 890 1375 q 983 1360 963 1375 q 1004 1315 1004 1346 q 963 1257 1004 1279 l 681 1104 z "},"ź":{"ha":1201,"x_min":36,"x_max":1142,"o":"m 36 0 m 322 140 l 1092 140 q 1133 122 1124 140 q 1142 69 1142 104 q 1133 17 1142 35 q 1092 0 1124 0 l 171 0 q 66 17 96 0 q 36 72 36 35 q 44 106 36 92 q 71 136 51 121 l 926 771 q 965 786 942 782 q 1028 790 989 790 q 1094 783 1067 790 q 1122 746 1122 776 q 1113 719 1122 729 q 1081 693 1103 708 l 322 140 m 664 882 q 624 868 644 872 q 560 864 604 864 q 511 878 532 864 q 490 922 490 893 q 532 982 490 960 l 814 1135 q 853 1149 833 1144 q 918 1153 874 1153 q 967 1138 946 1153 q 988 1093 988 1124 q 946 1035 988 1057 l 664 882 z "},"Ż":{"ha":1233,"x_min":25,"x_max":1172,"o":"m 25 0 m 178 0 q 64 19 103 0 q 25 96 25 39 q 32 134 25 119 q 54 161 39 149 l 990 982 q 1031 1002 1007 997 q 1086 1007 1054 1007 q 1117 1006 1101 1007 q 1144 998 1132 1004 q 1165 981 1157 992 q 1172 950 1172 969 q 1162 916 1172 929 q 1128 882 1151 903 l 278 150 l 1115 150 q 1159 131 1149 150 q 1169 75 1169 113 q 1159 19 1169 38 q 1115 0 1149 0 l 178 0 m 576 1190 q 602 1256 576 1235 q 686 1276 628 1276 q 770 1256 744 1276 q 796 1190 796 1235 q 770 1125 796 1146 q 686 1104 744 1104 q 602 1125 628 1104 q 576 1190 576 1146 z "},"ż":{"ha":1201,"x_min":36,"x_max":1142,"o":"m 36 0 m 322 140 l 1092 140 q 1133 122 1124 140 q 1142 69 1142 104 q 1133 17 1142 35 q 1092 0 1124 0 l 171 0 q 66 17 96 0 q 36 72 36 35 q 44 106 36 92 q 71 136 51 121 l 926 771 q 965 786 942 782 q 1028 790 989 790 q 1094 783 1067 790 q 1122 746 1122 776 q 1113 719 1122 729 q 1081 693 1103 708 l 322 140 m 560 968 q 585 1033 560 1013 q 669 1054 611 1054 q 753 1033 728 1054 q 779 968 779 1013 q 753 903 779 924 q 669 882 728 882 q 585 903 611 882 q 560 968 560 924 z "},"Ž":{"ha":1233,"x_min":25,"x_max":1172,"o":"m 25 0 m 178 0 q 64 19 103 0 q 25 96 25 39 q 32 134 25 119 q 54 161 39 149 l 990 982 q 1031 1002 1007 997 q 1086 1007 1054 1007 q 1117 1006 1101 1007 q 1144 998 1132 1004 q 1165 981 1157 992 q 1172 950 1172 969 q 1162 916 1172 929 q 1128 882 1151 903 l 278 150 l 1115 150 q 1159 131 1149 150 q 1169 75 1169 113 q 1159 19 1169 38 q 1115 0 1149 0 l 178 0 m 774 1347 q 808 1369 786 1363 q 850 1375 829 1375 q 913 1362 886 1375 q 939 1326 939 1349 q 928 1300 939 1313 l 775 1119 q 740 1094 761 1103 q 686 1086 719 1086 q 632 1094 653 1086 q 597 1119 611 1103 l 444 1300 q 433 1326 433 1313 q 460 1362 433 1349 q 522 1375 486 1375 q 565 1369 543 1375 q 599 1347 586 1363 l 686 1240 l 774 1347 z "},"ž":{"ha":1201,"x_min":36,"x_max":1142,"o":"m 36 0 m 322 140 l 1092 140 q 1133 122 1124 140 q 1142 69 1142 104 q 1133 17 1142 35 q 1092 0 1124 0 l 171 0 q 66 17 96 0 q 36 72 36 35 q 44 106 36 92 q 71 136 51 121 l 926 771 q 965 786 942 782 q 1028 790 989 790 q 1094 783 1067 790 q 1122 746 1122 776 q 1113 719 1122 729 q 1081 693 1103 708 l 322 140 m 757 1125 q 791 1147 769 1140 q 833 1153 813 1153 q 896 1140 869 1153 q 922 1104 922 1126 q 911 1078 922 1090 l 758 897 q 724 872 744 881 q 669 864 703 864 q 615 872 636 864 q 581 897 594 881 l 428 1078 q 417 1104 417 1090 q 443 1140 417 1126 q 506 1153 469 1153 q 548 1147 526 1153 q 582 1125 569 1140 l 669 1018 l 757 1125 z "},"ƒ":{"ha":658,"x_min":18,"x_max":639,"o":"m 589 1007 q 630 989 621 1007 q 639 936 639 971 q 630 884 639 901 q 589 867 621 867 l 532 867 q 448 841 479 867 q 417 767 417 815 l 417 632 l 575 632 q 616 614 607 632 q 625 561 625 596 q 616 509 625 526 q 575 492 607 492 l 417 492 l 417 13 q 394 -92 417 -47 q 333 -167 372 -137 q 240 -212 293 -197 q 125 -228 186 -228 l 68 -228 q 27 -210 36 -228 q 18 -157 18 -192 q 27 -105 18 -122 q 68 -87 36 -87 l 125 -87 q 209 -62 178 -87 q 240 13 240 -36 l 240 492 l 93 492 q 52 509 61 492 q 43 561 43 526 q 52 614 43 596 q 93 632 61 632 l 240 632 l 240 767 q 263 872 240 826 q 324 947 285 917 q 417 992 364 976 q 532 1007 471 1007 l 589 1007 z "},"Ș":{"ha":1232,"x_min":47,"x_max":1193,"o":"m 47 0 m 458 436 q 47 694 47 436 l 47 749 q 458 1007 47 1007 l 597 1007 q 641 988 631 1007 q 651 932 651 969 q 641 876 651 894 q 597 857 631 857 l 454 857 q 281 826 332 857 q 231 749 231 794 l 231 694 q 281 618 231 650 q 454 586 332 586 l 782 586 q 1193 328 1193 586 l 1193 258 q 782 0 1193 0 l 101 0 q 58 19 68 0 q 47 75 47 38 q 58 131 47 113 q 101 150 68 150 l 786 150 q 959 181 908 150 q 1010 258 1010 213 l 1010 328 q 959 404 1010 372 q 786 436 908 436 l 458 436 m 696 -236 q 669 -280 690 -268 q 601 -292 649 -292 q 531 -281 553 -292 q 510 -242 510 -269 q 511 -222 510 -233 q 515 -197 513 -210 l 536 -75 q 563 -31 542 -43 q 632 -19 583 -19 q 701 -31 681 -19 q 721 -74 721 -42 q 720 -90 721 -81 q 718 -106 719 -99 l 696 -236 z "},"ș":{"ha":1096,"x_min":47,"x_max":1057,"o":"m 47 0 m 47 576 q 131 729 47 674 q 378 785 214 785 l 568 785 q 610 767 600 785 q 619 714 619 750 q 610 662 619 679 q 568 644 600 644 l 376 644 q 260 626 297 644 q 222 575 222 607 l 222 539 q 261 488 222 507 q 383 468 300 468 l 690 468 q 971 413 885 468 q 1057 257 1057 357 l 1057 213 q 1035 123 1057 163 q 965 56 1013 83 q 843 15 918 29 q 664 0 768 0 l 101 0 q 60 17 69 0 q 50 71 50 35 q 60 123 50 106 q 101 140 69 140 l 690 140 q 783 145 746 140 q 841 159 819 150 q 871 181 863 168 q 879 210 879 193 l 879 260 q 871 289 879 276 q 842 311 863 301 q 785 326 821 321 q 696 331 750 331 l 385 331 q 132 385 217 331 q 47 536 47 440 l 47 576 m 628 -236 q 601 -280 622 -268 q 533 -292 581 -292 q 463 -281 485 -292 q 442 -242 442 -269 q 443 -222 442 -233 q 447 -197 444 -210 l 468 -75 q 494 -31 474 -43 q 564 -19 515 -19 q 633 -31 613 -19 q 653 -74 653 -42 q 652 -90 653 -81 q 650 -106 651 -99 l 628 -236 z "},"Ț":{"ha":1164,"x_min":17,"x_max":1147,"o":"m 17 0 m 674 857 l 674 60 q 650 7 674 19 q 581 -6 626 -6 q 513 7 536 -6 q 489 60 489 19 l 489 857 l 71 857 q 27 876 38 857 q 17 932 17 894 q 27 988 17 969 q 71 1007 38 1007 l 1093 1007 q 1137 988 1126 1007 q 1147 932 1147 969 q 1137 876 1147 894 q 1093 857 1126 857 l 674 857 m 635 -236 q 608 -280 629 -268 q 540 -292 588 -292 q 470 -281 492 -292 q 449 -242 449 -269 q 450 -222 449 -233 q 454 -197 451 -210 l 475 -75 q 501 -31 481 -43 q 571 -19 522 -19 q 640 -31 619 -19 q 660 -74 660 -42 q 659 -90 660 -81 q 657 -106 658 -99 l 635 -236 z "},"ț":{"ha":682,"x_min":17,"x_max":665,"o":"m 17 0 m 146 785 l 146 947 q 167 1000 146 988 q 233 1013 189 1013 q 300 1000 278 1013 q 322 947 322 988 l 322 785 l 615 785 q 656 767 647 785 q 665 714 665 749 q 656 662 665 679 q 615 644 647 644 l 322 644 l 322 60 q 300 7 322 19 q 233 -6 278 -6 q 167 7 189 -6 q 146 60 146 19 l 146 644 l 67 644 q 26 662 35 644 q 17 714 17 679 q 26 767 17 749 q 67 785 35 785 l 146 785 m 289 -236 q 263 -280 283 -268 q 194 -292 242 -292 q 124 -281 146 -292 q 103 -242 103 -269 q 104 -222 103 -233 q 108 -197 106 -210 l 129 -75 q 156 -31 135 -43 q 225 -19 176 -19 q 294 -31 274 -19 q 314 -74 314 -42 q 313 -90 314 -81 q 311 -106 313 -99 l 289 -236 z "},"ˆ":{"ha":611,"x_min":53,"x_max":558,"o":"m 218 892 q 184 870 206 876 q 142 864 163 864 q 79 877 106 864 q 53 913 53 890 q 64 939 53 926 l 217 1119 q 251 1144 231 1136 q 306 1153 272 1153 q 360 1144 339 1153 q 394 1119 381 1136 l 547 939 q 558 913 558 926 q 532 877 558 890 q 469 864 506 864 q 427 870 449 864 q 393 892 406 876 l 306 999 l 218 892 z "},"ˇ":{"ha":611,"x_min":53,"x_max":558,"o":"m 393 1125 q 427 1147 406 1140 q 469 1153 449 1153 q 532 1140 506 1153 q 558 1104 558 1126 q 547 1078 558 1090 l 394 897 q 360 872 381 881 q 306 864 339 864 q 251 872 272 864 q 217 897 231 881 l 64 1078 q 53 1104 53 1090 q 79 1140 53 1126 q 142 1153 106 1153 q 184 1147 163 1153 q 218 1125 206 1140 l 306 1018 l 393 1125 z "},"˘":{"ha":742,"x_min":53,"x_max":689,"o":"m 371 864 q 254 879 311 864 q 152 924 197 894 q 80 994 107 953 q 53 1089 53 1036 q 71 1139 53 1125 q 140 1153 89 1153 q 192 1146 171 1153 q 225 1115 214 1139 q 247 1073 235 1094 q 275 1033 258 1051 q 315 1004 292 1015 q 371 993 338 993 q 427 1004 404 993 q 467 1033 450 1015 q 495 1073 483 1051 q 517 1115 507 1094 q 549 1146 528 1139 q 601 1153 571 1153 q 671 1139 653 1153 q 689 1089 689 1125 q 661 994 689 1036 q 589 924 633 953 q 488 879 544 894 q 371 864 431 864 z "},"˙":{"ha":325,"x_min":53,"x_max":272,"o":"m 53 968 q 78 1033 53 1013 q 163 1054 104 1054 q 247 1033 221 1054 q 272 968 272 1013 q 247 903 272 924 q 163 882 221 882 q 78 903 104 882 q 53 968 53 924 z "},"˚":{"ha":478,"x_min":53,"x_max":425,"o":"m 425 961 q 416 890 425 917 q 388 847 407 863 q 337 825 368 831 q 261 819 306 819 l 217 819 q 141 825 172 819 q 90 847 110 831 q 62 890 71 863 q 53 961 53 917 l 53 1011 q 62 1082 53 1054 q 90 1126 71 1110 q 141 1147 110 1142 q 217 1153 172 1153 l 261 1153 q 337 1147 306 1153 q 388 1126 368 1142 q 416 1082 407 1110 q 425 1011 425 1054 l 425 961 m 253 899 q 319 910 306 899 q 333 961 333 921 l 333 1011 q 319 1063 333 1051 q 253 1074 306 1074 l 225 1074 q 158 1063 172 1074 q 144 1011 144 1051 l 144 961 q 158 910 144 921 q 225 899 172 899 l 253 899 z "},"˛":{"ha":518,"x_min":53,"x_max":465,"o":"m 418 -161 q 456 -177 447 -161 q 465 -225 465 -193 q 456 -274 465 -257 q 418 -292 447 -292 l 210 -292 q 132 -281 163 -292 q 84 -255 101 -271 q 60 -220 67 -239 q 53 -186 53 -201 l 53 -153 q 64 -101 53 -124 q 102 -61 75 -79 q 174 -28 129 -43 q 289 0 219 -14 l 429 0 q 413 -10 421 -7 q 381 -21 406 -14 q 254 -66 292 -49 q 217 -108 217 -83 l 217 -129 q 224 -155 217 -149 q 254 -161 232 -161 l 418 -161 l 418 -161 z "},"˜":{"ha":724,"x_min":53,"x_max":671,"o":"m 625 1039 q 662 1023 653 1039 q 671 975 671 1007 q 662 927 671 943 q 625 911 653 911 l 99 911 q 61 927 69 911 q 53 975 53 943 q 61 1023 53 1007 q 99 1039 69 1039 l 625 1039 z "},"˝":{"ha":831,"x_min":53,"x_max":778,"o":"m 525 882 q 456 864 497 864 q 404 878 419 864 q 389 921 389 893 q 422 982 389 958 l 642 1135 q 677 1149 657 1144 q 714 1153 697 1153 q 778 1094 778 1153 q 746 1035 778 1057 l 525 882 m 189 882 q 158 867 174 871 q 107 864 142 864 q 69 878 85 864 q 53 922 53 893 q 85 982 53 960 l 306 1135 q 375 1153 332 1153 q 424 1140 406 1153 q 442 1093 442 1128 q 435 1060 442 1074 q 408 1035 428 1047 l 189 882 z "},"Δ":{"ha":1489,"x_min":17,"x_max":1472,"o":"m 121 0 q 85 6 104 0 q 51 22 67 11 q 26 45 36 32 q 17 75 17 58 q 28 106 17 92 l 632 964 q 675 1000 649 988 q 742 1013 701 1013 q 808 1000 782 1013 q 850 964 833 988 l 1461 106 q 1472 74 1472 88 q 1463 45 1472 58 q 1437 22 1453 32 q 1402 6 1421 11 q 1365 0 1383 0 l 121 0 m 263 150 l 1217 150 l 738 835 l 263 150 z "},"Ω":{"ha":1229,"x_min":44,"x_max":1183,"o":"m 482 875 q 356 863 407 875 q 274 820 306 850 q 230 740 243 790 q 217 617 217 690 q 236 448 217 518 q 286 322 256 378 q 352 221 317 267 q 419 125 388 175 q 433 100 429 110 q 436 76 436 90 q 379 0 436 0 l 110 0 q 61 14 78 0 q 44 72 44 28 q 61 133 44 117 q 110 150 78 150 l 253 150 q 169 247 207 200 q 103 346 131 293 q 61 464 76 399 q 46 618 46 529 q 71 803 46 728 q 149 926 96 879 q 284 992 201 972 q 482 1013 367 1013 l 751 1013 q 947 992 865 1013 q 1080 924 1028 971 q 1157 803 1132 878 q 1182 618 1182 728 q 1167 464 1182 529 q 1124 346 1151 399 q 1059 247 1097 293 q 975 150 1021 200 l 1118 150 q 1167 133 1150 150 q 1183 72 1183 117 q 1167 14 1183 28 q 1118 0 1150 0 l 849 0 q 792 76 792 0 q 795 100 792 90 q 808 125 799 110 q 874 219 839 174 q 940 320 910 265 q 991 446 971 375 q 1011 617 1011 517 q 998 740 1011 690 q 954 819 985 789 q 874 862 924 849 q 750 875 824 875 l 482 875 z "},"μ":{"ha":1228,"x_min":65,"x_max":1168,"o":"m 153 790 q 219 778 197 790 q 242 725 242 765 l 242 140 l 769 140 q 939 169 886 140 q 992 242 992 199 l 992 725 q 1013 778 992 765 q 1079 790 1035 790 q 1146 778 1124 790 q 1168 725 1168 765 l 1168 242 q 775 0 1168 0 l 242 0 l 242 -174 q 219 -226 242 -214 q 153 -239 197 -239 q 87 -226 108 -239 q 65 -174 65 -214 l 65 725 q 87 778 65 765 q 153 790 108 790 z "},"π":{"ha":1115,"x_min":75,"x_max":1039,"o":"m 981 785 q 1026 770 1013 785 q 1039 724 1039 756 l 1039 60 q 1017 7 1039 19 q 951 -6 996 -6 q 885 7 907 -6 q 863 60 863 19 l 863 644 l 251 644 l 251 60 q 229 7 251 19 q 163 -6 207 -6 q 97 7 118 -6 q 75 60 75 19 l 75 724 q 88 770 75 756 q 133 785 101 785 l 981 785 l 981 785 z "},"Ẁ":{"ha":1932,"x_min":17,"x_max":1915,"o":"m 17 0 m 632 54 q 525 -6 606 -6 q 456 10 485 -6 q 411 58 426 25 l 25 915 q 17 947 17 932 q 45 995 17 978 q 118 1013 74 1013 q 169 1002 150 1013 q 197 971 188 992 l 522 208 l 860 943 q 901 998 879 983 q 965 1013 924 1013 q 1028 998 1010 1013 q 1065 943 1047 983 l 1401 208 l 1735 971 q 1814 1013 1753 1013 q 1887 995 1858 1013 q 1915 947 1915 978 q 1907 915 1915 932 l 1513 58 q 1399 -6 1483 -6 q 1333 8 1361 -6 q 1289 54 1304 22 l 961 768 l 632 54 m 689 1257 q 647 1315 647 1279 q 668 1360 647 1346 q 717 1375 689 1375 q 781 1371 761 1375 q 821 1357 801 1367 l 1103 1204 q 1144 1144 1144 1182 q 1124 1101 1144 1115 q 1075 1086 1103 1086 q 1010 1090 1031 1086 q 971 1104 990 1094 l 689 1257 z "},"ẁ":{"ha":1644,"x_min":14,"x_max":1631,"o":"m 14 0 m 546 42 q 446 -6 521 -6 q 381 6 408 -6 q 342 44 354 18 l 22 714 q 14 740 14 728 q 40 777 14 764 q 110 790 67 790 q 185 758 171 790 l 444 175 l 736 736 q 772 779 753 768 q 826 790 790 790 q 860 787 847 790 q 883 777 874 783 q 899 760 892 771 q 913 736 906 750 l 1193 175 l 1458 758 q 1535 790 1472 790 q 1604 777 1578 790 q 1631 740 1631 764 q 1622 714 1631 728 l 1294 44 q 1255 6 1282 18 q 1192 -6 1228 -6 q 1130 6 1157 -6 q 1090 42 1103 17 l 824 583 l 546 42 m 546 1035 q 504 1093 504 1057 q 525 1138 504 1124 q 574 1153 546 1153 q 638 1149 618 1153 q 678 1135 658 1144 l 960 982 q 1001 922 1001 960 q 981 878 1001 893 q 932 864 960 864 q 867 868 888 864 q 828 882 847 872 l 546 1035 z "},"Ẃ":{"ha":1932,"x_min":17,"x_max":1915,"o":"m 17 0 m 632 54 q 525 -6 606 -6 q 456 10 485 -6 q 411 58 426 25 l 25 915 q 17 947 17 932 q 45 995 17 978 q 118 1013 74 1013 q 169 1002 150 1013 q 197 971 188 992 l 522 208 l 860 943 q 901 998 879 983 q 965 1013 924 1013 q 1028 998 1010 1013 q 1065 943 1047 983 l 1401 208 l 1735 971 q 1814 1013 1753 1013 q 1887 995 1858 1013 q 1915 947 1915 978 q 1907 915 1915 932 l 1513 58 q 1399 -6 1483 -6 q 1333 8 1361 -6 q 1289 54 1304 22 l 961 768 l 632 54 m 960 1104 q 920 1090 940 1094 q 856 1086 900 1086 q 807 1101 828 1086 q 786 1144 786 1115 q 828 1204 786 1182 l 1110 1357 q 1149 1371 1129 1367 q 1214 1375 1169 1375 q 1263 1360 1242 1375 q 1283 1315 1283 1346 q 1242 1257 1283 1279 l 960 1104 z "},"ẃ":{"ha":1644,"x_min":14,"x_max":1631,"o":"m 14 0 m 546 42 q 446 -6 521 -6 q 381 6 408 -6 q 342 44 354 18 l 22 714 q 14 740 14 728 q 40 777 14 764 q 110 790 67 790 q 185 758 171 790 l 444 175 l 736 736 q 772 779 753 768 q 826 790 790 790 q 860 787 847 790 q 883 777 874 783 q 899 760 892 771 q 913 736 906 750 l 1193 175 l 1458 758 q 1535 790 1472 790 q 1604 777 1578 790 q 1631 740 1631 764 q 1622 714 1631 728 l 1294 44 q 1255 6 1282 18 q 1192 -6 1228 -6 q 1130 6 1157 -6 q 1090 42 1103 17 l 824 583 l 546 42 m 817 882 q 777 868 797 872 q 713 864 757 864 q 664 878 685 864 q 643 922 643 893 q 685 982 643 960 l 967 1135 q 1006 1149 986 1144 q 1071 1153 1026 1153 q 1119 1138 1099 1153 q 1140 1093 1140 1124 q 1099 1035 1140 1057 l 817 882 z "},"Ẅ":{"ha":1932,"x_min":17,"x_max":1915,"o":"m 17 0 m 632 54 q 525 -6 606 -6 q 456 10 485 -6 q 411 58 426 25 l 25 915 q 17 947 17 932 q 45 995 17 978 q 118 1013 74 1013 q 169 1002 150 1013 q 197 971 188 992 l 522 208 l 860 943 q 901 998 879 983 q 965 1013 924 1013 q 1028 998 1010 1013 q 1065 943 1047 983 l 1401 208 l 1735 971 q 1814 1013 1753 1013 q 1887 995 1858 1013 q 1915 947 1915 978 q 1907 915 1915 932 l 1513 58 q 1399 -6 1483 -6 q 1333 8 1361 -6 q 1289 54 1304 22 l 961 768 l 632 54 m 1015 1190 q 1041 1256 1015 1235 q 1125 1276 1067 1276 q 1209 1256 1183 1276 q 1235 1190 1235 1235 q 1209 1125 1235 1146 q 1125 1104 1183 1104 q 1041 1125 1067 1104 q 1015 1190 1015 1146 m 696 1190 q 722 1256 696 1235 q 806 1276 747 1276 q 890 1256 864 1276 q 915 1190 915 1235 q 890 1125 915 1146 q 806 1104 864 1104 q 722 1125 747 1104 q 696 1190 696 1146 z "},"ẅ":{"ha":1644,"x_min":14,"x_max":1631,"o":"m 14 0 m 546 42 q 446 -6 521 -6 q 381 6 408 -6 q 342 44 354 18 l 22 714 q 14 740 14 728 q 40 777 14 764 q 110 790 67 790 q 185 758 171 790 l 444 175 l 736 736 q 772 779 753 768 q 826 790 790 790 q 860 787 847 790 q 883 777 874 783 q 899 760 892 771 q 913 736 906 750 l 1193 175 l 1458 758 q 1535 790 1472 790 q 1604 777 1578 790 q 1631 740 1631 764 q 1622 714 1631 728 l 1294 44 q 1255 6 1282 18 q 1192 -6 1228 -6 q 1130 6 1157 -6 q 1090 42 1103 17 l 824 583 l 546 42 m 872 968 q 898 1033 872 1013 q 982 1054 924 1054 q 1066 1033 1040 1054 q 1092 968 1092 1013 q 1066 903 1092 924 q 982 882 1040 882 q 898 903 924 882 q 872 968 872 924 m 553 968 q 578 1033 553 1013 q 663 1054 604 1054 q 747 1033 721 1054 q 772 968 772 1013 q 747 903 772 924 q 663 882 721 882 q 578 903 604 882 q 553 968 553 924 z "},"Ỳ":{"ha":1276,"x_min":15,"x_max":1261,"o":"m 15 0 m 44 901 q 15 957 15 928 q 39 996 15 979 q 115 1013 63 1013 q 162 1006 146 1013 q 193 986 178 1000 l 639 553 l 1083 986 q 1114 1006 1097 1000 q 1161 1013 1131 1013 q 1238 997 1214 1013 q 1261 957 1261 981 q 1232 901 1261 928 l 731 417 l 731 60 q 707 7 731 19 q 638 -6 683 -6 q 569 7 593 -6 q 546 60 546 19 l 546 417 l 44 901 m 361 1257 q 319 1315 319 1279 q 340 1360 319 1346 q 389 1375 361 1375 q 453 1371 433 1375 q 493 1357 474 1367 l 775 1204 q 817 1144 817 1182 q 796 1101 817 1115 q 747 1086 775 1086 q 683 1090 703 1086 q 643 1104 663 1094 l 361 1257 z "},"ỳ":{"ha":1222,"x_min":60,"x_max":1157,"o":"m 60 0 m 981 160 l 981 725 q 1002 778 981 765 q 1068 790 1024 790 q 1135 778 1113 790 q 1157 725 1157 765 l 1157 13 q 1065 -168 1157 -108 q 797 -228 972 -228 l 606 -228 q 565 -210 574 -228 q 556 -157 556 -192 q 565 -105 556 -122 q 606 -87 574 -87 l 797 -87 q 940 -62 900 -87 q 981 13 981 -36 l 981 19 l 453 19 q 60 261 60 19 l 60 725 q 81 778 60 765 q 147 790 103 790 q 214 778 192 790 q 236 725 236 765 l 236 260 q 289 188 236 217 q 458 160 342 160 l 981 160 m 335 1035 q 293 1093 293 1057 q 314 1138 293 1124 q 363 1153 335 1153 q 427 1149 407 1153 q 467 1135 447 1144 l 749 982 q 790 922 790 960 q 769 878 790 893 q 721 864 749 864 q 656 868 676 864 q 617 882 636 872 l 335 1035 z "},"–":{"ha":815,"x_min":17,"x_max":799,"o":"m 749 567 q 790 549 781 567 q 799 496 799 531 q 790 444 799 461 q 749 426 781 426 l 67 426 q 26 444 35 426 q 17 496 17 461 q 26 549 17 531 q 67 567 35 567 l 749 567 z "},"—":{"ha":1053,"x_min":4,"x_max":1049,"o":"m 999 567 q 1040 549 1031 567 q 1049 496 1049 531 q 1040 444 1049 461 q 999 426 1031 426 l 54 426 q 13 444 22 426 q 4 496 4 461 q 13 549 4 531 q 54 567 22 567 l 999 567 z "},"‘":{"ha":271,"x_min":22,"x_max":249,"o":"m 25 942 q 23 958 24 949 q 22 974 22 967 q 42 1017 22 1006 q 111 1028 63 1028 q 181 1016 160 1028 q 207 972 201 1004 l 243 749 q 247 724 246 736 q 249 704 249 713 q 227 665 249 676 q 158 654 206 654 q 89 666 110 654 q 63 710 68 678 l 25 942 z "},"’":{"ha":271,"x_min":22,"x_max":249,"o":"m 208 710 q 182 666 203 678 q 113 654 161 654 q 44 665 65 654 q 22 704 22 676 q 24 724 22 713 q 28 749 25 736 l 64 972 q 90 1016 69 1004 q 160 1028 111 1028 q 228 1017 208 1028 q 249 974 249 1006 q 248 958 249 967 q 246 942 247 949 l 208 710 z "},"‚":{"ha":271,"x_min":22,"x_max":249,"o":"m 208 -75 q 182 -119 203 -107 q 113 -131 161 -131 q 44 -119 65 -131 q 22 -81 22 -108 q 24 -60 22 -72 q 28 -36 25 -49 l 64 188 q 90 231 69 219 q 160 243 111 243 q 228 232 208 243 q 249 189 249 221 q 248 173 249 182 q 246 157 247 164 l 208 -75 m 208 -75 q 182 -119 203 -107 q 113 -131 161 -131 q 44 -119 65 -131 q 22 -81 22 -108 q 24 -60 22 -72 q 28 -36 25 -49 l 64 188 q 90 231 69 219 q 160 243 111 243 q 228 232 208 243 q 249 189 249 221 q 248 173 249 182 q 246 157 247 164 l 208 -75 z "},"“":{"ha":521,"x_min":22,"x_max":499,"o":"m 25 942 q 23 958 24 949 q 22 974 22 967 q 42 1017 22 1006 q 111 1028 63 1028 q 181 1016 160 1028 q 207 972 201 1004 l 243 749 q 247 724 246 736 q 249 704 249 713 q 227 665 249 676 q 158 654 206 654 q 89 666 110 654 q 63 710 68 678 l 25 942 m 275 942 q 273 958 274 949 q 272 974 272 967 q 292 1017 272 1006 q 361 1028 313 1028 q 431 1016 410 1028 q 457 972 451 1004 l 493 749 q 497 724 496 736 q 499 704 499 713 q 477 665 499 676 q 408 654 456 654 q 339 666 360 654 q 313 710 318 678 l 275 942 z "},"”":{"ha":521,"x_min":22,"x_max":499,"o":"m 458 710 q 432 666 453 678 q 363 654 411 654 q 294 665 315 654 q 272 704 272 676 q 274 724 272 713 q 278 749 275 736 l 314 972 q 340 1016 319 1004 q 410 1028 361 1028 q 478 1017 458 1028 q 499 974 499 1006 q 498 958 499 967 q 496 942 497 949 l 458 710 m 208 710 q 182 666 203 678 q 113 654 161 654 q 44 665 65 654 q 22 704 22 676 q 24 724 22 713 q 28 749 25 736 l 64 972 q 90 1016 69 1004 q 160 1028 111 1028 q 228 1017 208 1028 q 249 974 249 1006 q 248 958 249 967 q 246 942 247 949 l 208 710 z "},"„":{"ha":521,"x_min":22,"x_max":499,"o":"m 458 -75 q 432 -119 453 -107 q 363 -131 411 -131 q 294 -119 315 -131 q 272 -81 272 -108 q 274 -60 272 -72 q 278 -36 275 -49 l 314 188 q 340 231 319 219 q 410 243 361 243 q 478 232 458 243 q 499 189 499 221 q 498 173 499 182 q 496 157 497 164 l 458 -75 m 208 -75 q 182 -119 203 -107 q 113 -131 161 -131 q 44 -119 65 -131 q 22 -81 22 -108 q 24 -60 22 -72 q 28 -36 25 -49 l 64 188 q 90 231 69 219 q 160 243 111 243 q 228 232 208 243 q 249 189 249 221 q 248 173 249 182 q 246 157 247 164 l 208 -75 z "},"†":{"ha":631,"x_min":65,"x_max":565,"o":"m 371 36 q 353 3 369 11 q 315 -6 336 -6 q 278 3 294 -6 q 260 36 261 11 l 238 657 l 118 657 q 65 713 65 657 q 118 769 65 769 l 225 769 l 225 931 q 315 1013 225 1013 q 404 931 404 1013 l 404 769 l 515 769 q 565 713 565 769 q 515 657 565 657 l 393 657 l 371 36 z "},"‡":{"ha":631,"x_min":65,"x_max":565,"o":"m 238 315 l 257 488 l 238 657 l 118 657 q 65 714 65 657 q 118 769 65 769 l 225 769 l 225 931 q 315 1013 225 1013 q 404 931 404 1013 l 404 769 l 515 769 q 565 714 565 769 q 515 657 565 657 l 393 657 l 374 488 l 393 315 l 511 315 q 565 257 565 315 q 511 201 565 201 l 404 201 l 404 42 q 314 -42 404 -42 q 226 42 226 -42 l 226 201 l 115 201 q 65 258 65 201 q 115 315 65 315 l 238 315 z "},"•":{"ha":683,"x_min":65,"x_max":618,"o":"m 618 333 q 574 265 618 293 q 433 238 531 238 l 250 238 q 109 265 153 238 q 65 333 65 293 l 65 618 q 109 686 65 658 q 250 714 153 714 l 433 714 q 574 686 531 714 q 618 618 618 658 l 618 333 z "},"…":{"ha":1363,"x_min":93,"x_max":1268,"o":"m 93 0 m 93 81 q 119 146 93 125 q 203 167 144 167 q 287 146 261 167 q 313 81 313 125 q 287 15 313 36 q 203 -6 261 -6 q 119 15 144 -6 q 93 81 93 36 m 571 81 q 597 146 571 125 q 681 167 622 167 q 765 146 739 167 q 790 81 790 125 q 765 15 790 36 q 681 -6 739 -6 q 597 15 622 -6 q 571 81 571 36 m 1049 81 q 1074 146 1049 125 q 1158 167 1100 167 q 1242 146 1217 167 q 1268 81 1268 125 q 1242 15 1268 36 q 1158 -6 1217 -6 q 1074 15 1100 -6 q 1049 81 1049 36 z "}}}
